# vtk DataFile Version 4.2
vtk output
ASCII
DATASET POLYDATA
POINTS 895 float
-9.13778 28.5112 -25.9682 -9.21982 27.6436 -25.4838 -9.44538 26.8542 -24.928 
-9.78259 26.191 -24.2615 -10.2021 25.591 -23.5812 -10.6332 24.9654 -22.9316 
-11.077 24.3454 -22.2848 -11.504 23.725 -21.6271 -11.9065 23.0654 -20.9931 
-12.2973 22.3756 -20.3839 -12.692 21.6817 -19.7817 -13.1133 20.9946 -19.1898 
-13.493 20.3093 -18.5716 -13.5198 19.6538 -17.8411 -13.3361 19.0564 -17.062 
-13.0904 18.5406 -16.2428 -12.8204 18.1707 -15.3564 -12.5837 17.9577 -14.4112 
-12.4184 17.8619 -13.4312 -12.3222 17.8491 -12.4368 -12.3043 17.9337 -11.4423 
-12.3539 18.1522 -10.4698 -12.4218 18.5052 -9.53853 -12.4627 18.9822 -8.6624 
-12.5807 19.5378 -7.84901 -13.2708 20.0062 -7.36983 -14.2197 20.1759 -7.25114 
-15.1914 20.0169 -7.34117 -15.9371 19.5777 -7.7462 -16.2164 19.0121 -8.50262 
-16.3106 18.5168 -9.36432 -16.37 18.1358 -10.285 -16.4025 17.8968 -11.2531 
-16.39 17.8115 -12.248 -16.3036 17.8489 -13.2416 -16.1383 17.9813 -14.2178 
-15.9314 18.1759 -15.1763 -15.7013 18.4903 -16.0951 -15.5082 18.9692 -16.9472 
-15.4089 19.5914 -17.7197 -15.4479 20.2804 -18.4377 -15.6837 21.0012 -19.0872 
-15.986 21.725 -19.7072 -16.3245 22.4185 -20.3424 -16.6763 23.0704 -21.0139 
-17.0462 23.6954 -21.7013 -17.4522 24.2869 -22.3973 -17.8918 24.8489 -23.0979 
-18.333 25.4212 -23.7878 -18.7151 26.0706 -24.4445 -19.0669 26.7859 -25.0476 
-19.3158 27.5306 -25.6624 -8.65902 27.688 -25.8616 -8.96788 26.7173 -25.1518 
-9.29729 26.0343 -24.5011 -9.69819 25.3805 -23.8598 -10.1405 24.7398 -23.2322 
-10.59 24.1198 -22.5892 -11.0234 23.511 -21.9252 -11.4197 22.882 -21.2568 
-11.7871 22.2136 -20.61 -12.1379 21.5219 -19.979 -12.4774 20.8167 -19.3566 
-12.7456 20.1064 -18.7094 -12.7824 19.4427 -17.9771 -12.6061 18.8336 -17.2043 
-12.3386 18.2822 -16.4162 -11.9847 17.8654 -15.5823 -11.5666 17.5812 -14.7203 
-11.1007 17.3652 -13.8633 -10.5889 17.1951 -13.0213 -10.1646 17.1176 -12.1354 
-10.1217 17.2942 -11.1735 -10.3401 17.6319 -10.2586 -10.5829 17.9981 -9.3603 
-10.7986 18.3719 -8.45832 -10.9945 18.7664 -7.56085 -11.4408 19.1896 -6.7887 
-12.1338 19.6326 -6.2507 -13.0334 19.9682 -5.99899 -13.7639 20.105 -5.90945 
-14.2636 20.0971 -5.89715 -15.0007 19.9897 -5.92756 -15.901 19.6385 -6.14748 
-16.6637 19.1823 -6.59437 -17.0771 18.7372 -7.35965 -17.229 18.3368 -8.25889 
-17.3524 17.9622 -9.17767 -17.5028 17.6198 -10.1048 -17.614 17.3589 -11.0604 
-17.5376 17.2796 -12.0436 -17.2583 17.3884 -12.9959 -16.9062 17.5795 -13.9115 
-16.5542 17.8216 -14.8153 -16.2312 18.1215 -15.7118 -15.9428 18.5226 -16.5802 
-15.7399 19.0541 -17.3997 -15.687 19.7102 -18.1488 -15.7969 20.4175 -18.8429 
-16.0638 21.1424 -19.4766 -16.381 21.8455 -20.1126 -16.7142 22.5103 -20.7808 
-17.064 23.1434 -21.471 -17.4498 23.7398 -22.1746 -17.8723 24.3123 -22.8771 
-18.3153 24.8794 -23.5714 -18.7452 25.4995 -24.2262 -19.1413 26.1888 -24.8318 
-19.4533 26.9072 -25.4517 -19.644 27.6766 -26.0587 -8.83012 27.8359 -26.0306 
-8.98912 27.2229 -25.6334 -9.30379 26.4988 -25.0212 -9.67228 25.8444 -24.3622 
-10.1133 25.226 -23.7121 -10.5626 24.5981 -23.0767 -11.0154 23.9848 -22.4295 
-11.4369 23.3686 -21.7645 -11.834 22.7133 -21.1223 -12.2134 22.034 -20.4943 
-12.6012 21.3466 -19.8802 -13.0158 20.6605 -19.2826 -13.4512 19.9785 -18.695 
-13.6315 19.2965 -18.0139 -13.5131 18.65 -17.2647 -13.2838 18.0781 -16.4776 
-13.0298 17.6167 -15.6292 -12.776 17.2843 -14.7228 -12.5751 17.0662 -13.7686 
-12.4092 16.9046 -12.796 -12.2977 16.8194 -11.8068 -12.2838 16.8344 -10.8094 
-12.3542 16.9797 -9.82459 -12.4327 17.2808 -8.87704 -12.4861 17.7069 -7.975 
-12.5667 18.1954 -7.10723 -12.8965 18.7439 -6.35268 -13.5567 19.2355 -5.83755 
-14.2553 19.4287 -5.65773 -14.9881 19.3375 -5.72122 -16.0015 18.8439 -6.16479 
-16.5015 18.1955 -7.05302 -16.6115 17.7365 -7.93176 -16.6476 17.3303 -8.84471 
-16.691 16.9823 -9.78043 -16.7308 16.7734 -10.7538 -16.7142 16.737 -11.7506 
-16.5858 16.8452 -12.7328 -16.3771 17.0413 -13.6904 -16.1204 17.2827 -14.626 
-15.8452 17.5759 -15.5409 -15.5669 17.9553 -16.4225 -15.3141 18.4608 -17.2446 
-15.1276 19.0887 -17.9989 -15.1611 19.7835 -18.6922 -15.4867 20.4995 -19.3045 
-15.8519 21.2039 -19.913 -16.2104 21.893 -20.5424 -16.5551 22.5518 -21.2109 
-16.9124 23.1777 -21.9038 -17.3116 23.7709 -22.6026 -17.7454 24.3457 -23.2963 
-18.1823 24.9111 -23.996 -18.5881 25.521 -24.6749 -18.983 26.195 -25.2988 
-19.3016 26.9016 -25.9281 -8.66839 27.5568 -25.8717 -8.94741 26.7944 -25.2926 
-9.28766 26.1075 -24.6517 -9.68595 25.4563 -24.0062 -10.129 24.8169 -23.3778 
-10.5802 24.194 -22.739 -11.0148 23.586 -22.0748 -11.4168 22.9619 -21.4052 
-11.7905 22.2979 -20.7576 -12.149 21.6108 -20.1257 -12.504 20.9109 -19.506 
-12.8297 20.2026 -18.8806 -12.8823 19.5374 -18.1524 -12.7208 18.9305 -17.3752 
-12.4645 18.3653 -16.592 -12.1334 17.9135 -15.7661 -11.7383 17.6038 -14.9037 
-11.2985 17.3806 -14.0346 -10.8162 17.2135 -13.1747 -10.3731 17.1016 -12.29 
-10.2762 17.2252 -11.3241 -10.449 17.5234 -10.3911 -10.6802 17.8828 -9.48715 
-10.885 18.2644 -8.58595 -11.0556 18.6647 -7.68581 -11.3854 19.0909 -6.86494 
-12.0476 19.5502 -6.29386 -12.9209 19.916 -6.00095 -13.9022 20.0506 -5.90203 
-14.8911 19.9671 -5.91053 -15.8288 19.6621 -6.06705 -16.6277 19.2378 -6.45473 
-17.253 18.7897 -7.08205 -17.5434 18.4212 -7.95303 -17.7227 18.0941 -8.88075 
-17.917 17.7606 -9.80309 -18.1393 17.4137 -10.7139 -18.2552 17.159 -11.6563 
-18.0044 17.1796 -12.6045 -17.5236 17.394 -13.4541 -17.066 17.6482 -14.3059 
-16.6693 17.9303 -15.1789 -16.3266 18.2924 -16.0444 -16.0625 18.7659 -16.8821 
-15.9216 19.3488 -17.6771 -15.9398 20.0299 -18.4067 -16.1095 20.749 -19.0784 
-16.382 21.4679 -19.7171 -16.6941 22.1569 -20.371 -17.024 22.8069 -21.0554 
-17.386 23.4215 -21.7558 -17.7839 24.0023 -22.4657 -18.219 24.5667 -23.1671 
-18.6565 25.1684 -23.8343 -19.0829 25.8332 -24.4471 -19.4328 26.5414 -25.0581 
-19.6721 27.2771 -25.689 -8.71863 28.5639 -25.958 -8.80651 27.6972 -25.4722 
-9.01973 26.8977 -24.9231 -9.32714 26.2069 -24.2697 -9.70892 25.5498 -23.6203 
-10.1427 24.9082 -22.988 -10.5843 24.2822 -22.3455 -11.0092 23.6704 -21.6785 
-11.4016 23.0343 -21.0146 -11.7712 22.3608 -20.3747 -12.1188 21.6628 -19.7486 
-12.4352 20.9513 -19.1216 -12.6749 20.2393 -18.4662 -12.6352 19.6114 -17.7006 
-12.4654 19.0096 -16.9214 -12.1958 18.4823 -16.1194 -11.8328 18.1168 -15.264 
-11.4269 17.886 -14.3816 -10.9765 17.7524 -13.4997 -10.5303 17.6716 -12.6099 
-10.4351 17.8202 -11.653 -10.6297 18.1661 -10.7418 -10.8827 18.5821 -9.86882 
-11.108 19.0611 -9.02085 -11.3094 19.5916 -8.19804 -11.642 20.1581 -7.45158 
-12.3034 20.6294 -6.89547 -13.1808 20.9311 -6.58648 -14.1731 20.9716 -6.55825 
-15.1411 20.7883 -6.68738 -16.0063 20.4203 -7.00317 -16.6471 19.9285 -7.5497 
-16.8969 19.3779 -8.34367 -17.0889 18.8842 -9.19097 -17.2972 18.4506 -10.0672 
-17.4913 18.0914 -10.9787 -17.6157 17.8158 -11.9297 -17.4282 17.7966 -12.8926 
-17.0739 17.9454 -13.8144 -16.7125 18.1504 -14.7235 -16.3962 18.4325 -15.6278 
-16.1334 18.8375 -16.5007 -15.9785 19.3786 -17.3232 -15.9817 20.0408 -18.0686 
-16.1145 20.7498 -18.758 -16.3637 21.4778 -19.396 -16.6535 22.1886 -20.0366 
-16.9745 22.8554 -20.7087 -17.3282 23.4829 -21.4019 -17.7235 24.0643 -22.1124 
-18.1525 24.621 -22.8237 -18.587 25.218 -23.4964 -18.9889 25.8995 -24.1072 
-19.3245 26.6108 -24.7212 -19.5419 27.3447 -25.362 -19.6914 28.1565 -25.9254 
-8.7562 28.7294 -26.1159 -8.79055 28.0951 -25.7208 -8.9546 27.2486 -25.2247 
-9.24357 26.5332 -24.59 -9.59604 25.8677 -23.9336 -10.0142 25.2279 -23.2893 
-10.4564 24.5943 -22.6546 -10.8967 23.9802 -21.9998 -11.3111 23.3626 -21.3316 
-11.6957 22.7003 -20.6891 -12.0588 22.0121 -20.0611 -12.4065 21.3092 -19.4408 
-12.7178 20.5951 -18.8143 -12.8517 19.9226 -18.109 -12.7137 19.3294 -17.3165 
-12.4918 18.7635 -16.5236 -12.1849 18.3171 -15.6861 -11.8235 18.0429 -14.7983 
-11.4524 17.8857 -13.8842 -11.1026 17.8225 -12.9512 -10.9212 17.8899 -11.9822 
-11.038 18.1561 -11.0289 -11.2395 18.5214 -10.1212 -11.4325 18.9734 -9.25134 
-11.5948 19.5077 -8.42217 -11.8303 20.0934 -7.65063 -12.4355 20.5837 -7.07121 
-13.3686 20.8362 -6.85245 -14.3588 20.8424 -6.84912 -15.3008 20.59 -7.01995 
-16.0285 20.1351 -7.46439 -16.2991 19.5527 -8.22143 -16.4525 19.0262 -9.05552 
-16.575 18.5979 -9.94946 -16.6793 18.2897 -10.893 -16.7345 18.1029 -11.8729 
-16.6818 18.0508 -12.8661 -16.5042 18.1329 -13.8444 -16.2695 18.3032 -14.8008 
-16.0258 18.5647 -15.7334 -15.7987 18.9485 -16.626 -15.6672 19.508 -17.4396 
-15.6744 20.1798 -18.1763 -15.8467 20.8979 -18.8483 -16.1086 21.6307 -19.4753 
-16.416 22.3436 -20.105 -16.7519 23.0065 -20.7738 -17.1119 23.6388 -21.4595 
-17.5047 24.2331 -22.1609 -17.937 24.7906 -22.8695 -18.3787 25.3684 -23.5541 
-18.7709 26.0304 -24.1922 -19.1201 26.7403 -24.801 -19.3424 27.4892 -25.4224 
-19.4888 28.3076 -25.9764 -8.77607 28.5066 -26.0072 -8.8224 27.8706 -25.6159 
-9.01003 27.0534 -25.0831 -9.30197 26.3551 -24.4303 -9.67765 25.7013 -23.7745 
-10.1115 25.0653 -23.1367 -10.5547 24.4335 -22.501 -10.9925 23.8237 -21.8405 
-11.3955 23.1968 -21.1742 -11.7709 22.5266 -20.5343 -12.13 21.8324 -19.9106 
-12.4673 21.1258 -19.2887 -12.7501 20.4115 -18.65 -12.7561 19.7759 -17.8944 
-12.5979 19.1768 -17.1101 -12.3489 18.6297 -16.3125 -12.0153 18.2308 -15.4627 
-11.6334 17.9981 -14.5695 -11.2347 17.8761 -13.6611 -10.86 17.8279 -12.7368 
-10.712 17.9314 -11.7768 -10.8944 18.2551 -10.851 -11.1309 18.6658 -9.97083 
-11.335 19.1472 -9.11912 -11.5187 19.688 -8.29871 -11.7735 20.2721 -7.53065 
-12.3467 20.7666 -6.91185 -13.246 21.0402 -6.62236 -14.2371 21.0646 -6.60009 
-15.187 20.8267 -6.77765 -15.965 20.3952 -7.19838 -16.3666 19.8251 -7.89857 
-16.5593 19.2672 -8.7048 -16.7094 18.7693 -9.55785 -16.8561 18.3673 -10.4601 
-16.966 18.0875 -11.4113 -16.9682 17.9604 -12.3976 -16.8043 17.9973 -13.3809 
-16.5424 18.1427 -14.3341 -16.2691 18.3689 -15.2682 -16.0116 18.7091 -16.1712 
-15.8113 19.1752 -17.0298 -15.7531 19.8031 -17.8 -15.8438 20.5004 -18.5078 
-16.0602 21.2287 -19.1565 -16.3446 21.9558 -19.7809 -16.6675 22.642 -20.4321 
-17.0093 23.2892 -21.1133 -17.3824 23.8984 -21.8126 -17.8012 24.4688 -22.5187 
-18.2433 25.0261 -23.2213 -18.6594 25.6598 -23.8715 -19.0467 26.3511 -24.481 
-19.3259 27.0736 -25.1091 -19.5027 27.8549 -25.7048 -8.85615 27.5441 -25.9437 
-9.13533 26.7806 -25.3662 -9.48227 26.101 -24.7219 -9.89587 25.4699 -24.0662 
-10.3451 24.8455 -23.4274 -10.8001 24.2254 -22.7882 -11.2385 23.6154 -22.1285 
-11.6445 22.9831 -21.4692 -12.0287 22.3131 -20.834 -12.4086 21.63 -20.2104 
-12.8283 20.9472 -19.6129 -13.2915 20.2753 -19.0352 -13.593 19.5974 -18.3834 
-13.5175 18.9513 -17.6434 -13.2948 18.374 -16.8591 -13.0324 17.9032 -16.0191 
-12.7614 17.5626 -15.1207 -12.5272 17.3384 -14.1761 -12.3493 17.1953 -13.203 
-12.215 17.1101 -12.216 -12.1556 17.1062 -11.2197 -12.1991 17.2351 -10.2315 
-12.281 17.5204 -9.27977 -12.3396 17.9283 -8.36939 -12.4078 18.4117 -7.49952 
-12.7007 18.9409 -6.72427 -13.4494 19.3808 -6.29032 -14.1731 19.5332 -6.18916 
-14.9183 19.4776 -6.1989 -15.8481 19.1879 -6.36746 -16.5593 18.7048 -6.83889 
-16.8089 18.2407 -7.66267 -16.868 17.8259 -8.57033 -16.9298 17.4426 -9.49154 
-17.0163 17.1222 -10.4343 -17.0622 16.9504 -11.4131 -16.9762 16.9651 -12.4065 
-16.748 17.1206 -13.3654 -16.4501 17.349 -14.292 -16.147 17.6212 -15.2052 
-15.8505 17.9508 -16.1008 -15.5874 18.4179 -16.9421 -15.4009 19.0125 -17.7214 
-15.3475 19.6858 -18.4494 -15.5506 20.4062 -19.1068 -15.8803 21.1202 -19.7241 
-16.2253 21.8163 -20.3533 -16.5672 22.4801 -21.0184 -16.924 23.1085 -21.7093 
-17.3109 23.707 -22.4104 -17.7394 24.2831 -23.1063 -18.1771 24.8516 -23.8029 
-18.5877 25.4504 -24.4891 -18.984 26.1334 -25.1017 -19.3083 26.8432 -25.7246 
-8.79454 27.367 -25.9022 -9.09054 26.6161 -25.3137 -9.45033 25.9407 -24.6719 
-9.86819 25.3018 -24.0265 -10.3174 24.6707 -23.3941 -10.772 24.0543 -22.7513 
-11.2019 23.4461 -22.0842 -11.6 22.8109 -21.4225 -11.9763 22.1448 -20.7788 
-12.3494 21.4618 -20.1511 -12.7508 20.7733 -19.5471 -13.1579 20.0823 -18.9502 
-13.381 19.3982 -18.2823 -13.2432 18.7715 -17.5228 -12.993 18.2225 -16.7269 
-12.6972 17.7863 -15.8785 -12.387 17.4586 -14.9879 -12.0876 17.2375 -14.0604 
-11.8292 17.089 -13.1063 -11.6443 17.008 -12.1292 -11.5627 17.0154 -11.1339 
-11.639 17.1828 -10.1548 -11.7731 17.4944 -9.21599 -11.8752 17.9151 -8.31559 
-11.9579 18.3927 -7.44207 -12.1617 18.922 -6.62444 -12.7556 19.4389 -6.04027 
-13.5886 19.8317 -5.68247 -14.3095 19.9675 -5.53509 -15.0406 19.8545 -5.60937 
-15.9286 19.5122 -5.88653 -16.6852 19.0428 -6.33043 -17.1805 18.5662 -7.03687 
-17.3644 18.1861 -7.93925 -17.4864 17.8549 -8.87478 -17.6436 17.528 -9.80656 
-17.8006 17.2298 -10.7469 -17.8598 17.0186 -11.7183 -17.6494 17.0377 -12.6847 
-17.2476 17.2429 -13.576 -16.8361 17.4995 -14.4503 -16.4645 17.7991 -15.3284 
-16.1322 18.1677 -16.196 -15.8611 18.6367 -17.0345 -15.7038 19.233 -17.819 
-15.7264 19.9221 -18.5384 -15.9228 20.6428 -19.1996 -16.2169 21.3601 -19.8308 
-16.5427 22.0464 -20.4808 -16.8755 22.6964 -21.1637 -17.2326 23.3147 -21.8636 
-17.633 23.8993 -22.5688 -18.0676 24.4668 -23.2682 -18.5044 25.0555 -23.9479 
-18.9282 25.7053 -24.5776 -19.309 26.4054 -25.1793 -19.5585 27.1282 -25.8221 
-8.66118 27.554 -25.8822 -8.94035 26.7918 -25.3028 -9.2806 26.1048 -24.6621 
-9.67862 25.453 -24.017 -10.1217 24.8138 -23.3885 -10.5731 24.1908 -22.7498 
-11.0077 23.5827 -22.0856 -11.4097 22.9593 -21.4156 -11.7831 22.2958 -20.7673 
-12.1412 21.609 -20.1348 -12.4957 20.9091 -19.5148 -12.8207 20.2007 -18.8891 
-12.8757 19.5343 -18.1622 -12.7153 18.9261 -17.3857 -12.4592 18.3594 -16.6036 
-12.1274 17.9055 -15.7793 -11.7302 17.5924 -14.919 -11.2863 17.3657 -14.0529 
-10.7961 17.1936 -13.1985 -10.3371 17.0728 -12.3223 -10.2204 17.1861 -11.3582 
-10.3896 17.4805 -10.424 -10.6258 17.8351 -9.51958 -10.8368 18.2071 -8.61584 
-11.0124 18.5975 -7.71228 -11.3083 19.0202 -6.87082 -11.92 19.4876 -6.25073 
-12.7771 19.8769 -5.92986 -13.7292 20.099 -5.74331 -14.7167 20.0542 -5.73611 
-15.653 19.7708 -5.90641 -16.4532 19.3344 -6.29799 -17.0037 18.8857 -6.97015 
-17.2231 18.4736 -7.84982 -17.3428 18.0996 -8.76945 -17.4908 17.7451 -9.69259 
-17.6513 17.4159 -10.6222 -17.7226 17.1954 -11.5872 -17.5518 17.1905 -12.5617 
-17.1889 17.3684 -13.475 -16.8018 17.6036 -14.3664 -16.4457 17.8853 -15.2568 
-16.1246 18.2382 -16.135 -15.8596 18.6972 -16.9809 -15.7158 19.2934 -17.7661 
-15.7246 19.9794 -18.491 -15.9284 20.7022 -19.1474 -16.2175 21.4221 -19.778 
-16.5434 22.1103 -20.4259 -16.8787 22.7612 -21.1068 -17.2418 23.3779 -21.8048 
-17.6401 23.9629 -22.5111 -18.0756 24.5289 -23.2109 -18.514 25.1196 -23.888 
-18.9344 25.7742 -24.5149 -19.3175 26.4781 -25.1121 -19.5752 27.2097 -25.7402 
-8.73553 27.472 -26.048 -9.02255 26.7149 -25.4648 -9.37259 26.0336 -24.8232 
-9.77839 25.3891 -24.1756 -10.2236 24.756 -23.5427 -10.6776 24.1344 -22.9042 
-11.1178 23.529 -22.2414 -11.5204 22.9006 -21.5762 -11.8981 22.241 -20.9265 
-12.2631 21.5592 -20.2927 -12.6552 20.8711 -19.6824 -13.0669 20.181 -19.0872 
-13.2854 19.4895 -18.4164 -13.1775 18.8552 -17.6625 -12.9421 18.2864 -16.8761 
-12.6437 17.8239 -16.0426 -12.3173 17.4711 -15.1677 -11.9823 17.2324 -14.2569 
-11.6642 17.059 -13.3249 -11.4093 16.949 -12.3659 -11.3186 16.9699 -11.3757 
-11.4054 17.1544 -10.4014 -11.554 17.4748 -9.46749 -11.6705 17.8873 -8.56489 
-11.7605 18.353 -7.685 -12.015 18.8607 -6.88334 -12.6394 19.3685 -6.31517 
-13.5483 19.6632 -6.08819 -14.2906 19.7046 -6.04643 -15.0252 19.591 -6.08409 
-15.8962 19.2229 -6.33943 -16.5662 18.7088 -6.86399 -16.8143 18.2456 -7.68839 
-16.8728 17.8313 -8.59628 -16.9356 17.4482 -9.51749 -17.0196 17.1404 -10.4635 
-17.0602 16.9823 -11.4457 -16.9691 16.9995 -12.4385 -16.7386 17.1553 -13.3969 
-16.4408 17.3829 -14.3239 -16.1383 17.6567 -15.2365 -15.8441 17.9937 -16.1303 
-15.5851 18.4659 -16.9698 -15.4072 19.0656 -17.7472 -15.3664 19.7419 -18.4729 
-15.5821 20.4627 -19.1265 -15.9046 21.1777 -19.7465 -16.2492 21.8738 -20.3762 
-16.5905 22.5345 -21.0446 -16.9449 23.1658 -21.7341 -17.3351 23.7628 -22.4347 
-17.7666 24.3375 -23.1299 -18.208 24.9035 -23.8261 -18.6206 25.5172 -24.4977 
-19.0171 26.1987 -25.1121 -19.33 26.9119 -25.7365 -8.62988 27.6789 -26.0083 
-8.81195 27.0835 -25.5932 -9.13542 26.3658 -24.9775 -9.51235 25.7065 -24.3274 
-9.94102 25.0629 -23.6938 -10.3907 24.4326 -23.0609 -10.842 23.8218 -22.4105 
-11.2589 23.21 -21.7385 -11.6431 22.562 -21.0814 -12.0072 21.8867 -20.4402 
-12.3678 21.1919 -19.8177 -12.722 20.4889 -19.2011 -12.9916 19.7851 -18.5518 
-12.9616 19.1416 -17.8057 -12.7466 18.5577 -17.0239 -12.4562 18.0448 -16.2184 
-12.1045 17.6691 -15.3622 -11.7167 17.4046 -14.4804 -11.3025 17.2132 -13.591 
-10.9026 17.0748 -12.6859 -10.6871 17.0784 -11.7186 -10.7565 17.2793 -10.7514 
-10.9419 17.5971 -9.82345 -11.1187 17.9907 -8.92151 -11.2619 18.406 -8.02337 
-11.4811 18.8539 -7.16703 -12.0625 19.3445 -6.5377 -12.8916 19.747 -6.18643 
-13.8592 19.9311 -6.068 -14.8495 19.8591 -6.06988 -15.7819 19.5607 -6.22069 
-16.5412 19.1096 -6.65968 -16.8926 18.649 -7.44872 -16.9965 18.2247 -8.34531 
-17.0779 17.8338 -9.262 -17.1881 17.4828 -10.1915 -17.2801 17.2362 -11.1541 
-17.233 17.1675 -12.144 -17.0058 17.2773 -13.1068 -16.6896 17.478 -14.0333 
-16.3662 17.729 -14.9455 -16.0609 18.0466 -15.8425 -15.7957 18.4833 -16.6983 
-15.6014 19.0445 -17.501 -15.545 19.7036 -18.245 -15.6882 20.4174 -18.9267 
-15.9757 21.1387 -19.5559 -16.3006 21.8446 -20.1851 -16.6382 22.5099 -20.8507 
-16.9949 23.1401 -21.5398 -17.38 23.7399 -22.2408 -17.8073 24.313 -22.9399 
-18.2502 24.8792 -23.635 -18.6777 25.4908 -24.2994 -19.0771 26.182 -24.9009 
-19.3865 26.8973 -25.5245 -8.86015 28.8445 -26.0804 -8.88521 28.2121 -25.6825 
-9.02451 27.3502 -25.2033 -9.29989 26.6255 -24.5749 -9.6471 25.9618 -23.9142 
-10.0667 25.3342 -23.2589 -10.5056 24.6993 -22.6231 -10.945 24.0842 -21.9687 
-11.3612 23.4641 -21.3042 -11.7499 22.7975 -20.6685 -12.115 22.1044 -20.0472 
-12.4691 21.4021 -19.4298 -12.7931 20.6899 -18.8074 -12.9392 20.021 -18.1041 
-12.7977 19.4419 -17.3018 -12.5741 18.8921 -16.4983 -12.2732 18.4585 -15.6507 
-11.9312 18.196 -14.7521 -11.6007 18.0607 -13.8195 -11.334 18.0384 -12.859 
-11.2528 18.1491 -11.8764 -11.3658 18.3932 -10.9148 -11.548 18.7389 -9.99569 
-11.7271 19.1707 -9.1125 -11.8715 19.7113 -8.28531 -12.0409 20.3138 -7.5066 
-12.4871 20.8517 -6.82993 -13.3236 21.1884 -6.42528 -14.2905 21.2743 -6.31357 
-15.2368 21.0921 -6.54292 -16.0676 20.7318 -6.94888 -16.6221 20.2215 -7.59037 
-16.9568 19.6516 -8.33722 -17.1865 19.1178 -9.1504 -17.4314 18.6423 -9.99479 
-17.6931 18.2173 -10.861 -17.8921 17.8638 -11.7654 -17.6947 17.815 -12.7074 
-17.2918 17.9564 -13.6109 -16.9024 18.1581 -14.5091 -16.5625 18.4255 -15.4094 
-16.2841 18.8043 -16.2896 -16.0924 19.3088 -17.1296 -16.0497 19.9429 -17.8959 
-16.1661 20.6474 -18.5924 -16.3874 21.3742 -19.2417 -16.6693 22.0883 -19.882 
-16.979 22.7653 -20.5494 -17.32 23.4014 -21.241 -17.7012 23.9888 -21.9543 
-18.1242 24.5492 -22.6661 -18.5593 25.1367 -23.3477 -18.9609 25.8119 -23.9648 
-19.3211 26.5219 -24.5672 -19.5527 27.2523 -25.2072 -19.7074 28.057 -25.7787 
-8.70236 27.7572 -26.0224 -8.92147 26.9469 -25.4874 -9.25714 26.2378 -24.8689 
-9.65067 25.5878 -24.2191 -10.0898 24.9525 -23.5841 -10.5406 24.3256 -22.9488 
-10.9851 23.7181 -22.2906 -11.3917 23.0965 -21.6213 -11.7759 22.4421 -20.9702 
-12.1406 21.7614 -20.3349 -12.5144 21.069 -19.7179 -12.8945 20.3701 -19.1122 
-13.1348 19.6723 -18.4496 -13.0345 19.0504 -17.6881 -12.8029 18.4827 -16.899 
-12.5091 17.9932 -16.0802 -12.1679 17.636 -15.2132 -11.8019 17.4045 -14.312 
-11.4347 17.233 -13.3982 -11.1203 17.1311 -12.4562 -10.9986 17.1763 -11.4726 
-11.0956 17.3958 -10.5078 -11.2649 17.736 -9.58398 -11.4049 18.147 -8.68371 
-11.5264 18.5994 -7.80068 -11.8283 19.0909 -7.01059 -12.5837 19.5409 -6.56086 
-13.5178 19.8085 -6.3796 -14.2618 19.8473 -6.34628 -14.9986 19.7398 -6.37554 
-15.8997 19.3982 -6.58216 -16.6519 18.9321 -7.04366 -17.0407 18.474 -7.80122 
-17.1407 18.0661 -8.70819 -17.2406 17.6899 -9.62901 -17.3665 17.37 -10.5669 
-17.424 17.1765 -11.5406 -17.2906 17.1778 -12.5243 -16.9907 17.3381 -13.4635 
-16.6449 17.5621 -14.3743 -16.3137 17.8395 -15.2757 -16.0061 18.1866 -16.1611 
-15.7561 18.6657 -16.9992 -15.6063 19.2653 -17.7812 -15.6051 19.9513 -18.5059 
-15.8078 20.6709 -19.1656 -16.1135 21.3877 -19.7921 -16.4473 22.077 -20.435 
-16.7859 22.7297 -21.1124 -17.1488 23.3493 -21.808 -17.5463 23.9373 -22.5123 
-17.9813 24.5059 -23.2104 -18.4198 25.0878 -23.8951 -18.8352 25.7353 -24.5321 
-19.2219 26.4387 -25.128 -19.4836 27.1621 -25.7638 -8.71548 27.8231 -26.0365 
-8.86536 27.203 -25.6453 -9.16765 26.4691 -25.042 -9.53944 25.8121 -24.3868 
-9.96818 25.1746 -23.7472 -10.4178 24.5438 -23.1147 -10.8692 23.9301 -22.4671 
-11.2898 23.3198 -21.796 -11.6811 22.672 -21.1428 -12.053 21.9973 -20.5053 
-12.4236 21.3074 -19.8836 -12.806 20.611 -19.2764 -13.1094 19.9128 -18.6389 
-13.1 19.2606 -17.8943 -12.8824 18.6841 -17.1073 -12.6101 18.1581 -16.3029 
-12.2846 17.7636 -15.4458 -11.9309 17.5059 -14.5485 -11.5758 17.3334 -13.6299 
-11.2572 17.2196 -12.6898 -11.0948 17.2295 -11.7091 -11.1561 17.4142 -10.7351 
-11.3071 17.723 -9.79799 -11.4436 18.135 -8.89754 -11.5579 18.5943 -8.01695 
-11.8156 19.0916 -7.21467 -12.5816 19.5275 -6.77809 -13.521 19.7899 -6.6095 
-14.2653 19.8281 -6.58191 -15.0085 19.7454 -6.59791 -15.9489 19.4581 -6.73549 
-16.7603 19.0408 -7.12309 -17.1925 18.5971 -7.86307 -17.3354 18.2003 -8.76927 
-17.4762 17.8271 -9.68609 -17.6384 17.4898 -10.6126 -17.7183 17.2586 -11.5746 
-17.5573 17.242 -12.5501 -17.1966 17.4136 -13.4654 -16.8105 17.645 -14.3582 
-16.4556 17.9233 -15.2501 -16.1404 18.2865 -16.126 -15.8788 18.7451 -16.9732 
-15.7422 19.341 -17.7597 -15.7593 20.0275 -18.4841 -15.9631 20.7506 -19.1405 
-16.2514 21.4704 -19.7715 -16.5763 22.158 -20.4205 -16.9125 22.8079 -21.1019 
-17.2784 23.423 -21.7999 -17.6788 24.0062 -22.5064 -18.1146 24.5737 -23.2049 
-18.5542 25.1633 -23.8822 -18.9738 25.824 -24.5033 -19.35 26.5301 -25.1019 
-19.5976 27.265 -25.7304 -8.63775 27.59 -26.0679 -8.83172 27.0037 -25.6442 
-9.16129 26.2901 -25.0271 -9.545 25.6325 -24.3792 -9.97911 24.9925 -23.7456 
-10.4301 24.3645 -23.1113 -10.8802 23.7549 -22.459 -11.2941 23.1403 -21.7878 
-11.6796 22.495 -21.1286 -12.042 21.8185 -20.4876 -12.4048 21.1273 -19.8627 
-12.7757 20.4291 -19.2504 -13.0683 19.7258 -18.6105 -13.0506 19.0752 -17.8722 
-12.8198 18.4966 -17.0905 -12.5312 17.9788 -16.2872 -12.186 17.5914 -15.4335 
-11.8056 17.3171 -14.5516 -11.4028 17.1143 -13.6595 -11.0229 16.9678 -12.7472 
-10.7868 16.9391 -11.7862 -10.8573 17.1257 -10.8116 -11.037 17.4296 -9.87734 
-11.2141 17.8083 -8.96936 -11.3421 18.2215 -8.06784 -11.5107 18.6685 -7.19286 
-11.9757 19.1803 -6.48685 -12.7141 19.6434 -6.03269 -13.6604 19.887 -5.84867 
-14.4035 19.9003 -5.81453 -15.1318 19.7596 -5.87679 -15.9795 19.3532 -6.18378 
-16.6068 18.8595 -6.76979 -16.8355 18.4012 -7.60653 -16.9035 17.9883 -8.51395 
-16.9802 17.6132 -9.43747 -17.0779 17.3146 -10.386 -17.1117 17.1638 -11.3703 
-17.0307 17.1518 -12.3615 -16.7995 17.2913 -13.3225 -16.5023 17.5036 -14.2531 
-16.2011 17.7645 -15.1702 -15.9082 18.0859 -16.07 -15.6539 18.5488 -16.916 
-15.4901 19.1455 -17.6981 -15.4641 19.8213 -18.4264 -15.6696 20.541 -19.086 
-15.9745 21.2604 -19.7097 -16.3111 21.9585 -20.3414 -16.6515 22.6178 -21.0116 
-17.008 23.2474 -21.7016 -17.4001 23.8429 -22.4024 -17.8349 24.4145 -23.0982 
-18.2778 24.9811 -23.793 -18.694 25.597 -24.4603 -19.0895 26.2877 -25.0652 
-19.3846 27.006 -25.6917 
LINES 16 911
52 0 1 2 3 4 5 6 7 8 9 10 11 12 13 14 15 16 17 18 19 20 21 22 23 24 25 26 27 28 29 30 31 32 33 34 35 36 37 38 39 40 41 42 43 44 45 46 47 48 49 50 51 
58 52 53 54 55 56 57 58 59 60 61 62 63 64 65 66 67 68 69 70 71 72 73 74 75 76 77 78 79 80 81 82 83 84 85 86 87 88 89 90 91 92 93 94 95 96 97 98 99 100 101 102 103 104 105 106 107 108 109 
56 110 111 112 113 114 115 116 117 118 119 120 121 122 123 124 125 126 127 128 129 130 131 132 133 134 135 136 137 138 139 140 141 142 143 144 145 146 147 148 149 150 151 152 153 154 155 156 157 158 159 160 161 162 163 164 165 
57 166 167 168 169 170 171 172 173 174 175 176 177 178 179 180 181 182 183 184 185 186 187 188 189 190 191 192 193 194 195 196 197 198 199 200 201 202 203 204 205 206 207 208 209 210 211 212 213 214 215 216 217 218 219 220 221 222 
56 223 224 225 226 227 228 229 230 231 232 233 234 235 236 237 238 239 240 241 242 243 244 245 246 247 248 249 250 251 252 253 254 255 256 257 258 259 260 261 262 263 264 265 266 267 268 269 270 271 272 273 274 275 276 277 278 
55 279 280 281 282 283 284 285 286 287 288 289 290 291 292 293 294 295 296 297 298 299 300 301 302 303 304 305 306 307 308 309 310 311 312 313 314 315 316 317 318 319 320 321 322 323 324 325 326 327 328 329 330 331 332 333 
55 334 335 336 337 338 339 340 341 342 343 344 345 346 347 348 349 350 351 352 353 354 355 356 357 358 359 360 361 362 363 364 365 366 367 368 369 370 371 372 373 374 375 376 377 378 379 380 381 382 383 384 385 386 387 388 
55 389 390 391 392 393 394 395 396 397 398 399 400 401 402 403 404 405 406 407 408 409 410 411 412 413 414 415 416 417 418 419 420 421 422 423 424 425 426 427 428 429 430 431 432 433 434 435 436 437 438 439 440 441 442 443 
57 444 445 446 447 448 449 450 451 452 453 454 455 456 457 458 459 460 461 462 463 464 465 466 467 468 469 470 471 472 473 474 475 476 477 478 479 480 481 482 483 484 485 486 487 488 489 490 491 492 493 494 495 496 497 498 499 500 
57 501 502 503 504 505 506 507 508 509 510 511 512 513 514 515 516 517 518 519 520 521 522 523 524 525 526 527 528 529 530 531 532 533 534 535 536 537 538 539 540 541 542 543 544 545 546 547 548 549 550 551 552 553 554 555 556 557 
56 558 559 560 561 562 563 564 565 566 567 568 569 570 571 572 573 574 575 576 577 578 579 580 581 582 583 584 585 586 587 588 589 590 591 592 593 594 595 596 597 598 599 600 601 602 603 604 605 606 607 608 609 610 611 612 613 
56 614 615 616 617 618 619 620 621 622 623 624 625 626 627 628 629 630 631 632 633 634 635 636 637 638 639 640 641 642 643 644 645 646 647 648 649 650 651 652 653 654 655 656 657 658 659 660 661 662 663 664 665 666 667 668 669 
56 670 671 672 673 674 675 676 677 678 679 680 681 682 683 684 685 686 687 688 689 690 691 692 693 694 695 696 697 698 699 700 701 702 703 704 705 706 707 708 709 710 711 712 713 714 715 716 717 718 719 720 721 722 723 724 725 
56 726 727 728 729 730 731 732 733 734 735 736 737 738 739 740 741 742 743 744 745 746 747 748 749 750 751 752 753 754 755 756 757 758 759 760 761 762 763 764 765 766 767 768 769 770 771 772 773 774 775 776 777 778 779 780 781 
56 782 783 784 785 786 787 788 789 790 791 792 793 794 795 796 797 798 799 800 801 802 803 804 805 806 807 808 809 810 811 812 813 814 815 816 817 818 819 820 821 822 823 824 825 826 827 828 829 830 831 832 833 834 835 836 837 
57 838 839 840 841 842 843 844 845 846 847 848 849 850 851 852 853 854 855 856 857 858 859 860 861 862 863 864 865 866 867 868 869 870 871 872 873 874 875 876 877 878 879 880 881 882 883 884 885 886 887 888 889 890 891 892 893 894 

POINT_DATA 895
SCALARS FiberLocationIndex int
LOOKUP_TABLE default
3 4 5 6 7 8 9 10 11 
12 13 14 15 16 17 18 19 20 
21 22 23 24 25 26 27 28 29 
30 31 32 33 34 35 36 37 38 
39 40 41 42 43 44 45 46 47 
48 49 50 51 52 53 54 0 1 
2 3 4 5 6 7 8 9 10 
11 12 13 14 15 16 17 18 19 
20 21 22 23 24 25 26 27 28 
29 30 31 32 33 34 35 36 37 
38 39 40 41 42 43 44 45 46 
47 48 49 50 51 52 53 54 55 
56 57 1 2 3 4 5 6 7 
8 9 10 11 12 13 14 15 16 
17 18 19 20 21 22 23 24 25 
26 27 28 29 30 31 32 33 34 
35 36 37 38 39 40 41 42 43 
44 45 46 47 48 49 50 51 52 
53 54 55 56 0 1 2 3 4 
5 6 7 8 9 10 11 12 13 
14 15 16 17 18 19 20 21 22 
23 24 25 26 27 28 30 31 32 
33 34 35 36 37 38 39 40 41 
42 43 44 45 46 47 48 49 50 
51 52 53 54 55 56 57 1 2 
3 4 5 6 7 8 9 10 11 
12 13 14 15 16 17 18 19 20 
21 22 23 24 25 26 27 28 29 
30 31 32 33 34 35 36 37 38 
39 40 41 42 43 44 45 46 47 
48 49 50 51 52 53 54 55 56 
1 2 3 4 5 6 7 8 9 
10 11 12 13 14 15 16 17 18 
19 20 21 22 23 24 25 26 27 
28 29 30 31 32 33 34 35 36 
37 38 39 40 41 42 43 44 45 
46 47 48 49 50 51 52 53 54 
55 1 2 3 4 5 6 7 8 
9 10 11 12 13 14 15 16 17 
18 19 20 21 22 23 24 25 26 
27 28 29 30 31 32 33 34 35 
36 37 38 39 40 41 42 43 44 
45 46 47 48 49 50 51 52 53 
54 55 2 3 4 5 6 7 8 
9 10 11 12 13 14 15 16 17 
18 19 20 21 22 23 24 25 26 
27 28 29 30 31 32 33 34 35 
36 37 38 39 40 41 42 43 44 
45 46 47 48 49 50 51 52 53 
54 55 56 1 2 3 4 5 6 
7 8 9 10 11 12 13 14 15 
16 17 18 19 20 21 22 23 24 
25 26 27 28 29 30 31 32 33 
34 35 36 37 38 39 40 41 42 
43 44 45 46 47 48 49 50 51 
52 53 54 55 56 57 0 1 2 
3 4 5 6 7 8 9 10 11 
12 13 14 15 16 17 18 19 20 
21 22 23 24 25 26 27 28 30 
31 32 33 34 35 36 37 38 39 
40 41 42 43 44 45 46 47 48 
49 50 51 52 53 54 55 56 57 
1 2 3 4 5 6 7 8 9 
10 11 12 13 14 15 16 17 18 
19 20 21 22 23 24 25 26 27 
28 29 30 31 32 33 34 35 36 
37 38 39 40 41 42 43 44 45 
46 47 48 49 50 51 52 53 54 
55 56 0 1 2 3 4 5 6 
7 8 9 10 11 12 13 14 15 
16 17 18 19 20 21 22 23 24 
25 26 27 28 30 31 32 33 34 
35 36 37 38 39 40 41 42 43 
44 45 46 47 48 49 50 51 52 
53 54 55 56 1 2 3 4 5 
6 7 8 9 10 11 12 13 14 
15 16 17 18 19 20 21 22 23 
24 25 26 27 28 29 30 31 32 
33 34 35 36 37 38 39 40 41 
42 43 44 45 46 47 48 49 50 
51 52 53 54 55 56 1 2 3 
4 5 6 7 8 9 10 11 12 
13 14 15 16 17 18 19 20 21 
22 23 24 25 26 27 28 29 30 
31 32 33 34 35 36 37 38 39 
40 41 42 43 44 45 46 47 48 
49 50 51 52 53 54 55 56 1 
2 3 4 5 6 7 8 9 10 
11 12 13 14 15 16 17 18 19 
20 21 22 23 24 25 26 27 28 
29 30 31 32 33 34 35 36 37 
38 39 40 41 42 43 44 45 46 
47 48 49 50 51 52 53 54 55 
56 0 1 2 3 4 5 6 7 
8 9 10 11 12 13 14 15 16 
17 18 19 20 21 22 23 24 25 
26 27 28 29 30 31 32 33 34 
35 36 37 38 39 40 41 42 43 
44 45 46 47 48 49 50 51 52 
53 54 55 56 
FIELD FieldData 1
SamplingDistance2Origin 1 895 float
-25.9555 -24.9558 -23.9581 -22.9586 -21.9588 -20.9589 -19.959 -18.959 -17.9592 
-16.9592 -15.9592 -14.9592 -13.9604 -12.9616 -11.9619 -10.9623 -9.96282 -8.96333 
-7.96366 -6.96383 -5.96413 -4.9645 -3.96488 -2.96504 -1.96533 -0.965295 -0.0172183 
0.929972 1.91666 2.91669 3.91653 4.91613 5.91562 6.91512 7.91481 8.91469 
9.91468 10.9144 11.9136 12.913 13.9125 14.9119 15.9118 16.9118 17.9118 
18.9117 19.9117 20.9117 21.9116 22.9115 23.9114 24.9113 -28.944 -27.6945 
-26.6947 -25.6947 -24.6947 -23.6947 -22.6948 -21.6948 -20.6948 -19.6948 -18.6948 
-17.6949 -16.6988 -15.6988 -14.6992 -13.6994 -12.6995 -11.6997 -10.6997 -9.70041 
-8.70667 -7.7069 -6.70692 -5.70693 -4.70694 -3.70841 -2.71125 -1.71276 -0.963879 
0.14978 0.898264 1.89825 2.89642 3.89427 4.89294 5.89294 6.89288 7.8926 
8.89064 9.88992 10.8899 11.8898 12.8897 13.8896 14.8896 15.8891 16.8891 
17.889 18.889 19.8889 20.8888 21.8888 22.8888 23.8888 24.8887 25.8885 
26.8883 27.8878 -27.4527 -26.7026 -25.7026 -24.7029 -23.703 -22.703 -21.703 
-20.703 -19.7031 -18.703 -17.7031 -16.7031 -15.7031 -14.708 -13.7081 -12.7081 
-11.7081 -10.7083 -9.70852 -8.70849 -7.70869 -6.70918 -5.70961 -4.71019 -3.71033 
-2.71033 -1.7123 -0.713917 0.0683828 0.811333 2.05637 3.30024 4.30023 5.30022 
6.29999 7.29903 8.29806 9.29742 10.2973 11.2973 12.2972 13.2971 14.297 
15.2966 16.2906 17.2883 18.2883 19.2883 20.2883 21.2882 22.2882 23.2881 
24.2882 25.2878 26.2876 27.2871 -28.7471 -27.7471 -26.7471 -25.7472 -24.7471 
-23.7472 -22.7472 -21.7472 -20.7472 -19.7472 -18.7472 -17.7472 -16.7472 -15.7474 
-14.7476 -13.7479 -12.7481 -11.7482 -10.7482 -9.75036 -8.7534 -7.75495 -6.75501 
-5.75505 -4.75509 -3.75773 -2.75958 -1.76177 -0.761754 1.19017 2.19014 3.18804 
4.18693 5.18628 6.18627 7.18624 8.18619 9.18168 10.1773 11.1773 12.1772 
13.1771 14.1769 15.1765 16.1761 17.1759 18.1758 19.1758 20.1758 21.1757 
22.1757 23.1757 24.1756 25.1756 26.1755 27.1751 28.1748 -28.0516 -27.0517 
-26.0534 -25.0537 -24.0538 -23.0539 -22.0539 -21.0539 -20.054 -19.054 -18.054 
-17.0541 -16.0555 -15.0566 -14.0567 -13.0572 -12.0575 -11.0579 -10.058 -9.05892 
-8.06125 -7.06281 -6.06289 -5.06291 -4.06297 -3.06404 -2.06659 -1.07004 -0.096635 
0.876641 1.875 2.873 3.87292 4.87287 5.87278 6.87262 7.87265 8.86928 
9.86917 10.8692 11.8689 12.8685 13.8678 14.8666 15.8664 16.8662 17.8662 
18.8662 19.8661 20.866 21.866 22.8659 23.8656 24.8649 25.8644 26.8642 
-27.6336 -26.8836 -25.8841 -24.8841 -23.8844 -22.8846 -21.8845 -20.8846 -19.8847 
-18.8848 -17.8848 -16.8848 -15.8849 -14.8876 -13.8878 -12.8881 -11.8885 -10.8887 
-9.88906 -8.88917 -7.89139 -6.89136 -5.89155 -4.89171 -3.89177 -2.89181 -1.89184 
-0.89369 0.0649843 1.02549 2.01813 3.01797 4.01758 5.01738 6.01697 7.01657 
8.01562 9.01532 10.0152 11.0148 12.0148 13.0145 14.014 15.0133 16.0133 
17.0132 18.0132 19.0131 20.0131 21.0131 22.0129 23.0128 24.0123 25.0118 
26.0117 -27.7362 -26.9866 -25.9875 -24.9877 -23.9878 -22.9879 -21.9879 -20.9879 
-19.988 -18.9881 -17.9881 -16.9881 -15.9886 -14.989 -13.9891 -12.9894 -11.9897 
-10.9897 -9.9897 -8.99036 -7.99616 -6.9962 -5.99615 -4.99617 -3.99634 -2.99687 
-1.99733 -0.997328 -0.041847 0.915216 1.91524 2.91523 3.91491 4.91474 5.9145 
6.91395 7.91297 8.91229 9.91224 10.912 11.9116 12.9116 13.9105 14.91 
15.9099 16.9098 17.9097 18.9097 19.9096 20.9096 21.9096 22.9093 23.9093 
24.9086 25.9083 -26.8027 -25.8026 -24.8026 -23.8027 -22.8028 -21.8028 -20.8028 
-19.8029 -18.8029 -17.8029 -16.8029 -15.8029 -14.8069 -13.811 -12.8111 -11.8115 
-10.8118 -9.81202 -8.8121 -7.81218 -6.81267 -5.81306 -4.81364 -3.81387 -2.81457 
-1.81524 -0.81739 -0.0695099 0.906129 1.90327 2.90324 3.90138 4.90123 5.90118 
6.90111 7.90055 8.89997 9.89998 10.8999 11.8998 12.8998 13.8993 14.8989 
15.8976 16.8963 17.8963 18.8962 19.8963 20.8962 21.8962 22.8962 23.8961 
24.896 25.8957 26.8953 -27.9051 -26.9052 -25.9052 -24.9053 -23.9053 -22.9053 
-21.9053 -20.9053 -19.9053 -18.9053 -17.9053 -16.9053 -15.9138 -14.9154 -13.9155 
-12.9155 -11.9159 -10.916 -9.91601 -8.91628 -7.91628 -6.9168 -5.91707 -4.91714 
-3.91739 -2.9176 -1.92107 -0.922089 0.145896 0.890656 1.88867 2.88868 3.8887 
4.88843 5.88842 6.88842 7.88795 8.88776 9.88777 10.8878 11.8878 12.8876 
13.8875 14.8875 15.8875 16.8867 17.8867 18.8866 19.8866 20.8865 21.8865 
22.8864 23.8864 24.8864 25.8862 26.8859 27.8855 -28.8604 -27.8604 -26.8604 
-25.8605 -24.8605 -23.8605 -22.8605 -21.8606 -20.8606 -19.8606 -18.8606 -17.8606 
-16.8606 -15.8607 -14.8609 -13.8613 -12.8615 -11.8616 -10.8616 -9.86344 -8.86652 
-7.8682 -6.86832 -5.86836 -4.86837 -3.86948 -2.87176 -1.87176 -0.872472 0.826858 
1.82519 2.82368 3.82301 4.82152 5.8215 6.8215 7.82133 8.81988 9.81818 
10.8177 11.8177 12.8176 13.8175 14.8175 15.8172 16.817 17.8167 18.8167 
19.8167 20.8166 21.8166 22.8165 23.8166 24.8165 25.8163 26.8163 27.816 
-28.0003 -27.0003 -26.0003 -25.0004 -24.0005 -23.0004 -22.0004 -21.0005 -20.0005 
-19.0005 -18.0005 -17.0006 -16.0029 -15.0056 -14.0059 -13.0059 -12.0062 -11.0063 
-10.0063 -9.00672 -8.00771 -7.00866 -6.00902 -5.00916 -4.00929 -3.0108 -2.01715 
-1.01992 0.2079 0.956264 1.95307 2.95308 3.95131 4.95114 5.9511 6.95072 
7.9499 8.94939 9.94928 10.9493 11.9492 12.9491 13.9486 14.9481 15.9469 
16.9456 17.9456 18.9455 19.9456 20.9456 21.9455 22.9454 23.9455 24.9451 
25.945 26.9446 -28.7222 -27.9723 -26.9723 -25.9722 -24.9723 -23.9723 -22.9723 
-21.9724 -20.9724 -19.9724 -18.9724 -17.9724 -16.9751 -15.9802 -14.9804 -13.9807 
-12.9809 -11.9812 -10.9812 -9.98157 -8.98316 -7.98467 -6.98522 -5.98521 -4.98526 
-3.98544 -2.98547 -1.98871 -0.990669 1.21305 2.20946 3.20623 4.2054 5.20456 
6.2045 7.20436 8.20395 9.20261 10.2021 11.202 12.2019 13.2018 14.2009 
15.2006 16.2 17.1993 18.1993 19.1993 20.1993 21.1992 22.1991 23.1991 
24.1991 25.199 26.1989 27.1984 -27.6827 -26.9327 -25.9331 -24.9331 -23.9334 
-22.9336 -21.9336 -20.9336 -19.9338 -18.9338 -17.9339 -16.9339 -15.934 -14.9367 
-13.9369 -12.9369 -11.9372 -10.9375 -9.93785 -8.93817 -7.93988 -6.94063 -5.94083 
-4.94084 -3.94105 -2.94114 -1.94279 -0.946289 -0.00814576 0.93144 1.93099 2.92885 
3.92817 4.92811 5.92805 6.92796 7.92562 8.90995 9.90964 10.9096 11.9093 
12.9089 13.9085 14.9076 15.9072 16.907 17.9069 18.9068 19.9068 20.9067 
21.9066 22.9065 23.9064 24.9061 25.9055 26.9051 -28.0029 -27.004 -26.004 
-25.0041 -24.0041 -23.0041 -22.0041 -21.0041 -20.0042 -19.0042 -18.0042 -17.0042 
-16.007 -15.0097 -14.0098 -13.0102 -12.0105 -11.0105 -10.0106 -9.01113 -8.01253 
-7.01373 -6.01395 -5.01402 -4.01409 -3.01651 -2.01764 -1.01958 0.0961938 0.84474 
1.84275 2.84184 3.84184 4.84182 5.84178 6.84157 7.84054 8.83932 9.83892 
10.8389 11.8388 12.8387 13.8381 14.8379 15.8377 16.8376 17.8375 18.8375 
19.8374 20.8375 21.8374 22.8374 23.8374 24.8371 25.837 26.8367 -27.5946 
-26.8456 -25.8465 -24.8465 -23.8466 -22.8465 -21.8465 -20.8466 -19.8466 -18.8466 
-17.8466 -16.8467 -15.8467 -14.8504 -13.8503 -12.8508 -11.8511 -10.8513 -9.85133 
-8.85159 -7.8527 -6.85375 -5.85426 -4.85426 -3.85432 -2.85529 -1.85622 -0.857903 
0.0687126 0.817181 1.81536 2.81436 3.81437 4.81437 5.81433 6.8142 7.81277 
8.81105 9.81054 10.8105 11.8104 12.8101 13.8101 14.8098 15.8096 16.8093 
17.8093 18.8092 19.8092 20.8091 21.8091 22.8091 23.8091 24.8089 25.8089 
26.8087 -28.7698 -28.0197 -27.0197 -26.0198 -25.0198 -24.0198 -23.0199 -22.0199 
-21.0199 -20.0199 -19.02 -18.02 -17.0228 -16.0279 -15.0279 -14.0282 -13.0284 
-12.0285 -11.0287 -10.0286 -9.03031 -8.03029 -7.03074 -6.03082 -5.03082 -4.03092 
-3.03095 -2.03586 -1.03661 0.555809 1.30389 2.30387 3.3011 4.29805 5.29783 
6.29784 7.29756 8.29677 9.29582 10.2954 11.2953 12.2952 13.2952 14.2946 
15.2941 16.2932 17.2922 18.2922 19.2922 20.2922 21.2922 22.2921 23.2921 
24.2921 25.2921 26.2919 27.2915 
