# vtk DataFile Version 4.2
vtk output
ASCII
DATASET POLYDATA
POINTS 58 float
-8.65124 27.6135 -25.9383 -8.81217 27.6503 -25.7812 -9.00264 27.0538 -25.3644 
-9.3096 26.4157 -24.7991 -9.66844 25.7391 -24.1674 -10.078 25.0929 -23.5292 
-10.5126 24.4678 -22.882 -10.9432 23.8492 -22.2256 -11.3523 23.2188 -21.5671 
-11.7396 22.5654 -20.9179 -12.1118 21.8871 -20.2852 -12.4735 21.1939 -19.6633 
-12.7778 20.5026 -19.0275 -12.9585 19.8282 -18.355 -12.9315 19.2011 -17.6181 
-12.747 18.6407 -16.8358 -12.4684 18.1671 -16.0172 -12.1293 17.8039 -15.1607 
-11.7595 17.5513 -14.2757 -11.4057 17.3874 -13.3629 -11.1683 17.3405 -12.4106 
-11.1262 17.4384 -11.4419 -11.2408 17.6656 -10.4918 -11.4007 17.983 -9.56696 
-11.5457 18.3779 -8.66514 -11.7169 18.8376 -7.80726 -12.0428 19.3492 -7.06009 
-12.6655 19.8176 -6.52986 -13.5304 20.1115 -6.26347 -14.2582 20.2279 -6.31883 
-15.0017 20.0347 -6.25244 -15.917 19.6793 -6.56014 -16.548 19.1805 -7.11202 
-16.8679 18.6977 -7.89104 -17.0034 18.2743 -8.78017 -17.1189 17.9059 -9.69843 
-17.2417 17.6036 -10.6367 -17.3148 17.4039 -11.5996 -17.2242 17.3703 -12.5754 
-16.9643 17.4973 -13.5246 -16.6335 17.72 -14.4379 -16.3127 18.0105 -15.334 
-16.0308 18.3849 -16.2068 -15.8152 18.8724 -17.0354 -15.7065 19.4688 -17.807 
-15.732 20.1426 -18.5235 -15.9233 20.8542 -19.1876 -16.2122 21.562 -19.8283 
-16.5399 22.2476 -20.4765 -16.8864 22.8974 -21.1514 -17.2568 23.5113 -21.8466 
-17.6565 24.1004 -22.5476 -18.0757 24.6916 -23.2351 -18.4956 25.3005 -23.9031 
-18.8767 25.9503 -24.5522 -19.193 26.5484 -25.0887 -19.4387 27.041 -25.585 
-19.6124 27.3229 -25.8275 
LINES 1 59
58 0 1 2 3 4 5 6 7 8 9 10 11 12 13 14 15 16 17 18 19 20 21 22 23 24 25 26 27 28 29 30 31 32 33 34 35 36 37 38 39 40 41 42 43 44 45 46 47 48 49 50 51 52 53 54 55 56 57 

POINT_DATA 58
SCALARS SamplingDistance2Origin float 
LOOKUP_TABLE default
-29 -28 -27 -26 -25 -24 -23 -22 -21 
-20 -19 -18 -17 -16 -15 -14 -13 -12 
-11 -10 -9 -8 -7 -6 -5 -4 -3 
-2 -1 0 1 2 3 4 5 6 
7 8 9 10 11 12 13 14 15 
16 17 18 19 20 21 22 23 24 
25 26 27 28 
