# vtk DataFile Version 4.2
vtk output
ASCII
DATASET POLYDATA
POINTS 98 float
-40.0244 24.99 -27.9392 -39.4494 25.5338 -28.079 -39.0395 25.4619 -28.0495 
-38.1034 25.3812 -28.2579 -36.8114 25.0535 -28.486 -36.2671 24.3538 -28.1656 
-36.3496 23.6656 -27.4814 -35.9564 23.054 -27.0857 -35.738 22.3743 -26.6121 
-35.1565 21.8547 -26.4191 -35.0186 21.1988 -25.9341 -35.0573 20.5858 -25.3878 
-35.4943 19.8451 -24.6006 -35.3219 19.2262 -24.0759 -35.603 18.5418 -23.3193 
-35.7061 17.9146 -22.5702 -35.7513 17.3418 -21.7765 -35.7063 16.8523 -20.9732 
-35.6566 16.4167 -20.1195 -35.5139 16.0263 -19.2744 -35.3029 15.6639 -18.4381 
-35.0113 15.3378 -17.6174 -34.6371 15.0631 -16.8205 -34.1868 14.8585 -16.0535 
-33.6778 14.74 -15.3165 -33.1283 14.7156 -14.6027 -32.5419 14.8057 -13.911 
-31.8871 15.0227 -13.2827 -31.1508 15.3084 -12.7436 -30.3432 15.5972 -12.2676 
-29.5045 15.9487 -11.8536 -28.653 16.3499 -11.5303 -27.7998 16.8074 -11.2906 
-26.9371 17.2819 -11.1298 -26.0532 17.7342 -11.0386 -25.1436 18.1396 -10.9935 
-24.2104 18.484 -10.9458 -23.2593 18.7419 -10.8321 -22.3117 18.8871 -10.5901 
-21.4045 18.9522 -10.197 -20.5937 19.0235 -9.64345 -19.9144 19.1453 -8.95889 
-19.2963 19.2813 -8.22051 -18.6279 19.4143 -7.55787 -17.8205 19.5838 -7.04691 
-16.9489 19.8387 -6.67318 -16.0694 20.1826 -6.38294 -15.1474 20.4804 -6.17792 
-14.1131 20.6242 -6.10407 -13.4013 20.6616 -6.03461 -12.8025 20.4107 -6.27213 
-11.8435 20.0901 -6.53025 -10.9133 19.8552 -6.77618 -9.95586 19.7791 -7.03149 
-9.09229 19.779 -7.45636 -8.40618 19.7535 -8.1133 -7.77398 19.7139 -8.84901 
-7.07509 19.6862 -9.53172 -6.26559 19.6779 -10.0958 -5.36722 19.6462 -10.4998 
-4.41413 19.5446 -10.7255 -3.44517 19.3505 -10.8039 -2.4932 19.0601 -10.8206 
-1.5752 18.6777 -10.8627 -0.698087 18.2239 -10.9868 0.143147 17.7409 -11.2144 
0.965276 17.272 -11.5292 1.78081 16.8451 -11.9096 2.58305 16.4602 -12.3428 
3.35314 16.1025 -12.8282 4.07649 15.7708 -13.3774 4.76016 15.4726 -13.9779 
5.37456 15.2654 -14.6898 5.92856 15.1948 -15.4762 6.50795 15.1986 -16.2238 
7.06175 15.3205 -16.9817 7.54588 15.5452 -17.7685 7.91532 15.8306 -18.5961 
8.14497 16.1477 -19.4636 8.25032 16.4884 -20.3527 8.26444 16.871 -21.2448 
8.14975 17.3576 -22.1454 8.11415 17.8273 -22.9243 7.97216 18.4071 -23.7048 
7.786 19.0289 -24.4428 7.47366 19.7518 -25.2184 7.23445 20.4346 -25.8872 
7.11467 21.1309 -26.4642 6.99578 21.8517 -27.0214 6.92972 22.513 -27.5432 
7.18723 23.2529 -27.8835 7.16275 23.9767 -28.4376 7.27884 24.7129 -28.9232 
8.07438 25.5011 -29.0539 9.36023 25.9061 -28.9013 9.99588 26.3477 -29.1453 
10.5231 26.269 -29.2145 12.0525 24.9799 -29.0531 
LINES 1 99
98 0 1 2 3 4 5 6 7 8 9 10 11 12 13 14 15 16 17 18 19 20 21 22 23 24 25 26 27 28 29 30 31 32 33 34 35 36 37 38 39 40 41 42 43 44 45 46 47 48 49 50 51 52 53 54 55 56 57 58 59 60 61 62 63 64 65 66 67 68 69 70 71 72 73 74 75 76 77 78 79 80 81 82 83 84 85 86 87 88 89 90 91 92 93 94 95 96 97 

POINT_DATA 98
SCALARS SamplingDistance2Origin float 
LOOKUP_TABLE default
-49 -48 -47 -46 -45 -44 -43 -42 -41 
-40 -39 -38 -37 -36 -35 -34 -33 -32 
-31 -30 -29 -28 -27 -26 -25 -24 -23 
-22 -21 -20 -19 -18 -17 -16 -15 -14 
-13 -12 -11 -10 -9 -8 -7 -6 -5 
-4 -3 -2 -1 0 1 2 3 4 
5 6 7 8 9 10 11 12 13 
14 15 16 17 18 19 20 21 22 
23 24 25 26 27 28 29 30 31 
32 33 34 35 36 37 38 39 40 
41 42 43 44 45 46 47 48 
