# vtk DataFile Version 4.2
vtk output
ASCII
DATASET POLYDATA
POINTS 72 float
20.5668 -27.5533 35.6348 20.2976 -26.5277 35.3739 19.8421 -26.3315 34.4479 
19.6607 -26.2863 32.8692 19.5247 -26.0687 31.5929 19.339 -25.6506 30.9541 
19.0952 -25.2553 30.1012 18.7828 -24.8779 29.3338 18.4821 -24.4364 28.7086 
17.98 -24.0452 27.802 17.5425 -23.611 26.9717 17.2462 -23.1122 26.3177 
16.7857 -22.6886 25.4125 16.3416 -22.2754 24.5728 16.0653 -21.7813 23.9174 
15.5809 -21.3601 23.0107 15.1474 -20.9013 22.1923 14.8659 -20.3648 21.5534 
14.3937 -19.8542 20.7085 13.9673 -19.3097 19.945 13.6798 -18.7137 19.3516 
13.202 -18.1255 18.5703 12.7562 -17.5171 17.8728 12.4055 -16.8916 17.3472 
11.8686 -16.2244 16.696 11.4267 -15.4622 16.3353 11.1228 -14.5848 16.216 
10.7743 -13.6159 16.2176 10.4051 -12.7014 16.3124 10.084 -11.7964 16.4357 
9.63337 -10.8793 16.5489 9.2125 -9.97947 16.7079 8.90715 -9.081 16.9141 
8.51957 -8.17075 17.1676 8.2139 -7.28815 17.51 7.99072 -6.19576 18.0282 
7.84384 -5.67373 18.3618 7.80756 -4.9816 18.7598 7.78834 -4.17985 19.3152 
7.81754 -3.39342 19.9184 7.976 -2.5816 20.4389 8.1179 -1.71425 20.9752 
8.25663 -0.857291 21.4303 8.48809 0.0770549 21.6626 8.67025 1.05654 21.7459 
8.76391 2.00275 21.6744 8.75108 2.99637 21.4627 8.63047 3.97302 21.2852 
8.59519 4.93646 21.1696 8.69235 5.94541 21.0605 8.8604 6.9221 21.0306 
9.1416 7.85259 21.0854 9.5378 8.79184 21.1476 9.97763 9.67804 21.2904 
10.4767 10.4774 21.5027 11.1264 11.2356 21.6902 11.8509 11.832 21.9856 
12.634 12.2366 22.3965 13.5045 12.597 22.7719 14.3382 12.9048 23.2176 
15.174 13.1658 23.7116 16.0106 13.4895 24.1153 16.8804 13.7813 24.5482 
17.6956 14.0282 25.0651 18.4661 14.3027 25.5392 19.1301 14.4824 26.072 
19.9556 14.5207 26.6025 21.0004 14.3344 26.9118 21.6645 14.3185 27.3115 
22.3189 14.6482 27.4013 23.0674 15.5725 26.5153 23.5825 15.9797 26.1516 

LINES 1 73
72 0 1 2 3 4 5 6 7 8 9 10 11 12 13 14 15 16 17 18 19 20 21 22 23 24 25 26 27 28 29 30 31 32 33 34 35 36 37 38 39 40 41 42 43 44 45 46 47 48 49 50 51 52 53 54 55 56 57 58 59 60 61 62 63 64 65 66 67 68 69 70 71 

POINT_DATA 72
SCALARS SamplingDistance2Origin float 
LOOKUP_TABLE default
-36 -35 -34 -33 -32 -31 -30 -29 -28 
-27 -26 -25 -24 -23 -22 -21 -20 -19 
-18 -17 -16 -15 -14 -13 -12 -11 -10 
-9 -8 -7 -6 -5 -4 -3 -2 -1 
0 1 2 3 4 5 6 7 8 
9 10 11 12 13 14 15 16 17 
18 19 20 21 22 23 24 25 26 
27 28 29 30 31 32 33 34 35 

