# vtk DataFile Version 4.2
vtk output
ASCII
DATASET POLYDATA
POINTS 37 float
21.1295 -8.919 -7.90877 20.8098 -8.96621 -7.45139 20.3173 -9.17829 -6.99603 
19.6869 -9.7134 -6.41896 19.2264 -10.1988 -5.73154 18.7268 -10.7059 -5.0305 
18.335 -11.4501 -4.13086 17.9463 -12.0729 -3.26542 17.5031 -12.5021 -2.46618 
16.9202 -12.785 -1.74374 16.3554 -13.038 -0.977706 15.817 -13.245 -0.174706 
15.3078 -13.3617 0.660032 14.8405 -13.437 1.52628 14.4284 -13.445 2.42175 
14.0751 -13.4105 3.34165 13.7806 -13.344 4.27947 13.5471 -13.2484 5.22975 
13.367 -13.1252 6.22965 13.26 -12.9937 7.19824 13.1897 -12.8384 8.16974 
13.179 -12.6484 9.13714 13.227 -12.4172 10.1022 13.3498 -12.1419 11.0465 
13.5794 -11.8401 11.9519 13.9715 -11.5545 12.7706 14.5544 -11.3519 13.4478 
15.2882 -11.2758 13.9556 16.1084 -11.3116 14.3207 16.9711 -11.4343 14.5789 
17.8554 -11.6232 14.7641 18.7378 -11.83 14.9055 19.5587 -11.9656 15.0845 
20.2836 -12.0477 15.3597 20.9156 -12.1283 15.8175 21.1542 -12.2332 16.8208 
20.821 -12.6519 18.7776 
LINES 1 38
37 0 1 2 3 4 5 6 7 8 9 10 11 12 13 14 15 16 17 18 19 20 21 22 23 24 25 26 27 28 29 30 31 32 33 34 35 36 

POINT_DATA 37
SCALARS SamplingDistance2Origin float 
LOOKUP_TABLE default
-19 -18 -17 -16 -15 -14 -13 -12 -11 
-10 -9 -8 -7 -6 -5 -4 -3 -2 
-1 0 1 2 3 4 5 6 7 
8 9 10 11 12 13 14 15 16 
17 
