# vtk DataFile Version 4.2
vtk output
ASCII
DATASET POLYDATA
POINTS 81 float
-50.2177 18.4657 10.2404 -49.945 18.224 11.2695 -49.5774 17.9528 11.9838 
-48.9547 17.5302 12.3385 -48.7065 17.242 14.6007 -48.7334 16.9993 15.0557 
-48.4364 16.6343 15.6543 -48.106 16.1078 16.1355 -47.3948 15.5361 16.3726 
-46.5456 14.9958 16.5136 -45.7479 14.4454 16.7969 -44.9295 13.9625 16.8118 
-44.1181 13.4642 16.9578 -43.3085 12.9679 17.174 -42.4994 12.4759 17.4351 
-41.7004 11.9728 17.7182 -40.9419 11.4185 17.9998 -40.2738 10.7567 18.2534 
-39.7397 9.96116 18.4584 -39.3377 9.07082 18.6124 -39.0456 8.13075 18.7365 
-38.8591 7.16635 18.8588 -38.7677 6.19194 19.0006 -38.7363 5.21944 19.1705 
-38.7306 4.25227 19.3629 -38.72 3.29165 19.5587 -38.6734 2.32881 19.7263 
-38.5495 1.35751 19.8216 -38.3567 0.382266 19.8163 -38.1625 -0.591432 19.7239 
-38.0056 -1.56307 19.5618 -37.8915 -2.52863 19.3413 -37.82 -3.48343 19.0667 
-37.7999 -4.42594 18.7471 -37.84 -5.35813 18.3998 -37.94 -6.28385 18.0457 
-38.0907 -7.20393 17.6958 -38.2714 -8.11766 17.3454 -38.4702 -9.0239 16.988 
-38.6793 -9.92267 16.618 -38.8952 -10.8093 16.224 -39.1213 -11.6706 15.7985 
-39.3468 -12.4721 15.3419 -39.5188 -13.2203 14.7942 -39.6371 -13.9186 14.109 
-39.6826 -14.4952 13.3168 -39.6874 -14.96 12.4451 -39.6673 -15.327 11.5254 
-39.6342 -15.603 10.5747 -39.6083 -15.7865 9.60202 -39.614 -15.8855 8.61556 
-39.6661 -15.9146 7.62318 -39.7676 -15.8941 6.6322 -39.9187 -15.8422 5.6479 
-40.1152 -15.7707 4.67313 -40.3503 -15.6846 3.7097 -40.6215 -15.5878 2.75822 
-40.9321 -15.4814 1.81974 -41.2858 -15.3618 0.897032 -41.6831 -15.224 -0.00654942 
-42.1196 -15.0608 -0.888985 -42.5898 -14.8587 -1.746 -43.0859 -14.6125 -2.57617 
-43.5978 -14.3259 -3.37803 -44.1152 -13.9946 -4.15742 -44.6171 -13.6107 -4.92445 
-45.0642 -13.1553 -5.69325 -45.4066 -12.637 -6.46312 -45.6665 -12.0695 -7.23353 
-45.89 -11.4809 -8.00344 -46.0865 -10.9064 -8.76413 -46.25 -10.3344 -9.53014 
-46.4291 -9.73043 -10.3017 -46.5973 -9.12456 -11.0734 -46.7641 -8.52842 -11.8535 
-46.9501 -7.97226 -12.6486 -47.1154 -7.72753 -13.3488 -47.1815 -7.66233 -13.8807 
-47.1314 -7.65728 -14.3101 -47.2379 -7.32667 -14.7143 -47.2931 -7.25153 -14.9384 

LINES 1 82
81 0 1 2 3 4 5 6 7 8 9 10 11 12 13 14 15 16 17 18 19 20 21 22 23 24 25 26 27 28 29 30 31 32 33 34 35 36 37 38 39 40 41 42 43 44 45 46 47 48 49 50 51 52 53 54 55 56 57 58 59 60 61 62 63 64 65 66 67 68 69 70 71 72 73 74 75 76 77 78 79 80 

POINT_DATA 81
SCALARS SamplingDistance2Origin float 
LOOKUP_TABLE default
-42 -41 -40 -39 -38 -37 -36 -35 -34 
-33 -32 -31 -30 -29 -28 -27 -26 -25 
-24 -23 -22 -21 -20 -19 -18 -17 -16 
-15 -14 -13 -12 -11 -10 -9 -8 -7 
-6 -5 -4 -3 -2 -1 0 1 2 
3 4 5 6 7 8 9 10 11 
12 13 14 15 16 17 18 19 20 
21 22 23 24 25 26 27 28 29 
30 31 32 33 34 35 36 37 38 

