# vtk DataFile Version 4.2
vtk output
ASCII
DATASET POLYDATA
POINTS 77 float
23.4277 20.1222 11.0087 23.3594 20.0703 10.0773 23.5235 20.1477 9.46852 
23.2672 19.9596 9.86502 22.8786 19.6825 11.0906 22.4167 19.3561 12.0619 
21.9037 18.972 13.1487 21.387 18.5693 13.8538 20.9507 18.1374 14.5483 
20.3399 17.5426 15.3332 19.575 16.9529 15.7789 18.7934 16.4108 16.0701 
17.9863 15.9088 16.2648 17.1576 15.443 16.3903 16.3173 14.9921 16.5522 
15.4714 14.5544 16.7461 14.6229 14.1221 16.9629 13.7781 13.6817 17.1931 
12.9534 13.2097 17.4255 12.1839 12.6651 17.6529 11.522 12.0056 17.8731 
10.9952 11.2247 18.0826 10.5902 10.3541 18.275 10.2791 9.43 18.4436 
10.0424 8.47604 18.591 9.88372 7.50161 18.7247 9.8061 6.5167 18.8542 
9.80898 5.52865 18.9894 9.87454 4.54313 19.1319 9.96098 3.55738 19.2623 
10.0096 2.56454 19.3377 9.9963 1.56968 19.3186 9.95894 0.585846 19.2026 
9.93037 -0.377998 18.997 9.92392 -1.31988 18.7194 9.957 -2.2446 18.3933 
10.0432 -3.15854 18.0416 10.189 -4.06581 17.6812 10.3914 -4.97101 17.3332 
10.6478 -5.87882 17.0199 10.9519 -6.79802 16.7444 11.291 -7.69955 16.4964 
11.6366 -8.62922 16.2318 11.9112 -9.49099 15.9307 12.107 -10.3391 15.5626 
12.2367 -11.1688 15.1277 12.3254 -11.9784 14.6355 12.3565 -12.7564 14.0917 
12.2972 -13.471 13.4715 12.162 -14.0748 12.7412 12.0191 -14.5551 11.9035 
11.9196 -14.9421 11.005 11.8751 -15.2582 10.0708 11.8901 -15.5218 9.11705 
11.9733 -15.7379 8.15183 12.1262 -15.9026 7.18201 12.3473 -16.0026 6.21508 
12.6253 -16.0417 5.25876 12.9443 -16.0247 4.31437 13.2831 -15.9589 3.37903 
13.6268 -15.8435 2.45044 13.9697 -15.6778 1.52987 14.3158 -15.4604 0.621972 
14.671 -15.1967 -0.269956 15.0379 -14.8923 -1.14457 15.4152 -14.5564 -2.00322 
15.8041 -14.196 -2.84603 16.2071 -13.8197 -3.67372 16.6287 -13.4354 -4.48552 
17.0684 -13.0567 -5.27901 17.4607 -12.7591 -6.02632 17.774 -12.5707 -6.73414 
18.0477 -12.4605 -7.43397 18.2205 -12.4523 -8.13721 18.5562 -12.2068 -8.90055 
18.9799 -11.9631 -9.68359 19.3191 -12.6205 -10.0913 
LINES 1 78
77 0 1 2 3 4 5 6 7 8 9 10 11 12 13 14 15 16 17 18 19 20 21 22 23 24 25 26 27 28 29 30 31 32 33 34 35 36 37 38 39 40 41 42 43 44 45 46 47 48 49 50 51 52 53 54 55 56 57 58 59 60 61 62 63 64 65 66 67 68 69 70 71 72 73 74 75 76 

POINT_DATA 77
SCALARS SamplingDistance2Origin float 
LOOKUP_TABLE default
-41 -40 -39 -38 -37 -36 -35 -34 -33 
-32 -31 -30 -29 -28 -27 -26 -25 -24 
-23 -22 -21 -20 -19 -18 -17 -16 -15 
-14 -13 -12 -11 -10 -9 -8 -7 -6 
-5 -4 -3 -2 -1 0 1 2 3 
4 5 6 7 8 9 10 11 12 
13 14 15 16 17 18 19 20 21 
22 23 24 25 26 27 28 29 30 
31 32 33 34 35 
