# vtk DataFile Version 4.2
vtk output
ASCII
DATASET POLYDATA
POINTS 68 float
-45.3124 -25.3361 25.8799 -44.9687 -25.1157 25.193 -44.7735 -24.2924 24.7825 
-44.5112 -23.6717 24.2207 -44.1578 -23.1048 23.548 -43.8062 -22.5118 22.881 
-43.3951 -22.0449 22.1126 -42.9799 -21.5737 21.345 -42.5511 -21.0967 20.5885 
-42.1575 -20.5558 19.8788 -41.8254 -19.9469 19.2313 -41.518 -19.3369 18.6104 
-41.263 -18.6888 18.075 -40.801 -18.2301 17.4559 -40.2649 -17.7942 16.8652 
-39.664 -17.3603 16.3151 -39.116 -16.8389 15.9473 -38.5376 -16.2959 15.6875 
-38.0084 -15.6214 15.6134 -37.5476 -14.816 15.7013 -37.1553 -13.9627 15.9057 
-36.7698 -13.1034 16.1692 -36.4025 -12.2406 16.4962 -36.0679 -11.3854 16.8822 
-35.7554 -10.5501 17.325 -35.4498 -9.73709 17.8111 -35.1628 -8.93014 18.319 
-34.9549 -8.08877 18.7853 -34.9002 -7.20868 19.1616 -34.981 -6.31922 19.4845 
-35.1558 -5.43711 19.7884 -35.3884 -4.56101 20.0573 -35.6489 -3.61661 20.2936 
-35.9288 -2.74262 20.6873 -36.1808 -1.8673 20.8172 -36.4152 -0.929079 20.9135 
-36.5674 0.0350762 20.8688 -36.6474 0.994146 20.7027 -36.6795 1.94475 20.4402 
-36.6976 2.87867 20.1102 -36.7299 3.80439 19.7526 -36.7968 4.72628 19.3887 
-36.9003 5.64184 19.022 -37.0442 6.54526 18.6484 -37.2319 7.44749 18.2887 
-37.4606 8.34242 17.9402 -37.7221 9.22585 17.5912 -38.0064 10.0878 17.2198 
-38.3169 10.917 16.8186 -38.7081 11.6714 16.4019 -39.2163 12.316 15.9917 
-39.7924 12.8732 15.5616 -40.4037 13.3651 15.1693 -40.9952 13.8342 14.7811 
-41.5572 14.3175 14.3532 -42.1915 14.7905 14.051 -42.6412 15.3634 13.145 
-43.3248 15.8407 12.7175 -44.0872 16.295 12.3622 -44.7601 16.737 11.7718 
-45.585 17.1559 11.4325 -46.0099 17.5528 10.3496 -46.7398 17.9501 9.8271 
-46.93 18.2958 9.1517 -47.2834 18.5238 8.3738 -47.8342 18.6831 7.89561 
-48.4413 18.8519 7.61101 -48.6477 19.2239 7.20031 
LINES 1 69
68 0 1 2 3 4 5 6 7 8 9 10 11 12 13 14 15 16 17 18 19 20 21 22 23 24 25 26 27 28 29 30 31 32 33 34 35 36 37 38 39 40 41 42 43 44 45 46 47 48 49 50 51 52 53 54 55 56 57 58 59 60 61 62 63 64 65 66 67 

POINT_DATA 68
SCALARS SamplingDistance2Origin float 
LOOKUP_TABLE default
-33 -32 -31 -30 -29 -28 -27 -26 -25 
-24 -23 -22 -21 -20 -19 -18 -17 -16 
-15 -14 -13 -12 -11 -10 -9 -8 -7 
-6 -5 -4 -3 -2 -1 0 1 2 
3 4 5 6 7 8 9 10 11 
12 13 14 15 16 17 18 19 20 
21 22 23 24 25 26 27 28 29 
30 31 32 33 34 
