# vtk DataFile Version 4.2
vtk output
ASCII
DATASET POLYDATA
POINTS 37 float
-48.9099 -21.121 20.6419 -49.689 -22.0077 19.6184 -49.5648 -21.6794 18.9304 
-48.9326 -21.4926 18.5965 -48.2635 -20.9891 18.2892 -47.563 -20.2052 18.0397 
-46.821 -19.3159 17.7992 -46.2571 -18.7638 17.3176 -45.5112 -18.3526 16.9226 
-44.769 -17.9615 16.4885 -44.0129 -17.5815 16.0359 -43.2776 -17.2154 15.5372 
-42.576 -16.8756 14.9791 -41.9273 -16.6002 14.3385 -41.3765 -16.421 13.5942 
-40.9679 -16.3722 12.7439 -40.7077 -16.4224 11.8252 -40.5715 -16.5184 10.8747 
-40.5152 -16.619 9.91142 -40.5295 -16.7112 8.84374 -40.5961 -16.7783 7.79363 
-40.6969 -16.8251 6.81423 -40.8342 -16.8642 5.83712 -41.0122 -16.8945 4.86732 
-41.2262 -16.9095 3.90561 -41.4737 -16.8986 2.95202 -41.7626 -16.864 2.01115 
-42.113 -16.8094 1.0933 -42.535 -16.7279 0.209037 -43.0486 -16.6017 -0.619094 
-43.6545 -16.4217 -1.36772 -44.3501 -16.2011 -2.01486 -45.0981 -15.9749 -2.57172 
-45.796 -15.721 -3.10297 -46.2128 -15.3921 -3.76009 -46.5592 -14.8286 -4.49875 
-47.0849 -13.421 -5.38655 
LINES 1 38
37 0 1 2 3 4 5 6 7 8 9 10 11 12 13 14 15 16 17 18 19 20 21 22 23 24 25 26 27 28 29 30 31 32 33 34 35 36 

POINT_DATA 37
SCALARS SamplingDistance2Origin float 
LOOKUP_TABLE default
-19 -18 -17 -16 -15 -14 -13 -12 -11 
-10 -9 -8 -7 -6 -5 -4 -3 -2 
-1 0 1 2 3 4 5 6 7 
8 9 10 11 12 13 14 15 16 
17 
