# vtk DataFile Version 4.2
vtk output
ASCII
DATASET POLYDATA
POINTS 92 float
-20.3926 32.7557 -8.85735 -20.4888 33.1166 -8.69452 -20.8038 34.0562 -8.66878 
-20.9714 34.9831 -8.47587 -20.7686 35.3852 -7.85572 -20.5599 35.9623 -7.27378 
-20.3679 36.6274 -6.74148 -20.1956 37.3786 -6.22339 -20.0935 38.1861 -5.71635 
-20.0486 39.0178 -5.17985 -20.0441 39.8161 -4.58493 -20.0571 40.5453 -3.90888 
-20.0517 41.1688 -3.13785 -19.9849 41.6543 -2.2766 -19.8434 41.9989 -1.357 
-19.6554 42.2253 -0.408095 -19.4597 42.3441 0.55874 -19.2739 42.3428 1.53632 
-19.1064 42.2238 2.51048 -18.9568 41.9963 3.47037 -18.8157 41.6719 4.40338 
-18.6953 41.2483 5.2991 -18.6056 40.7271 6.14572 -18.5416 40.1218 6.93779 
-18.4835 39.4564 7.68121 -18.4228 38.7477 8.3837 -18.3559 38.0098 9.0549 
-18.2891 37.2481 9.69914 -18.2302 36.4648 10.319 -18.1848 35.662 10.9133 
-18.1497 34.8414 11.4835 -18.1185 34.0095 12.0373 -18.0912 33.1687 12.5762 
-18.0673 32.3164 13.0985 -18.0514 31.4572 13.6097 -18.0497 30.5973 14.12 
-18.0545 29.7364 14.6285 -18.0602 28.8689 15.1256 -18.0717 27.9881 15.6002 
-18.0954 27.0943 16.0478 -18.1277 26.1886 16.4701 -18.1626 25.2705 16.8645 
-18.1961 24.3408 17.2309 -18.2252 23.4028 17.5758 -18.2514 22.4602 17.9085 
-18.2783 21.5124 18.2259 -18.3074 20.5558 18.5151 -18.3388 19.6007 18.7639 
-18.3471 18.7603 19.013 -18.3925 17.9465 19.0992 -18.4104 16.943 19.2821 
-18.4149 15.9536 19.4266 -18.412 14.9613 19.549 -18.4061 13.9662 19.6468 
-18.4034 12.9687 19.7152 -18.4176 11.9699 19.756 -18.4583 10.9711 19.775 
-18.5187 9.97304 19.78 -18.5888 8.97563 19.7765 -18.6644 7.97869 19.7662 
-18.7427 6.98208 19.7487 -18.821 5.98549 19.7277 -18.8982 4.98871 19.7136 
-18.9764 3.99197 19.7195 -19.069 2.99698 19.7485 -19.2035 2.00746 19.786 
-19.403 1.02868 19.8034 -19.653 0.0606141 19.7855 -19.9338 -0.897195 19.744 
-20.2456 -1.84421 19.6928 -20.6058 -2.77111 19.6235 -21.0221 -3.66372 19.4909 
-21.4992 -4.48606 19.2218 -21.9985 -5.24178 18.8482 -22.4896 -5.98221 18.4588 
-22.9648 -6.73662 18.098 -23.4095 -7.51988 17.7903 -23.8254 -8.32509 17.5449 
-24.2252 -9.14001 17.3793 -24.6144 -9.95033 17.296 -24.9737 -10.7448 17.2827 
-25.2891 -11.5193 17.3093 -25.5072 -12.285 17.3777 -25.6312 -13.0462 17.4689 
-25.7001 -13.7999 17.5525 -25.7873 -14.5731 17.5104 -25.8478 -15.3139 17.5543 
-25.9637 -16.1773 17.1889 -25.9387 -17.0407 16.8655 -25.721 -17.7992 16.9233 
-25.3992 -18.5391 16.9808 -25.311 -19.2201 17.8978 
LINES 1 93
92 0 1 2 3 4 5 6 7 8 9 10 11 12 13 14 15 16 17 18 19 20 21 22 23 24 25 26 27 28 29 30 31 32 33 34 35 36 37 38 39 40 41 42 43 44 45 46 47 48 49 50 51 52 53 54 55 56 57 58 59 60 61 62 63 64 65 66 67 68 69 70 71 72 73 74 75 76 77 78 79 80 81 82 83 84 85 86 87 88 89 90 91 

POINT_DATA 92
SCALARS SamplingDistance2Origin float 
LOOKUP_TABLE default
-48 -47 -46 -45 -44 -43 -42 -41 -40 
-39 -38 -37 -36 -35 -34 -33 -32 -31 
-30 -29 -28 -27 -26 -25 -24 -23 -22 
-21 -20 -19 -18 -17 -16 -15 -14 -13 
-12 -11 -10 -9 -8 -7 -6 -5 -4 
-3 -2 -1 0 1 2 3 4 5 
6 7 8 9 10 11 12 13 14 
15 16 17 18 19 20 21 22 23 
24 25 26 27 28 29 30 31 32 
33 34 35 36 37 38 39 40 41 
42 43 
