# vtk DataFile Version 4.2
vtk output
ASCII
DATASET POLYDATA
POINTS 93 float
-7.33361 38.0483 -13.7477 -7.3502 36.89 -13.3639 -7.05935 36.5681 -12.7851 
-7.2477 35.0675 -11.2807 -7.40788 34.3463 -10.1715 -7.48119 34.6173 -9.51998 
-7.66595 34.8975 -8.8321 -7.92094 35.2276 -8.20427 -8.14688 35.826 -7.66453 
-8.32239 36.5612 -7.19755 -8.36911 37.4043 -6.78012 -8.34184 38.2768 -6.34334 
-8.28183 39.1383 -5.84384 -8.20163 39.9445 -5.26295 -8.10681 40.6726 -4.59403 
-8.00365 41.3026 -3.83456 -7.90601 41.8169 -2.98984 -7.80804 42.2134 -2.07938 
-7.72086 42.4828 -1.12578 -7.62828 42.6196 -0.145763 -7.54098 42.6188 0.844948 
-7.48127 42.4903 1.83607 -7.49215 42.2427 2.80369 -7.54953 41.8958 3.73364 
-7.63403 41.4525 4.623 -7.72226 40.9209 5.4629 -7.81121 40.32 6.25677 
-7.89497 39.668 7.01186 -7.97895 38.9751 7.72694 -8.0681 38.2494 8.40842 
-8.17763 37.5002 9.06172 -8.30352 36.7316 9.68386 -8.42936 35.942 10.2839 
-8.53071 35.1307 10.8587 -8.60098 34.3015 11.4125 -8.64958 33.4617 11.9527 
-8.68751 32.6154 12.4837 -8.72158 31.765 13.0085 -8.75734 30.9117 13.5284 
-8.7976 30.0554 14.0423 -8.83809 29.1931 14.5466 -8.86833 28.3228 15.0374 
-8.88191 27.44 15.506 -8.8784 26.5426 15.9461 -8.86378 25.6329 16.3604 
-8.84472 24.7134 16.7521 -8.82497 23.7845 17.1213 -8.81156 22.8398 17.4567 
-8.775 22.0855 17.75 -8.81247 21.3385 17.9346 -8.80243 20.2853 18.213 
-8.80109 19.3113 18.4381 -8.7946 18.331 18.6349 -8.77971 17.3461 18.8065 
-8.76121 16.3578 18.9565 -8.74873 15.3666 19.0872 -8.74679 14.3727 19.1956 
-8.75531 13.3761 19.2746 -8.7715 12.3775 19.3178 -8.78455 11.3779 19.3267 
-8.77669 10.3775 19.3073 -8.73535 9.37854 19.2597 -8.67355 8.38347 19.2033 
-8.59765 7.38727 19.137 -8.51552 6.39348 19.0847 -8.40832 5.3993 19.0395 
-8.26419 4.40998 19.0095 -8.08063 3.4273 18.9842 -7.86804 2.45018 18.9498 
-7.64176 1.47915 18.9208 -7.4045 0.50871 18.8743 -7.16192 -0.455841 18.8147 
-6.92045 -1.41788 18.6992 -6.6778 -2.36354 18.5327 -6.44406 -3.29539 18.2773 
-6.20969 -4.20866 17.9746 -5.98026 -5.10706 17.6493 -5.74753 -6.00687 17.3202 
-5.52456 -6.90653 16.9949 -5.30868 -7.80969 16.6583 -5.10424 -8.70778 16.312 
-4.90477 -9.60274 15.9422 -4.71799 -10.4855 15.5549 -4.51134 -11.3304 15.1673 
-4.31879 -12.1312 14.7877 -4.19087 -12.9003 14.4176 -4.20579 -13.6529 14.0259 
-4.3115 -14.3625 13.6322 -4.24291 -15.0081 13.3702 -3.79506 -15.6754 13.2813 
-3.8914 -16.3734 12.9177 -4.09432 -17.0458 12.6291 -4.2043 -17.5807 12.8347 

LINES 1 94
93 0 1 2 3 4 5 6 7 8 9 10 11 12 13 14 15 16 17 18 19 20 21 22 23 24 25 26 27 28 29 30 31 32 33 34 35 36 37 38 39 40 41 42 43 44 45 46 47 48 49 50 51 52 53 54 55 56 57 58 59 60 61 62 63 64 65 66 67 68 69 70 71 72 73 74 75 76 77 78 79 80 81 82 83 84 85 86 87 88 89 90 91 92 

POINT_DATA 93
SCALARS SamplingDistance2Origin float 
LOOKUP_TABLE default
-48 -47 -46 -45 -44 -43 -42 -41 -40 
-39 -38 -37 -36 -35 -34 -33 -32 -31 
-30 -29 -28 -27 -26 -25 -24 -23 -22 
-21 -20 -19 -18 -17 -16 -15 -14 -13 
-12 -11 -10 -9 -8 -7 -6 -5 -4 
-3 -2 -1 0 1 2 3 4 5 
6 7 8 9 10 11 12 13 14 
15 16 17 18 19 20 21 22 23 
24 25 26 27 28 29 30 31 32 
33 34 35 36 37 38 39 40 41 
42 43 44 
