# vtk DataFile Version 4.2
vtk output
ASCII
DATASET POLYDATA
POINTS 88 float
-7.34144 -17.2417 6.23977 -6.91358 -17.2741 7.2904 -6.59643 -17.0174 8.05146 
-6.25774 -16.6162 8.84728 -5.94021 -16.1668 9.68681 -5.7234 -15.6474 10.5067 
-5.52117 -15.0857 11.3042 -5.29283 -14.4695 12.0536 -5.05571 -13.7906 12.7455 
-4.86036 -13.0498 13.3864 -4.7362 -12.2587 13.9842 -4.68505 -11.4246 14.5286 
-4.70542 -10.5551 15.0178 -4.76859 -9.66225 15.4616 -4.86196 -8.75606 15.8723 
-4.96929 -7.83972 16.2548 -5.09998 -6.91862 16.6136 -5.26904 -5.99647 16.9511 
-5.45815 -5.07332 17.2744 -5.65731 -4.15038 17.5913 -5.8673 -3.2233 17.8914 
-6.07973 -2.28192 18.145 -6.28195 -1.32297 18.3357 -6.47373 -0.351217 18.4655 
-6.65833 0.626843 18.5542 -6.83024 1.60925 18.6203 -6.98735 2.59481 18.6778 
-7.12677 3.58338 18.7294 -7.24217 4.57532 18.7762 -7.3291 5.57022 18.8234 
-7.39403 6.56665 18.8758 -7.45058 7.56352 18.9307 -7.50649 8.56053 18.9839 
-7.55775 9.55807 19.0306 -7.58917 10.5569 19.0637 -7.59489 11.5566 19.0743 
-7.58478 12.5562 19.0566 -7.57214 13.5544 19.003 -7.56127 14.5501 18.9124 
-7.55476 15.5283 18.7956 -7.54245 16.3144 18.7175 -7.57091 17.0461 18.5712 
-7.58412 18.0499 18.4069 -7.59897 19.0319 18.2191 -7.60639 20.0083 18.0042 
-7.6056 20.9778 17.7594 -7.60358 21.9382 17.4813 -7.60554 22.8876 17.1677 
-7.60509 23.8251 16.8202 -7.59795 24.7524 16.4463 -7.58372 25.6701 16.0494 
-7.55997 26.5777 15.6305 -7.52228 27.474 15.189 -7.4683 28.3593 14.7275 
-7.40517 29.2378 14.2543 -7.33339 30.1087 13.7684 -7.25783 30.9731 13.2718 
-7.18198 31.8333 12.768 -7.10167 32.6898 12.2589 -7.0127 33.5415 11.744 
-6.90296 34.3864 11.223 -6.76056 35.2201 10.6964 -6.57013 36.0277 10.1685 
-6.34874 36.8076 9.64779 -6.10407 37.5659 9.14739 -5.82002 38.3024 8.69051 
-5.5164 39.022 8.27041 -5.21231 39.7272 7.87936 -4.9191 40.4224 7.53145 
-4.63959 41.1068 7.20731 -4.36295 41.7763 6.81915 -4.03738 42.4081 6.33113 
-3.61499 43.0236 6.14356 -3.19089 43.6657 6.05425 -2.76756 44.3053 5.69898 
-2.35747 44.9727 5.15992 -1.9356 45.6315 4.21638 -1.75985 46.4752 3.99654 
-1.72119 47.3309 3.70274 -1.82856 48.2421 3.62094 -2.05918 49.1791 3.69305 
-2.35874 50.103 3.82275 -2.65258 50.9498 3.84594 -2.96772 51.7338 3.80138 
-3.35908 52.517 3.90886 -3.35605 52.895 3.00606 -3.20385 53.217 1.71951 
-3.18527 53.7507 0.981628 
LINES 1 89
88 0 1 2 3 4 5 6 7 8 9 10 11 12 13 14 15 16 17 18 19 20 21 22 23 24 25 26 27 28 29 30 31 32 33 34 35 36 37 38 39 40 41 42 43 44 45 46 47 48 49 50 51 52 53 54 55 56 57 58 59 60 61 62 63 64 65 66 67 68 69 70 71 72 73 74 75 76 77 78 79 80 81 82 83 84 85 86 87 

POINT_DATA 88
SCALARS SamplingDistance2Origin float 
LOOKUP_TABLE default
-40 -39 -38 -37 -36 -35 -34 -33 -32 
-31 -30 -29 -28 -27 -26 -25 -24 -23 
-22 -21 -20 -19 -18 -17 -16 -15 -14 
-13 -12 -11 -10 -9 -8 -7 -6 -5 
-4 -3 -2 -1 0 1 2 3 4 
5 6 7 8 9 10 11 12 13 
14 15 16 17 18 19 20 21 22 
23 24 25 26 27 28 29 30 31 
32 33 34 35 36 37 38 39 40 
41 42 43 44 45 46 47 
