# vtk DataFile Version 4.2
vtk output
ASCII
DATASET POLYDATA
POINTS 90 float
-24.7635 54.102 0.748289 -24.7822 53.6373 1.09183 -24.9718 52.8404 1.69929 
-25.3517 51.9264 1.75111 -25.6618 51.0863 1.80442 -25.8802 50.2672 2.2776 
-25.9746 49.5844 2.8216 -26.1406 48.6208 2.79065 -26.1799 47.6936 2.81129 
-26.0504 46.8149 2.91094 -25.7769 45.9338 2.96723 -25.3706 45.0879 3.04503 
-24.8391 44.2954 3.14687 -24.1992 43.5602 3.26214 -23.5017 42.9157 3.46987 
-22.8045 42.3368 3.79024 -22.1719 41.7973 4.25144 -21.6547 41.2682 4.83871 
-21.2108 40.6996 5.48647 -20.877 40.0841 6.17615 -20.6233 39.4142 6.8635 
-20.4342 38.7028 7.52982 -20.2705 37.9485 8.16393 -20.1353 37.1678 8.77901 
-20.0144 36.371 9.36992 -19.9116 35.5582 9.94237 -19.8298 34.73 10.4959 
-19.7698 33.8882 11.0316 -19.7248 33.0364 11.553 -19.6872 32.1774 12.0633 
-19.6593 31.3123 12.5638 -19.6425 30.4434 13.058 -19.6347 29.5721 13.5479 
-19.634 28.6966 14.0306 -19.638 27.8154 14.5026 -19.6468 26.9275 14.962 
-19.6622 26.0304 15.4027 -19.6808 25.1214 15.8183 -19.7003 24.2001 16.2058 
-19.7215 23.268 16.5668 -19.745 22.3275 16.9053 -19.7683 21.3812 17.2271 
-19.7938 20.428 17.5276 -19.8288 19.465 17.7933 -19.8737 18.4916 18.0162 
-19.9115 17.574 18.1978 -19.9394 16.8076 18.3605 -19.9518 16.1982 18.3964 
-19.9489 14.9866 18.5616 -19.947 13.9926 18.6696 -19.9411 12.9962 18.7501 
-19.9381 11.9975 18.7968 -19.9458 10.9979 18.8115 -19.9628 9.99828 18.8015 
-19.9839 8.99897 18.7748 -20.0048 7.99991 18.7383 -20.0228 7.00082 18.7003 
-20.0356 6.00155 18.6655 -20.0422 5.00207 18.6353 -20.0516 4.00255 18.6089 
-20.0822 3.00371 18.5796 -20.1445 2.00709 18.5364 -20.2422 1.01477 18.471 
-20.3711 0.0278751 18.3824 -20.5262 -0.953063 18.2734 -20.7131 -1.9248 18.1388 
-20.9332 -2.88197 17.962 -21.1668 -3.82149 17.7262 -21.3745 -4.7486 17.4321 
-21.5328 -5.6734 17.099 -21.6263 -6.59076 16.7415 -21.6826 -7.51162 16.3681 
-21.6924 -8.42632 15.9826 -21.7078 -9.34309 15.5799 -21.7501 -10.2443 15.1519 
-21.8296 -11.1241 14.6861 -21.9132 -11.9755 14.1708 -21.9662 -12.7902 13.5971 
-21.9578 -13.5571 12.9607 -21.8816 -14.2658 12.2659 -21.7399 -14.9104 11.5213 
-21.5627 -15.4903 10.7336 -21.3883 -16.0034 9.90314 -21.196 -16.4482 9.04227 
-20.9381 -16.8118 8.15529 -20.6191 -17.0752 7.25025 -20.2705 -17.2441 6.36082 
-20.0197 -17.3964 5.62713 -19.8778 -17.6159 5.07264 -19.6961 -17.7882 4.68226 

LINES 1 91
90 0 1 2 3 4 5 6 7 8 9 10 11 12 13 14 15 16 17 18 19 20 21 22 23 24 25 26 27 28 29 30 31 32 33 34 35 36 37 38 39 40 41 42 43 44 45 46 47 48 49 50 51 52 53 54 55 56 57 58 59 60 61 62 63 64 65 66 67 68 69 70 71 72 73 74 75 76 77 78 79 80 81 82 83 84 85 86 87 88 89 

POINT_DATA 90
SCALARS SamplingDistance2Origin float 
LOOKUP_TABLE default
-46 -45 -44 -43 -42 -41 -40 -39 -38 
-37 -36 -35 -34 -33 -32 -31 -30 -29 
-28 -27 -26 -25 -24 -23 -22 -21 -20 
-19 -18 -17 -16 -15 -14 -13 -12 -11 
-10 -9 -8 -7 -6 -5 -4 -3 -2 
-1 0 1 2 3 4 5 6 7 
8 9 10 11 12 13 14 15 16 
17 18 19 20 21 22 23 24 25 
26 27 28 29 30 31 32 33 34 
35 36 37 38 39 40 41 42 43 

