# vtk DataFile Version 4.2
vtk output
ASCII
DATASET POLYDATA
POINTS 66 float
-23.1334 -33.2329 24.3804 -23.008 -32.5515 23.7715 -23.29 -31.8425 23.2799 
-23.9088 -31.1791 22.8203 -24.3047 -31.5647 20.8824 -24.6762 -32.0494 18.9374 
-25.1425 -32.1548 17.5799 -25.6303 -31.9215 16.5947 -26.0147 -31.4704 15.7647 
-26.39 -30.7351 15.1887 -26.7439 -30.0324 14.5801 -27.0946 -29.3313 13.976 
-27.4548 -28.7134 13.2711 -27.8406 -28.0485 12.6377 -28.2643 -27.4452 11.9511 
-28.6232 -26.8182 11.3203 -28.8761 -26.2498 10.6343 -29.073 -25.5107 10.0767 
-29.1388 -24.772 9.49885 -28.9736 -24.0739 8.91595 -28.6521 -23.406 8.38006 
-28.2836 -22.7515 7.85028 -27.9162 -22.0831 7.31659 -27.5558 -21.3952 6.78358 
-27.1946 -20.6886 6.26836 -26.8202 -19.9683 5.78053 -26.4223 -19.253 5.31175 
-26.0007 -18.5698 4.84221 -25.5823 -17.9416 4.33985 -25.2007 -17.364 3.78909 
-24.8678 -16.8126 3.20218 -24.5777 -16.268 2.58954 -24.3239 -15.7324 1.944 
-24.1126 -15.2295 1.24378 -23.9789 -14.7514 0.487967 -23.9422 -14.3671 -0.31818 
-23.9475 -13.9469 -1.23874 -23.9841 -13.4721 -2.10359 -24.0406 -12.91 -2.90291 
-24.1213 -12.2724 -3.66383 -24.2379 -11.586 -4.37514 -24.3756 -10.8644 -5.05201 
-24.5387 -10.1196 -5.69361 -24.7171 -9.36254 -6.31846 -24.8872 -8.59883 -6.93144 
-25.0367 -7.83244 -7.55157 -25.156 -7.08159 -8.19823 -25.2486 -6.3594 -8.88152 
-25.3316 -5.6666 -9.5972 -25.4305 -5.00634 -10.3408 -25.5743 -4.39015 -11.1176 
-25.7688 -3.83096 -11.9212 -25.9882 -3.34054 -12.7622 -26.2034 -2.90806 -13.6395 
-26.4045 -2.49813 -14.5271 -26.5984 -2.08168 -15.4136 -26.7952 -1.65801 -16.2954 
-27.0191 -1.2388 -17.1694 -27.2863 -0.836815 -18.0403 -27.6144 -0.444515 -18.8938 
-27.9717 -0.0686472 -19.7432 -28.3724 0.292461 -20.5766 -28.5742 0.78896 -21.3429 
-28.7721 1.16061 -22.1144 -29.0136 1.61618 -21.8339 -29.5517 1.57872 -22.1903 

LINES 1 67
66 0 1 2 3 4 5 6 7 8 9 10 11 12 13 14 15 16 17 18 19 20 21 22 23 24 25 26 27 28 29 30 31 32 33 34 35 36 37 38 39 40 41 42 43 44 45 46 47 48 49 50 51 52 53 54 55 56 57 58 59 60 61 62 63 64 65 

POINT_DATA 66
SCALARS SamplingDistance2Origin float 
LOOKUP_TABLE default
-34 -33 -32 -31 -30 -29 -28 -27 -26 
-25 -24 -23 -22 -21 -20 -19 -18 -17 
-16 -15 -14 -13 -12 -11 -10 -9 -8 
-7 -6 -5 -4 -3 -2 -1 0 1 
2 3 4 5 6 7 8 9 10 
11 12 13 14 15 16 17 18 19 
20 21 22 23 24 25 26 27 28 
29 30 31 
