# vtk DataFile Version 4.2
vtk output
ASCII
DATASET POLYDATA
POINTS 67 float
4.05633 4.19227 -25.1346 3.94873 4.03566 -24.8372 3.52281 3.43884 -24.4731 
3.09534 2.91924 -23.7624 2.73888 2.35537 -23.0319 2.31576 1.88931 -22.2676 
1.87963 1.50588 -21.4655 1.46567 1.17392 -20.6271 1.08982 0.862775 -19.7669 
0.756631 0.539562 -18.8887 0.459727 0.197866 -18.0055 0.200622 -0.167264 -17.113 
-0.017805 -0.546031 -16.2154 -0.194677 -0.934526 -15.3131 -0.341595 -1.33363 -14.41 
-0.474257 -1.75747 -13.5154 -0.611599 -2.22829 -12.6456 -0.737377 -2.7586 -11.8097 
-0.829798 -3.34507 -11.0071 -0.887696 -3.97215 -10.2315 -0.936273 -4.62554 -9.4774 
-1.01101 -5.29621 -8.74197 -1.13605 -5.98805 -8.03299 -1.3195 -6.69765 -7.35591 
-1.5563 -7.42054 -6.70892 -1.81455 -8.14651 -6.07256 -2.06702 -8.86322 -5.42347 
-2.31027 -9.5565 -4.74675 -2.55916 -10.2141 -4.03766 -2.81279 -10.835 -3.29716 
-3.04645 -11.4549 -2.48901 -3.35367 -11.8922 -1.7685 -3.37744 -12.3832 -1.00044 
-3.52578 -12.8241 -0.0857643 -3.62738 -13.233 0.81825 -3.65672 -13.658 1.70347 
-3.57339 -14.1007 2.54811 -3.38398 -14.5519 3.34162 -3.10495 -14.9939 4.09363 
-2.74147 -15.4275 4.80623 -2.32471 -15.8655 5.48867 -1.85784 -16.3365 6.13735 
-1.36836 -16.8457 6.75972 -0.848755 -17.4061 7.35476 -0.344591 -17.9766 7.95329 
0.174904 -18.5557 8.54593 0.697654 -19.1197 9.13682 1.23725 -19.6726 9.71516 
1.77966 -20.2206 10.2798 2.29815 -20.776 10.8541 2.68773 -21.368 11.4565 
2.8008 -22.0049 12.092 2.53684 -22.5317 12.8411 2.2242 -23.1382 13.5478 
1.7657 -23.6549 14.375 1.34275 -24.2466 15.1439 1.00589 -24.9459 15.7633 
0.653688 -25.6894 16.2899 0.182188 -26.4646 16.7999 -0.241826 -27.2304 17.2848 
-0.498692 -28.0974 17.6565 -0.752069 -29.1244 17.8603 -0.872572 -30.1852 17.9969 
-1.12893 -31.1853 18.1726 -1.35384 -32.299 18.1618 -1.69674 -32.9306 18.6584 
-2.35324 -32.5683 20.3319 
LINES 1 68
67 0 1 2 3 4 5 6 7 8 9 10 11 12 13 14 15 16 17 18 19 20 21 22 23 24 25 26 27 28 29 30 31 32 33 34 35 36 37 38 39 40 41 42 43 44 45 46 47 48 49 50 51 52 53 54 55 56 57 58 59 60 61 62 63 64 65 66 

POINT_DATA 67
SCALARS SamplingDistance2Origin float 
LOOKUP_TABLE default
-31 -30 -29 -28 -27 -26 -25 -24 -23 
-22 -21 -20 -19 -18 -17 -16 -15 -14 
-13 -12 -11 -10 -9 -8 -7 -6 -5 
-4 -3 -2 -1 0 1 2 3 4 
5 6 7 8 9 10 11 12 13 
14 15 16 17 18 19 20 21 22 
23 24 25 26 27 28 29 30 31 
32 33 34 35 
