# vtk DataFile Version 4.2
vtk output
ASCII
DATASET POLYDATA
POINTS 67 float
-25.24 56.2031 -8.57053 -25.2674 55.8347 -8.6058 -25.3111 55.3501 -8.52805 
-25.3344 54.8673 -8.40643 -25.4597 54.3732 -8.00073 -25.6148 53.943 -6.7318 
-25.7634 53.3967 -4.97783 -25.8485 52.6953 -3.39613 -26.0453 52.0346 -2.42395 
-26.2259 51.1945 -1.32387 -26.5438 50.2895 -1.09512 -26.8128 49.3788 -0.826882 
-27.0462 48.4456 -0.741583 -27.225 47.4762 -0.586003 -27.3433 46.5356 -0.536713 
-27.3469 45.5809 -0.525707 -27.2061 44.6359 -0.484345 -26.887 43.7301 -0.44686 
-26.4381 42.8807 -0.392244 -25.9123 42.0772 -0.34238 -25.3291 41.3129 -0.302006 
-24.6946 40.5899 -0.245852 -23.9995 39.9213 -0.177499 -23.249 39.3127 -0.0961901 
-22.4474 38.7689 0.00320025 -21.5943 38.2966 0.107912 -20.6914 37.9115 0.20505 
-19.75 37.6135 0.283714 -18.786 37.382 0.340194 -17.8111 37.1894 0.380345 
-16.8314 37.0175 0.40826 -15.8484 36.86 0.422918 -14.8606 36.7303 0.413513 
-13.7648 36.6618 0.364139 -12.6551 36.7143 0.283641 -11.6752 36.8492 0.208599 
-10.7039 37.0294 0.138981 -9.73713 37.2303 0.072524 -8.77606 37.4507 0.000498124 
-7.82615 37.7027 -0.0828716 -6.8989 38.0109 -0.177211 -6.0045 38.3887 -0.277591 
-5.15066 38.8365 -0.376272 -4.33602 39.3421 -0.466439 -3.5696 39.9108 -0.543299 
-2.86281 40.5456 -0.608311 -2.23116 41.2503 -0.667288 -1.67811 42.0172 -0.728988 
-1.23005 42.8542 -0.797802 -0.913877 43.7538 -0.85665 -0.76 44.6981 -0.886879 
-0.709127 45.6696 -0.813943 -0.76635 46.6372 -0.778015 -0.870292 47.6228 -0.975183 
-1.04822 48.5961 -1.16582 -1.26388 49.5977 -1.64275 -1.49105 50.573 -2.03178 
-1.73174 51.5689 -2.66761 -1.98173 52.4671 -3.09704 -2.13454 53.1113 -3.80318 
-2.30179 53.7011 -4.53576 -2.42952 54.1899 -5.99733 -2.61954 54.5704 -8.44672 
-2.71586 55.1004 -8.74376 -2.77441 55.5076 -9.00993 -2.73831 56.0269 -8.95881 
-2.71072 56.2395 -9.20728 
LINES 1 68
67 0 1 2 3 4 5 6 7 8 9 10 11 12 13 14 15 16 17 18 19 20 21 22 23 24 25 26 27 28 29 30 31 32 33 34 35 36 37 38 39 40 41 42 43 44 45 46 47 48 49 50 51 52 53 54 55 56 57 58 59 60 61 62 63 64 65 66 

POINT_DATA 67
SCALARS SamplingDistance2Origin float 
LOOKUP_TABLE default
-33 -32 -31 -30 -29 -28 -27 -26 -25 
-24 -23 -22 -21 -20 -19 -18 -17 -16 
-15 -14 -13 -12 -11 -10 -9 -8 -7 
-6 -5 -4 -3 -2 -1 0 1 2 
3 4 5 6 7 8 9 10 11 
12 13 14 15 16 17 18 19 20 
21 22 23 24 25 26 27 28 29 
30 31 32 33 
