# vtk DataFile Version 4.2
vtk output
ASCII
DATASET POLYDATA
POINTS 72 float
-19.7228 46.5787 27.2918 -19.8837 45.8638 27.3672 -20.1023 45.2789 27.0692 
-20.3665 44.4562 26.8152 -20.6726 43.4872 26.565 -21.0489 42.6453 26.1189 
-21.4715 42.1233 25.4045 -21.8902 41.6082 24.6806 -22.3015 41.0986 23.9542 
-22.7041 40.5874 23.2278 -23.0988 40.068 22.5032 -23.4868 39.5395 21.7788 
-23.8685 39.0034 21.0523 -24.2438 38.4579 20.3248 -24.6135 37.9036 19.5981 
-24.9835 37.3443 18.8738 -25.3601 36.7831 18.1539 -25.7455 36.2212 17.4397 
-26.1288 35.6574 16.7283 -26.4778 35.0854 16.0113 -26.7175 34.4988 15.2769 
-26.6911 33.9147 14.5327 -26.2872 33.3916 13.8526 -25.6145 32.9699 13.2844 
-24.851 32.6311 12.7611 -24.0523 32.3044 12.2765 -23.2412 31.9749 11.8144 
-22.41 31.6543 11.3836 -21.5384 31.3619 11.0202 -20.6146 31.135 10.749 
-19.6518 30.9886 10.5453 -18.6755 30.8851 10.3708 -17.6991 30.7928 10.1875 
-16.728 30.697 9.97711 -15.7616 30.5998 9.74894 -14.786 30.5244 9.55548 
-13.5939 30.4467 9.5053 -12.4145 30.5602 9.55968 -11.4366 30.6521 9.75465 
-10.4694 30.7576 9.98205 -9.49867 30.8552 10.1968 -8.5232 30.9443 10.3929 
-7.55028 31.0432 10.5949 -6.5962 31.1878 10.8435 -5.6842 31.4071 11.1694 
-4.82147 31.678 11.5779 -3.99264 31.9684 12.0417 -3.18422 32.2704 12.5336 
-2.41028 32.5984 13.0583 -1.71885 32.9808 13.641 -1.26946 33.4821 14.3153 
-1.17843 34.0791 15.0476 -1.3614 34.6895 15.78 -1.65347 35.284 16.5026 
-1.97973 35.8674 17.2238 -2.31141 36.4441 17.9489 -2.64107 37.0156 18.679 
-2.97149 37.581 19.4134 -3.30902 38.1386 20.1507 -3.66131 38.687 20.8881 
-4.03798 39.2234 21.6215 -4.44532 39.745 22.3479 -4.88154 40.2541 23.067 
-5.33899 40.756 23.7812 -5.80774 41.2527 24.4952 -6.27999 41.7453 25.2115 
-6.74821 42.2465 25.923 -7.1872 42.8736 26.5359 -7.55572 44.0417 26.719 
-7.86034 45.3895 26.6587 -8.06989 46.0069 26.9526 -8.12594 45.1842 27.9494 

LINES 1 73
72 0 1 2 3 4 5 6 7 8 9 10 11 12 13 14 15 16 17 18 19 20 21 22 23 24 25 26 27 28 29 30 31 32 33 34 35 36 37 38 39 40 41 42 43 44 45 46 47 48 49 50 51 52 53 54 55 56 57 58 59 60 61 62 63 64 65 66 67 68 69 70 71 

POINT_DATA 72
SCALARS SamplingDistance2Origin float 
LOOKUP_TABLE default
-36 -35 -34 -33 -32 -31 -30 -29 -28 
-27 -26 -25 -24 -23 -22 -21 -20 -19 
-18 -17 -16 -15 -14 -13 -12 -11 -10 
-9 -8 -7 -6 -5 -4 -3 -2 -1 
0 1 2 3 4 5 6 7 8 
9 10 11 12 13 14 15 16 17 
18 19 20 21 22 23 24 25 26 
27 28 29 30 31 32 33 34 35 

