# vtk DataFile Version 4.2
vtk output
ASCII
DATASET POLYDATA
POINTS 80 float
-25.1537 -25.7182 26.5815 -25.6856 -23.9614 26.9233 -26.0394 -22.8594 26.7374 
-26.3481 -22.1227 26.2082 -26.6715 -21.4481 25.5694 -26.9995 -20.7881 24.9017 
-27.3323 -20.1404 24.2226 -27.669 -19.5224 23.5224 -28.0062 -18.9206 22.8073 
-28.3393 -18.3332 22.0776 -28.6655 -17.7574 21.3355 -28.9829 -17.1847 20.5874 
-29.2846 -16.6051 19.8389 -29.5603 -16.0071 19.0955 -29.7881 -15.3812 18.3607 
-29.9317 -14.7307 17.6356 -29.9206 -14.0809 16.9216 -29.7112 -13.4735 16.2157 
-29.2616 -12.9417 15.5544 -28.6469 -12.4473 14.9737 -27.9575 -11.945 14.4707 
-27.2546 -11.4231 14.0037 -26.5577 -10.8843 13.5474 -25.8656 -10.3394 13.0904 
-25.1677 -9.79672 12.6397 -24.4479 -9.26841 12.2093 -23.6805 -8.77636 11.8232 
-22.8559 -8.33763 11.4936 -21.9814 -7.95316 11.2223 -21.083 -7.59813 10.9841 
-20.1789 -7.24941 10.7569 -19.2799 -6.89137 10.5268 -18.3925 -6.51523 10.2874 
-17.523 -6.1155 10.0295 -16.6735 -5.69485 9.74442 -15.8246 -5.28499 9.44107 
-14.9285 -4.9586 9.16898 -13.8433 -4.80002 9.02208 -12.7473 -4.92299 9.12847 
-11.8416 -5.22968 9.38361 -10.9859 -5.62874 9.686 -10.1287 -6.03608 9.97587 
-9.25137 -6.41855 10.2418 -8.35826 -6.77525 10.4931 -7.45214 -7.10748 10.7349 
-6.53757 -7.42275 10.9722 -5.62693 -7.74005 11.2233 -4.74049 -8.08721 11.513 
-3.90271 -8.49151 11.8608 -3.11808 -8.94729 12.2626 -2.38181 -9.43524 12.714 
-1.67531 -9.9304 13.2027 -0.989892 -10.4246 13.72 -0.315219 -10.9121 14.2573 
0.349454 -11.3862 14.8184 0.980316 -11.848 15.4192 1.50234 -12.3219 16.0812 
1.86622 -12.8422 16.7803 2.06896 -13.4214 17.485 2.1236 -14.0445 18.191 
2.03569 -14.6895 18.9124 1.85581 -15.3295 19.6456 1.62985 -15.9567 20.3828 
1.38269 -16.5751 21.1213 1.12461 -17.1918 21.8578 0.861695 -17.812 22.5889 
0.594691 -18.4391 23.3117 0.321984 -19.0767 24.0232 0.0387043 -19.7179 24.7254 
-0.256779 -20.3634 25.4166 -0.574197 -21.0237 26.0907 -0.87228 -21.7893 26.6465 
-1.1867 -22.6611 27.0922 -1.51221 -23.9144 27.294 -1.85664 -25.2584 27.3937 
-2.13596 -26.4352 27.5688 -2.36541 -27.3918 27.7971 -2.55504 -28.4135 27.9447 
-2.63906 -29.2973 28.0357 -2.76277 -30.3531 27.7928 
LINES 1 81
80 0 1 2 3 4 5 6 7 8 9 10 11 12 13 14 15 16 17 18 19 20 21 22 23 24 25 26 27 28 29 30 31 32 33 34 35 36 37 38 39 40 41 42 43 44 45 46 47 48 49 50 51 52 53 54 55 56 57 58 59 60 61 62 63 64 65 66 67 68 69 70 71 72 73 74 75 76 77 78 79 

POINT_DATA 80
SCALARS SamplingDistance2Origin float 
LOOKUP_TABLE default
-37 -36 -35 -34 -33 -32 -31 -30 -29 
-28 -27 -26 -25 -24 -23 -22 -21 -20 
-19 -18 -17 -16 -15 -14 -13 -12 -11 
-10 -9 -8 -7 -6 -5 -4 -3 -2 
-1 0 1 2 3 4 5 6 7 
8 9 10 11 12 13 14 15 16 
17 18 19 20 21 22 23 24 25 
26 27 28 29 30 31 32 33 34 
35 36 37 38 39 40 41 42 
