# vtk DataFile Version 4.2
vtk output
ASCII
DATASET POLYDATA
POINTS 72 float
-25.238 -0.209764 36.4782 -25.5468 1.04459 35.9934 -25.1579 -0.178826 35.0482 
-25.1806 -0.110217 34.3476 -25.4728 0.419045 33.5537 -25.7863 1.22583 32.8113 
-25.983 2.16327 32.1587 -26.1033 3.33619 31.5293 -26.2869 3.93496 30.8052 
-26.4954 4.55609 30.0472 -26.6701 5.23576 29.348 -27.0366 5.46283 28.4636 
-27.4745 5.60352 27.5321 -27.8729 5.8357 26.6485 -28.2474 6.07724 25.7596 
-28.5674 6.32562 24.8575 -28.7942 6.58078 23.9394 -28.8999 6.83818 23.0136 
-28.8277 7.09389 22.1024 -28.5225 7.33868 21.2594 -27.9914 7.56357 20.5031 
-27.316 7.80894 19.8394 -26.5797 8.00417 19.2077 -25.822 8.18051 18.586 
-25.0599 8.35152 17.9673 -24.2942 8.52241 17.3541 -23.5073 8.68799 16.767 
-22.6758 8.8368 16.2398 -21.7898 8.96078 15.7979 -20.8652 9.06354 15.4337 
-19.9177 9.15394 15.1288 -18.9586 9.24257 14.8598 -17.9949 9.33685 14.6103 
-17.0317 9.44256 14.3645 -16.0686 9.55884 14.1249 -15.0972 9.66791 13.9296 
-14.077 9.73225 13.841 -12.9522 9.72195 13.9084 -11.9675 9.65357 14.0699 
-10.993 9.56994 14.2734 -10.0207 9.49294 14.4918 -9.05154 9.42322 14.7278 
-8.08696 9.35557 14.9817 -7.12988 9.28601 15.2607 -6.18814 9.20757 15.5846 
-5.28029 9.10904 15.9854 -4.41147 8.9914 16.4592 -3.5784 8.8599 16.9891 
-2.76685 8.72445 17.5509 -1.97081 8.58748 18.1355 -1.19052 8.44275 18.7388 
-0.445423 8.2745 19.3747 0.223554 8.0746 20.0691 0.722496 7.85047 20.8693 
0.985156 7.6351 21.7709 1.00392 7.44169 22.7272 0.877354 7.2498 23.6853 
0.642001 7.05282 24.6294 0.337674 6.85228 25.5562 -0.0145408 6.65134 26.467 
-0.393564 6.45275 27.3676 -0.788815 6.2595 28.2619 -1.18887 6.07254 29.1548 
-1.56827 5.8591 30.0335 -1.73293 5.17825 30.7276 -1.96336 4.64278 31.5091 
-2.06485 3.65074 32.1893 -2.15842 2.41757 32.8811 -2.1657 1.54655 33.7016 
-2.252 1.26878 34.4316 -2.24506 1.7066 35.3162 -2.2601 1.98706 36.0163 

LINES 1 73
72 0 1 2 3 4 5 6 7 8 9 10 11 12 13 14 15 16 17 18 19 20 21 22 23 24 25 26 27 28 29 30 31 32 33 34 35 36 37 38 39 40 41 42 43 44 45 46 47 48 49 50 51 52 53 54 55 56 57 58 59 60 61 62 63 64 65 66 67 68 69 70 71 

POINT_DATA 72
SCALARS SamplingDistance2Origin float 
LOOKUP_TABLE default
-36 -35 -34 -33 -32 -31 -30 -29 -28 
-27 -26 -25 -24 -23 -22 -21 -20 -19 
-18 -17 -16 -15 -14 -13 -12 -11 -10 
-9 -8 -7 -6 -5 -4 -3 -2 -1 
0 1 2 3 4 5 6 7 8 
9 10 11 12 13 14 15 16 17 
18 19 20 21 22 23 24 25 26 
27 28 29 30 31 32 33 34 35 

