# vtk DataFile Version 4.2
vtk output
ASCII
DATASET POLYDATA
POINTS 76 float
-20.6176 22.5823 38.5659 -20.7052 23.8808 37.8436 -20.8902 24.2365 37.1438 
-21.1303 24.43 36.4157 -21.3712 24.6391 35.6486 -21.6734 24.6644 34.8484 
-21.9754 24.6112 34.0397 -22.3201 24.5347 33.1912 -22.6854 24.4094 32.3336 
-23.0927 24.1857 31.4724 -23.5054 23.9668 30.6006 -23.9106 23.7569 29.7291 
-24.3146 23.5281 28.8545 -24.7121 23.2934 27.9803 -25.1096 23.0527 27.1026 
-25.5047 22.8171 26.228 -25.9027 22.585 25.3533 -26.2986 22.356 24.4765 
-26.6812 22.144 23.5885 -27.0298 21.9495 22.6828 -27.3069 21.7825 21.7514 
-27.4293 21.64 20.8016 -27.2832 21.5582 19.8802 -26.8397 21.4874 19.0584 
-26.1818 21.4929 18.3414 -25.4307 21.4701 17.6914 -24.6603 21.4519 17.0579 
-23.8911 21.4283 16.4224 -23.1146 21.4086 15.7948 -22.3098 21.4079 15.2073 
-21.4539 21.4361 14.7012 -20.5435 21.4881 14.3003 -19.598 21.5557 13.9898 
-18.6377 21.6408 13.7255 -17.6744 21.7262 13.4728 -16.7125 21.8074 13.214 
-15.7471 21.8806 12.9674 -14.7544 21.9475 12.7878 -13.5512 21.9698 12.7375 
-12.2728 22.0506 12.8965 -11.2978 22.0589 13.1025 -10.3256 22.0578 13.3349 
-9.35421 22.0432 13.5703 -8.38379 22.0154 13.8082 -7.42022 21.9772 14.0738 
-6.48274 21.9347 14.4125 -5.58587 21.8995 14.8465 -4.72766 21.8768 15.355 
-3.89235 21.8593 15.9012 -3.06716 21.8429 16.464 -2.25704 21.827 17.0453 
-1.49466 21.815 17.6765 -0.854731 21.8272 18.4085 -0.449159 21.9082 19.264 
-0.342974 22.0834 20.1983 -0.470392 22.321 21.1416 -0.731183 22.5694 22.0677 
-1.064 22.819 22.9715 -1.43665 23.0684 23.8605 -1.82921 23.3161 24.7416 
-2.22996 23.5573 25.6206 -2.63328 23.7848 26.5015 -3.03757 23.9922 27.386 
-3.44224 24.1746 28.2743 -3.83518 24.3211 29.1599 -4.22284 24.4894 30.0341 
-4.5992 24.6004 30.9215 -4.96522 24.6738 31.8251 -5.32594 24.7634 32.7333 
-5.6567 24.8347 33.6218 -5.95763 24.8769 34.48 -6.21237 24.8194 35.3073 
-6.39794 24.3984 36.1501 -6.55184 23.7808 36.9961 -6.69086 22.0173 37.9873 
-7.06339 19.5353 39.2117 
LINES 1 77
76 0 1 2 3 4 5 6 7 8 9 10 11 12 13 14 15 16 17 18 19 20 21 22 23 24 25 26 27 28 29 30 31 32 33 34 35 36 37 38 39 40 41 42 43 44 45 46 47 48 49 50 51 52 53 54 55 56 57 58 59 60 61 62 63 64 65 66 67 68 69 70 71 72 73 74 75 

POINT_DATA 76
SCALARS SamplingDistance2Origin float 
LOOKUP_TABLE default
-38 -37 -36 -35 -34 -33 -32 -31 -30 
-29 -28 -27 -26 -25 -24 -23 -22 -21 
-20 -19 -18 -17 -16 -15 -14 -13 -12 
-11 -10 -9 -8 -7 -6 -5 -4 -3 
-2 -1 0 1 2 3 4 5 6 
7 8 9 10 11 12 13 14 15 
16 17 18 19 20 21 22 23 24 
25 26 27 28 29 30 31 32 33 
34 35 36 37 
