# vtk DataFile Version 4.2
vtk output
ASCII
DATASET POLYDATA
POINTS 130 float
11.5504 8.93819 -16.0062 11.511 8.57962 -16.0294 11.5312 8.07056 -15.6839 
11.5784 7.50582 -15.2559 11.6907 6.65293 -14.8256 11.8081 5.76166 -14.3945 
11.9131 4.86995 -13.9608 11.994 3.97878 -13.5218 12.0467 3.086 -13.0824 
12.074 2.19323 -12.6399 12.0762 1.3041 -12.1889 12.0482 0.421529 -11.7257 
11.99 -0.452945 -11.2495 11.8998 -1.31408 -10.7544 11.7754 -2.15831 -10.2392 
11.615 -2.98683 -9.70984 11.4106 -3.79466 -9.16375 11.1579 -4.56896 -8.5898 
10.8678 -5.30915 -7.98864 10.5574 -6.02932 -7.37239 10.2317 -6.72182 -6.73207 
9.89641 -7.37418 -6.05448 9.5617 -8.00495 -5.35567 9.22227 -8.60102 -4.62944 
8.87398 -9.14439 -3.86665 8.52178 -9.63094 -3.06829 8.17968 -10.0477 -2.22758 
7.85955 -10.4001 -1.34891 7.55982 -10.7002 -0.443057 7.28165 -10.9312 0.488267 
7.02739 -11.105 1.43907 6.79636 -11.2465 2.40138 6.57986 -11.3593 3.37071 
6.36218 -11.426 4.34352 6.13183 -11.4401 5.31531 5.87411 -11.4147 6.28003 
5.56478 -11.3586 7.22761 5.18147 -11.2561 8.14298 4.72339 -11.1042 9.01624 
4.18896 -10.8873 9.82974 3.57157 -10.5931 10.5504 2.85913 -10.1976 11.1118 
2.0723 -9.70206 11.4479 1.25423 -9.14275 11.5174 0.443712 -8.57965 11.3802 
-0.354289 -8.04557 11.1065 -1.14692 -7.54792 10.757 -1.94059 -7.07861 10.3718 
-2.73939 -6.62575 9.97786 -3.54768 -6.18069 9.59519 -4.36559 -5.72847 9.24471 
-5.19099 -5.24824 8.96068 -6.01933 -4.7365 8.75193 -6.84415 -4.19982 8.59412 
-7.66094 -3.64859 8.44116 -8.47299 -3.10131 8.25174 -9.28849 -2.57782 8.0143 
-10.1211 -2.09929 7.7422 -10.9853 -1.68868 7.45672 -11.893 -1.3718 7.18509 
-12.8459 -1.16673 6.9753 -13.8343 -1.10142 6.88746 -14.8454 -1.20859 6.95102 
-15.6181 -1.38182 7.09183 -16.3912 -1.68962 7.27158 -17.234 -2.1111 7.50353 
-18.0547 -2.63139 7.72253 -18.8436 -3.21555 7.89239 -19.6161 -3.83647 7.99711 
-20.3786 -4.47723 8.03678 -21.1359 -5.12368 8.02224 -21.8991 -5.75788 7.98394 
-22.6742 -6.36957 7.96281 -23.4578 -6.96075 7.99813 -24.2421 -7.53993 8.12155 
-25.0176 -8.11495 8.33353 -25.7817 -8.6981 8.58665 -26.5367 -9.30579 8.81966 
-27.2811 -9.94541 9.00014 -28.0187 -10.6076 9.1017 -28.7459 -11.2825 9.08272 
-29.4478 -11.9525 8.90235 -30.1113 -12.5885 8.54802 -30.7216 -13.1692 8.04064 
-31.2645 -13.6947 7.41507 -31.7433 -14.1486 6.69249 -32.174 -14.5526 5.91526 
-32.5628 -14.9022 5.10003 -32.9176 -15.2124 4.25356 -33.2523 -15.4949 3.39132 
-33.5942 -15.6884 2.50416 -33.9488 -15.7823 1.59352 -34.321 -15.8023 0.682314 
-34.7077 -15.7245 -0.22637 -35.0893 -15.5746 -1.13052 -35.4465 -15.2947 -2.01593 
-35.7977 -14.89 -2.85485 -36.155 -14.3929 -3.63704 -36.5266 -13.8358 -4.37063 
-36.9081 -13.2416 -5.07279 -37.2932 -12.6196 -5.75095 -37.682 -11.9844 -6.41649 
-38.07 -11.3455 -7.07985 -38.458 -10.6907 -7.72768 -38.8436 -10.015 -8.35543 
-39.222 -9.32121 -8.96738 -39.5827 -8.59367 -9.54967 -39.921 -7.83098 -10.0996 
-40.237 -7.03926 -10.6211 -40.5246 -6.21235 -11.104 -40.7789 -5.35033 -11.5399 
-41.0041 -4.46129 -11.9346 -41.1953 -3.54833 -12.2892 -41.353 -2.61768 -12.6121 
-41.4722 -1.67252 -12.9065 -41.5497 -0.716843 -13.1791 -41.5933 0.243588 -13.4434 
-41.6115 1.20543 -13.7073 -41.6068 2.16694 -13.974 -41.5806 3.12689 -14.2456 
-41.5344 4.08433 -14.5233 -41.4693 5.03791 -14.8089 -41.3899 5.98534 -15.1062 
-41.426 6.55443 -15.2357 -41.6068 6.65784 -15.1191 -41.6812 7.04288 -15.1316 
-41.7535 7.38084 -15.0652 -41.749 7.90591 -15.1295 -41.7536 8.43301 -15.3004 
-41.8155 8.73634 -15.4371 
LINES 1 131
130 0 1 2 3 4 5 6 7 8 9 10 11 12 13 14 15 16 17 18 19 20 21 22 23 24 25 26 27 28 29 30 31 32 33 34 35 36 37 38 39 40 41 42 43 44 45 46 47 48 49 50 51 52 53 54 55 56 57 58 59 60 61 62 63 64 65 66 67 68 69 70 71 72 73 74 75 76 77 78 79 80 81 82 83 84 85 86 87 88 89 90 91 92 93 94 95 96 97 98 99 100 101 102 103 104 105 106 107 108 109 110 111 112 113 114 115 116 117 118 119 120 121 122 123 124 125 126 127 128 129 

POINT_DATA 130
SCALARS SamplingDistance2Origin float 
LOOKUP_TABLE default
-63 -62 -61 -60 -59 -58 -57 -56 -55 
-54 -53 -52 -51 -50 -49 -48 -47 -46 
-45 -44 -43 -42 -41 -40 -39 -38 -37 
-36 -35 -34 -33 -32 -31 -30 -29 -28 
-27 -26 -25 -24 -23 -22 -21 -20 -19 
-18 -17 -16 -15 -14 -13 -12 -11 -10 
-9 -8 -7 -6 -5 -4 -3 -2 -1 
0 1 2 3 4 5 6 7 8 
9 10 11 12 13 14 15 16 17 
18 19 20 21 22 23 24 25 26 
27 28 29 30 31 32 33 34 35 
36 37 38 39 40 41 42 43 44 
45 46 47 48 49 50 51 52 53 
54 55 56 57 58 59 60 61 62 
63 64 65 66 
