# vtk DataFile Version 4.2
vtk output
ASCII
DATASET POLYDATA
POINTS 99 float
-24.7594 -41.2602 7.52503 -24.9215 -41.1144 7.80041 -25.7064 -41.7501 8.0291 
-25.8339 -41.2811 7.9613 -26.1251 -40.7533 7.71434 -26.5431 -40.06 7.36681 
-27.0333 -39.324 6.71571 -27.4297 -38.569 6.39855 -27.8324 -37.776 6.08499 
-28.2268 -36.9379 5.72367 -28.631 -36.0602 5.38111 -29.0404 -35.1589 5.12201 
-29.531 -34.1314 4.71159 -29.8552 -33.2648 4.78106 -30.1932 -32.3443 4.75405 
-30.4928 -31.4037 4.74434 -30.7388 -30.4497 4.7379 -30.9283 -29.4743 4.71229 
-31.0619 -28.4927 4.69136 -31.1394 -27.5052 4.66714 -31.1579 -26.5148 4.63332 
-31.1078 -25.5259 4.58062 -30.9902 -24.5479 4.5019 -30.8113 -23.5798 4.37656 
-30.5889 -22.6286 4.2186 -30.3285 -21.6865 4.04445 -30.0339 -20.7532 3.87287 
-29.7044 -19.8269 3.7185 -29.3367 -18.9113 3.58084 -28.929 -18.0096 3.46035 
-28.4798 -17.1252 3.35642 -27.9883 -16.2622 3.2681 -27.4523 -15.4251 3.19288 
-26.8622 -14.6253 3.13393 -26.2075 -13.8768 3.09213 -25.4808 -13.1962 3.06064 
-24.695 -12.5851 3.02663 -23.8643 -12.0341 2.98134 -23.0047 -11.5288 2.92346 
-22.1267 -11.0569 2.85447 -21.239 -10.6043 2.7816 -20.347 -10.1605 2.70782 
-19.4529 -9.71864 2.64077 -18.5542 -9.28514 2.58427 -17.6403 -8.88511 2.53489 
-16.6985 -8.55919 2.4926 -15.7268 -8.33783 2.46065 -14.7361 -8.21698 2.44599 
-13.7389 -8.15805 2.45546 -12.7559 -8.14363 2.48152 -11.7995 -8.15874 2.56398 
-10.9566 -8.35826 2.55901 -9.88954 -8.61349 2.66555 -8.94615 -8.93116 2.745 
-8.01029 -9.27153 2.82987 -7.07798 -9.62118 2.91872 -6.14645 -9.97253 3.00866 
-5.2167 -10.3285 3.09643 -4.29391 -10.7026 3.17957 -3.38749 -11.1145 3.25768 
-2.51274 -11.5888 3.32745 -1.68736 -12.1422 3.39377 -0.926119 -12.7808 3.45636 
-0.234399 -13.4939 3.51935 0.393218 -14.2659 3.58548 0.963945 -15.0792 3.65901 
1.48475 -15.9238 3.74859 1.9638 -16.7912 3.86226 2.40686 -17.6695 4.00006 
2.81961 -18.5599 4.17022 3.20472 -19.4549 4.35967 3.56938 -20.3547 4.55948 
3.91085 -21.2621 4.75144 4.21783 -22.1872 4.90919 4.45633 -23.1391 5.0275 
4.59545 -24.1162 5.11401 4.63098 -25.105 5.17831 4.57956 -26.0961 5.23091 
4.46569 -27.0796 5.28279 4.30333 -28.0588 5.34832 4.10801 -29.0259 5.43579 
3.88229 -29.9856 5.56038 3.63003 -30.9278 5.71975 3.34234 -31.8575 5.91581 
3.02616 -32.7651 6.14737 2.67598 -33.6528 6.41432 2.29723 -34.5132 6.72292 
1.89198 -35.3447 7.08002 1.46879 -36.1391 7.49504 1.03645 -36.8892 7.97571 
0.602783 -37.5928 8.52795 0.165292 -38.2508 9.10486 -0.251671 -38.8587 9.59056 
-0.573995 -39.4241 9.9003 -0.891576 -39.9849 10.1289 -1.18647 -40.5557 10.3205 
-1.46275 -41.1223 10.3959 -1.31521 -41.6394 10.0591 -1.22085 -42.0698 9.74403 

LINES 1 100
99 0 1 2 3 4 5 6 7 8 9 10 11 12 13 14 15 16 17 18 19 20 21 22 23 24 25 26 27 28 29 30 31 32 33 34 35 36 37 38 39 40 41 42 43 44 45 46 47 48 49 50 51 52 53 54 55 56 57 58 59 60 61 62 63 64 65 66 67 68 69 70 71 72 73 74 75 76 77 78 79 80 81 82 83 84 85 86 87 88 89 90 91 92 93 94 95 96 97 98 

POINT_DATA 99
SCALARS SamplingDistance2Origin float 
LOOKUP_TABLE default
-50 -49 -48 -47 -46 -45 -44 -43 -42 
-41 -40 -39 -38 -37 -36 -35 -34 -33 
-32 -31 -30 -29 -28 -27 -26 -25 -24 
-23 -22 -21 -20 -19 -18 -17 -16 -15 
-14 -13 -12 -11 -10 -9 -8 -7 -6 
-5 -4 -3 -2 -1 0 1 2 3 
4 5 6 7 8 9 10 11 12 
13 14 15 16 17 18 19 20 21 
22 23 24 25 26 27 28 29 30 
31 32 33 34 35 36 37 38 39 
40 41 42 43 44 45 46 47 48 

