# vtk DataFile Version 4.2
vtk output
ASCII
DATASET POLYDATA
POINTS 64 float
-38.1763 44.8477 -0.871026 -38.1162 44.8787 -1.0225 -37.7069 44.8241 -1.2339 
-36.9024 44.6909 -0.989549 -36.1161 44.463 -0.408349 -35.4293 44.2429 0.266727 
-34.8721 43.957 1.03028 -34.4128 43.5976 1.82042 -34.0074 43.1607 2.62191 
-33.5834 42.6882 3.39569 -33.039 42.2517 4.09199 -32.3378 41.9168 4.68952 
-31.5238 41.7076 5.1847 -30.6753 41.4225 5.54243 -29.9016 40.8711 5.63795 
-29.1656 40.2109 5.56886 -28.3989 39.578 5.43771 -27.621 38.9868 5.27863 
-26.8119 38.4201 5.10699 -25.9917 37.8938 4.9273 -25.1476 37.3858 4.73316 
-24.31 36.8996 4.51956 -23.456 36.4211 4.29369 -22.5973 35.966 4.06656 
-21.7214 35.5407 3.84662 -20.8269 35.1514 3.63417 -19.9151 34.7996 3.42915 
-18.9886 34.4833 3.2321 -18.0481 34.2062 3.04217 -17.0941 33.9721 2.86168 
-16.1282 33.7798 2.69638 -14.992 33.6105 2.58562 -14.2527 33.551 2.34077 
-13.4066 33.6168 2.37294 -12.4362 33.783 2.32133 -11.4624 34.0011 2.33374 
-10.4969 34.2498 2.38504 -9.54243 34.5312 2.46355 -8.60056 34.8462 2.56194 
-7.67094 35.19 2.67744 -6.75283 35.5583 2.80743 -5.84839 35.9536 2.95109 
-4.95976 36.3776 3.10813 -4.08433 36.8238 3.2765 -3.21446 37.2796 3.44823 
-2.34319 37.7371 3.60871 -1.47451 38.2063 3.74605 -0.63225 38.7218 3.87194 
0.155518 39.3229 3.9908 0.887878 39.9808 4.10779 1.5871 40.6873 4.17114 
2.26366 41.3788 4.11007 2.94172 41.9526 3.85251 3.64458 42.3314 3.32819 
4.41889 42.4209 2.81807 5.08571 42.663 2.11669 5.69508 42.9447 1.38703 
6.2654 43.2491 0.627699 6.85438 43.5493 -0.110441 7.52426 43.7725 -0.765273 
8.39374 43.6253 -1.07054 9.29871 43.6193 -1.45462 10.3627 43.66 -1.72544 
10.8637 43.8526 -2.10129 
LINES 1 65
64 0 1 2 3 4 5 6 7 8 9 10 11 12 13 14 15 16 17 18 19 20 21 22 23 24 25 26 27 28 29 30 31 32 33 34 35 36 37 38 39 40 41 42 43 44 45 46 47 48 49 50 51 52 53 54 55 56 57 58 59 60 61 62 63 

POINT_DATA 64
SCALARS SamplingDistance2Origin float 
LOOKUP_TABLE default
-32 -31 -30 -29 -28 -27 -26 -25 -24 
-23 -22 -21 -20 -19 -18 -17 -16 -15 
-14 -13 -12 -11 -10 -9 -8 -7 -6 
-5 -4 -3 -2 -1 0 1 2 3 
4 5 6 7 8 9 10 11 12 
13 14 15 16 17 18 19 20 21 
22 23 24 25 26 27 28 29 30 
31 
