# vtk DataFile Version 4.2
vtk output
ASCII
DATASET POLYDATA
POINTS 66 float
-34.6824 47.3061 -3.43193 -34.1155 47.1096 -3.10692 -33.5803 46.8377 -2.55561 
-33.1908 46.5128 -2.03283 -32.8167 46.2055 -1.57365 -32.46 45.7854 -1.09827 
-32.0977 45.3832 -0.716132 -31.7181 44.7974 -0.267717 -31.2859 44.171 0.11363 
-30.8102 43.4505 0.434521 -30.3073 42.6826 0.666021 -29.7985 41.8587 0.837529 
-29.3436 40.8989 1.19474 -28.9283 39.9694 1.44212 -28.6169 38.997 1.82654 
-28.3616 38.0752 2.07406 -28.2169 37.1596 2.48847 -28.1347 36.2805 2.9905 
-28.0867 35.4633 3.48784 -28.0479 34.6669 4.02824 -28.0071 33.8729 4.58729 
-27.9602 33.0675 5.14146 -27.9071 32.2354 5.66169 -27.8481 31.366 6.12556 
-27.7857 30.4587 6.51739 -27.7154 29.5167 6.8136 -27.6327 28.5517 7.00539 
-27.5351 27.5771 7.08901 -27.418 26.6061 7.0815 -27.2756 25.6471 6.99951 
-27.1016 24.7046 6.85513 -26.8951 23.7843 6.64772 -26.6526 22.7936 6.36591 
-26.3392 21.8393 5.99578 -26.0242 20.9664 5.61925 -25.6655 20.1379 5.21782 
-25.2767 19.3266 4.80271 -24.8706 18.5251 4.38398 -24.4569 17.7213 3.98083 
-24.0276 16.9051 3.63247 -23.5835 16.071 3.41152 -23.199 15.217 3.44858 
-22.9421 14.3601 3.70124 -22.7438 13.4989 4.03079 -22.5094 12.6229 4.33095 
-22.2183 11.7251 4.5607 -21.9019 10.8088 4.70599 -21.5832 9.8787 4.76129 
-21.2801 8.94508 4.77117 -21.033 8.01714 4.79523 -20.8571 7.09519 4.83422 
-20.7347 6.1776 4.82073 -20.6314 5.2748 4.70987 -20.5194 4.40241 4.48415 
-20.3823 3.56342 4.17563 -20.2809 2.73192 3.84259 -20.188 1.86376 3.37427 
-19.9506 1.08706 2.81268 -19.7098 0.24929 2.1588 -19.342 -0.322123 1.43267 
-19.025 -0.827371 0.674202 -18.7353 -1.1527 -0.161565 -18.4668 -1.33573 -0.954983 
-18.2773 -1.51561 -1.45899 -18.0061 -1.47504 -1.80906 -17.7933 -1.3754 -2.05111 

LINES 1 67
66 0 1 2 3 4 5 6 7 8 9 10 11 12 13 14 15 16 17 18 19 20 21 22 23 24 25 26 27 28 29 30 31 32 33 34 35 36 37 38 39 40 41 42 43 44 45 46 47 48 49 50 51 52 53 54 55 56 57 58 59 60 61 62 63 64 65 

POINT_DATA 66
SCALARS SamplingDistance2Origin float 
LOOKUP_TABLE default
-32 -31 -30 -29 -28 -27 -26 -25 -24 
-23 -22 -21 -20 -19 -18 -17 -16 -15 
-14 -13 -12 -11 -10 -9 -8 -7 -6 
-5 -4 -3 -2 -1 0 1 2 3 
4 5 6 7 8 9 10 11 12 
13 14 15 16 17 18 19 20 21 
22 23 24 25 26 27 28 29 30 
31 32 33 
