# vtk DataFile Version 4.2
vtk output
ASCII
DATASET POLYDATA
POINTS 35 float
0.994428 13.8781 18.9623 1.70881 15.2263 18.2322 2.19832 15.3346 17.4871 
2.4732 16.1657 16.318 2.49174 17.1554 15.0326 2.79744 16.7567 14.3432 
3.13528 16.263 13.6083 3.32182 15.8679 12.7576 3.29619 15.4295 11.8937 
3.05341 14.959 11.07 2.65791 14.4801 10.2997 2.19185 14.0107 9.55814 
1.70841 13.5498 8.82128 1.24278 13.1058 8.0645 0.829016 12.6959 7.26374 
0.487363 12.3376 6.40712 0.1971 12.03 5.50837 -0.0876015 11.75 4.57239 
-0.364759 11.4671 3.67361 -0.666142 11.2034 2.75788 -0.980003 10.9335 1.8524 
-1.30981 10.6699 0.947887 -1.65542 10.4127 0.0482565 -2.0247 10.1557 -0.840464 
-2.42901 9.89108 -1.71122 -2.87287 9.615 -2.55808 -3.35567 9.32492 -3.37002 
-3.91844 8.97832 -4.09913 -4.60244 8.56652 -4.67548 -5.3443 8.14168 -5.13069 
-6.12256 7.73263 -5.54931 -6.90262 7.341 -6.00323 -7.41754 6.98941 -6.61367 
-7.77355 6.95322 -7.37439 -8.3424 7.32403 -8.17153 
LINES 1 36
35 0 1 2 3 4 5 6 7 8 9 10 11 12 13 14 15 16 17 18 19 20 21 22 23 24 25 26 27 28 29 30 31 32 33 34 

POINT_DATA 35
SCALARS SamplingDistance2Origin float 
LOOKUP_TABLE default
-18 -17 -16 -15 -14 -13 -12 -11 -10 
-9 -8 -7 -6 -5 -4 -3 -2 -1 
0 1 2 3 4 5 6 7 8 
9 10 11 12 13 14 15 16 
