# vtk DataFile Version 4.2
vtk output
ASCII
DATASET POLYDATA
POINTS 59 float
-23.7607 -0.285982 41.8358 -23.9722 0.109521 41.4398 -24.3243 0.579763 40.6602 
-24.6875 0.908144 39.8103 -25.0984 1.05194 38.9184 -25.4572 1.19989 38.0039 
-25.8193 1.2432 37.0798 -26.1203 1.3907 36.1434 -26.4076 1.50917 35.1944 
-26.671 1.64637 34.2403 -26.9299 1.79733 33.2869 -27.2041 1.96076 32.3406 
-27.5118 2.13966 31.4042 -27.8608 2.32698 30.4992 -28.2533 2.54401 29.6085 
-28.6697 2.77531 28.7305 -29.0903 3.02448 27.859 -29.5032 3.29116 26.9888 
-29.8983 3.57443 26.1155 -30.2588 3.87199 25.2324 -30.5539 4.18302 24.3307 
-30.7495 4.50174 23.406 -30.8393 4.817 22.4636 -30.8766 5.12192 21.5144 
-30.9707 5.41992 20.5581 -31.2376 5.67284 19.6469 -31.57 5.94818 18.7556 
-31.8444 6.19697 17.8341 -32.0293 6.40776 16.8174 -32.167 6.75245 15.8817 
-32.0972 6.71823 14.8814 -31.969 6.82997 13.8219 -31.7339 6.85356 12.8536 
-31.4413 6.81676 11.9018 -31.1347 6.72926 10.9586 -30.8583 6.61965 10.0092 
-30.6334 6.51961 9.04437 -30.4323 6.44682 8.06976 -30.2151 6.39921 7.09598 
-29.9666 6.36601 6.12873 -29.6874 6.33768 5.16962 -29.379 6.30539 4.21963 
-29.0452 6.26236 3.27879 -28.689 6.20581 2.34701 -28.3123 6.13566 1.42444 
-27.919 6.05741 0.50959 -27.512 5.97372 -0.398373 -27.0876 5.88507 -1.29739 
-26.6391 5.79325 -2.18393 -26.151 5.69633 -3.04769 -25.5934 5.58642 -3.8637 
-24.9314 5.4509 -4.59017 -24.1684 5.28383 -5.2051 -23.3486 5.08826 -5.73681 
-22.5246 4.86491 -6.24968 -21.8267 4.6847 -6.80086 -21.3139 4.6967 -7.31316 
-21.2265 4.84264 -7.60359 -20.4534 5.5561 -8.26122 
LINES 1 60
59 0 1 2 3 4 5 6 7 8 9 10 11 12 13 14 15 16 17 18 19 20 21 22 23 24 25 26 27 28 29 30 31 32 33 34 35 36 37 38 39 40 41 42 43 44 45 46 47 48 49 50 51 52 53 54 55 56 57 58 

POINT_DATA 59
SCALARS SamplingDistance2Origin float 
LOOKUP_TABLE default
-29 -28 -27 -26 -25 -24 -23 -22 -21 
-20 -19 -18 -17 -16 -15 -14 -13 -12 
-11 -10 -9 -8 -7 -6 -5 -4 -3 
-2 -1 0 1 2 3 4 5 6 
7 8 9 10 11 12 13 14 15 
16 17 18 19 20 21 22 23 24 
25 26 27 28 29 
