# vtk DataFile Version 4.2
vtk output
ASCII
DATASET POLYDATA
POINTS 89 float
-0.24369 1.77721 36.746 -0.203904 1.16347 35.6517 -0.0619992 1.11186 34.588 
0.178154 1.38277 33.6502 0.417102 1.52391 32.7014 0.701779 1.66857 31.7646 
1.03758 1.81759 30.8444 1.41162 1.9757 29.9397 1.80472 2.15346 29.0462 
2.19531 2.36445 28.158 2.57157 2.61724 27.2733 2.93219 2.91171 26.3932 
3.27717 3.23641 25.5152 3.6001 3.58184 24.6355 3.89021 3.94154 23.7498 
4.13798 4.30484 22.8533 4.35683 4.66261 21.9488 4.57919 5.01136 21.0447 
4.80827 5.3541 20.1411 5.01588 5.68772 19.2276 5.17368 5.99851 18.2948 
5.26657 6.273 17.3413 5.28746 6.52971 16.3778 5.2438 6.71437 15.3983 
5.14358 6.8519 14.4144 5.00369 6.94729 13.4299 4.84306 7.01066 12.4463 
4.68135 7.04855 11.4624 4.53698 7.06246 10.4764 4.41569 7.05508 9.48841 
4.30443 7.03417 8.50034 4.1814 7.01037 7.5138 4.03095 6.99106 6.52964 
3.8488 6.97914 5.54902 3.63784 6.97707 4.57305 3.40278 6.98702 3.60221 
3.14621 7.00746 2.63695 2.8731 7.0351 1.67655 2.58697 7.06739 0.72026 
2.28848 7.10074 -0.232049 1.97734 7.13245 -1.1802 1.65673 7.16249 -2.12506 
1.32713 7.18989 -3.0665 0.989303 7.18948 -4.0028 0.55047 7.37001 -4.82511 
0.31041 7.16697 -5.63203 -0.180591 7.16278 -6.55496 -0.687462 7.07881 -7.40691 
-1.23829 6.93129 -8.22391 -1.80176 6.73483 -9.02498 -2.34753 6.52361 -9.83533 
-2.87673 6.31454 -10.6573 -3.41596 6.10634 -11.4723 -3.99271 5.88988 -12.2582 
-4.6117 5.65521 -13.0058 -5.25364 5.39808 -13.7266 -5.89139 5.12 -14.4433 
-6.50576 4.82768 -15.1743 -7.08106 4.5322 -15.9347 -7.60014 4.24799 -16.7381 
-8.05196 3.98786 -17.5884 -8.43232 3.7612 -18.4825 -8.74812 3.56726 -19.4091 
-9.00435 3.40526 -20.3601 -9.20575 3.28064 -21.3297 -9.35743 3.19385 -22.3125 
-9.47396 3.12948 -23.3022 -9.57921 3.06005 -24.2929 -9.69164 2.95815 -25.2799 
-9.80925 2.80192 -26.2589 -9.92871 2.57778 -27.2254 -10.0328 2.2522 -28.1693 
-10.1336 1.83587 -29.0697 -10.2357 1.31949 -29.916 -10.3578 0.709877 -30.6948 
-10.516 0.0398293 -31.4175 -10.7113 -0.601719 -32.1546 -10.9425 -1.05665 -32.9924 
-11.1699 -1.35595 -33.9086 -11.3794 -1.56277 -34.8602 -11.5925 -1.70749 -35.8251 
-11.8082 -1.83538 -36.7927 -12.0079 -1.9993 -37.7575 -12.1857 -2.23529 -38.7105 
-12.3391 -2.5528 -39.644 -12.453 -2.91674 -40.5671 -12.5109 -3.28718 -41.4923 
-12.728 -3.40028 -42.149 -12.9428 -3.12389 -42.4879 
LINES 1 90
89 0 1 2 3 4 5 6 7 8 9 10 11 12 13 14 15 16 17 18 19 20 21 22 23 24 25 26 27 28 29 30 31 32 33 34 35 36 37 38 39 40 41 42 43 44 45 46 47 48 49 50 51 52 53 54 55 56 57 58 59 60 61 62 63 64 65 66 67 68 69 70 71 72 73 74 75 76 77 78 79 80 81 82 83 84 85 86 87 88 

POINT_DATA 89
SCALARS SamplingDistance2Origin float 
LOOKUP_TABLE default
-44 -43 -42 -41 -40 -39 -38 -37 -36 
-35 -34 -33 -32 -31 -30 -29 -28 -27 
-26 -25 -24 -23 -22 -21 -20 -19 -18 
-17 -16 -15 -14 -13 -12 -11 -10 -9 
-8 -7 -6 -5 -4 -3 -2 -1 0 
1 2 3 4 5 6 7 8 9 
10 11 12 13 14 15 16 17 18 
19 20 21 22 23 24 25 26 27 
28 29 30 31 32 33 34 35 36 
37 38 39 40 41 42 43 44 
