# vtk DataFile Version 4.2
vtk output
ASCII
DATASET POLYDATA
POINTS 95 float
-23.6597 17.3094 33.8754 -23.8358 18.2866 33.1676 -24.3563 16.7503 32.2274 
-24.8651 15.3466 31.6506 -25.177 16.1532 30.4979 -25.5197 16.7637 29.5294 
-25.9284 16.3717 28.6301 -26.3295 16.3398 27.7251 -26.7409 16.3144 26.8228 
-27.1552 16.2895 25.9201 -27.5631 16.2622 25.0135 -27.951 16.2423 24.0974 
-28.2983 16.2429 23.1651 -28.5837 16.2622 22.2129 -28.7954 16.2871 21.2435 
-29.0701 16.2693 20.3279 -29.4893 16.207 19.5058 -30.0353 16.1293 18.7369 
-30.6482 16.0632 17.9625 -31.211 16.0285 17.1503 -31.7036 16.0204 16.2931 
-32.104 16.0324 15.3892 -32.3943 16.0443 14.4446 -32.5439 16.0244 13.4702 
-32.5281 15.9382 12.4915 -32.3179 15.7605 11.5486 -31.9232 15.4838 10.6898 
-31.4113 15.1194 9.92677 -30.8571 14.7168 9.20903 -30.3009 14.3083 8.49371 
-29.7672 13.904 7.75907 -29.2769 13.5161 6.98749 -28.8443 13.1541 6.17155 
-28.4746 12.8252 5.31163 -28.1549 12.5305 4.41813 -27.8654 12.2651 3.50314 
-27.5933 12.0216 2.57506 -27.331 11.7929 1.63959 -27.0762 11.5705 0.700376 
-26.82 11.3401 -0.236139 -26.5462 11.0894 -1.16178 -26.2459 10.8157 -2.07236 
-25.9353 10.53 -2.97638 -25.6347 10.2463 -3.88465 -25.3552 9.97107 -4.80203 
-25.0889 9.69859 -5.72384 -24.8051 9.40808 -6.63424 -24.486 9.08397 -7.4668 
-24.1277 8.69779 -8.18114 -23.7836 8.33146 -8.7332 -23.2069 7.62981 -9.48138 
-22.7121 6.97154 -10.0418 -22.2544 6.27413 -10.5816 -21.8415 5.55919 -11.1322 
-21.4323 4.85248 -11.6986 -20.9947 4.16413 -12.267 -20.5327 3.49477 -12.8407 
-20.066 2.84527 -13.4379 -19.6117 2.21534 -14.0624 -19.1742 1.6395 -14.7431 
-18.7731 1.11309 -15.472 -18.4388 0.644736 -16.2651 -18.1916 0.213385 -17.119 
-18.0115 -0.212769 -17.9992 -17.8747 -0.64606 -18.8863 -17.7659 -1.08365 -19.7765 
-17.684 -1.51519 -20.6734 -17.6385 -1.92886 -21.5816 -17.6249 -2.31706 -22.5024 
-17.6293 -2.67889 -23.4342 -17.6125 -3.01139 -24.3766 -17.553 -3.29915 -25.3314 
-17.4437 -3.52402 -26.2981 -17.2573 -3.67515 -27.2659 -16.9562 -3.74282 -28.2111 
-16.5286 -3.7197 -29.1069 -16.0637 -3.58347 -29.9732 -15.6815 -3.27693 -30.8283 
-15.3941 -2.8184 -31.6534 -15.1599 -2.43028 -32.5127 -14.9529 -2.36477 -33.4637 
-14.7799 -2.47238 -34.4388 -14.6353 -2.61073 -35.4169 -14.5215 -2.77561 -36.3948 
-14.4382 -2.98005 -37.3676 -14.386 -3.24 -38.3291 -14.3618 -3.55599 -39.2756 
-14.3657 -3.91649 -40.2075 -14.3932 -4.29676 -41.1316 -14.431 -4.68174 -42.0532 
-14.468 -5.06981 -42.9722 -14.4851 -5.48531 -43.873 -14.4662 -5.95052 -44.729 
-14.4069 -6.47931 -45.4863 -15.9982 -5.59386 -45.8745 
LINES 1 96
95 0 1 2 3 4 5 6 7 8 9 10 11 12 13 14 15 16 17 18 19 20 21 22 23 24 25 26 27 28 29 30 31 32 33 34 35 36 37 38 39 40 41 42 43 44 45 46 47 48 49 50 51 52 53 54 55 56 57 58 59 60 61 62 63 64 65 66 67 68 69 70 71 72 73 74 75 76 77 78 79 80 81 82 83 84 85 86 87 88 89 90 91 92 93 94 

POINT_DATA 95
SCALARS SamplingDistance2Origin float 
LOOKUP_TABLE default
-48 -47 -46 -45 -44 -43 -42 -41 -40 
-39 -38 -37 -36 -35 -34 -33 -32 -31 
-30 -29 -28 -27 -26 -25 -24 -23 -22 
-21 -20 -19 -18 -17 -16 -15 -14 -13 
-12 -11 -10 -9 -8 -7 -6 -5 -4 
-3 -2 -1 0 1 2 3 4 5 
6 7 8 9 10 11 12 13 14 
15 16 17 18 19 20 21 22 23 
24 25 26 27 28 29 30 31 32 
33 34 35 36 37 38 39 40 41 
42 43 44 45 46 
