# vtk DataFile Version 4.2
vtk output
ASCII
DATASET POLYDATA
POINTS 42 float
-27.9672 14.7836 19.7433 -28.6316 14.8348 20.0401 -29.0644 16.3487 19.306 
-29.4329 17.0153 18.503 -29.9769 17.0994 17.7068 -30.4305 17.3636 16.8088 
-30.4456 19.1669 15.228 -30.5054 19.9799 13.9906 -30.7579 19.8732 13.0951 
-30.9445 19.5084 12.2495 -30.9695 19.0016 11.4317 -30.8053 18.4974 10.6528 
-30.4833 17.9078 9.95962 -30.0529 17.3033 9.31766 -29.5656 16.7138 8.69021 
-29.0591 16.1423 8.05655 -28.5605 15.5862 7.40178 -28.0854 15.0492 6.71464 
-27.648 14.5387 5.98631 -27.2615 14.0671 5.20782 -26.9208 13.6412 4.38288 
-26.6131 13.2422 3.49102 -26.2343 12.9313 2.51719 -25.9538 12.5565 1.50711 
-25.6757 12.1745 0.629918 -25.3761 11.8495 -0.263456 -25.0473 11.5035 -1.13782 
-24.6899 11.133 -1.9901 -24.3177 10.7429 -2.82582 -23.9375 10.3347 -3.64589 
-23.5297 9.90144 -4.43368 -23.0325 9.4427 -5.14455 -22.3913 9.00641 -5.74483 
-21.6747 8.63764 -6.29026 -20.9501 8.31924 -6.8395 -20.216 8.11525 -7.41442 
-19.4802 8.11051 -7.99281 -18.785 8.20389 -8.65355 -18.0088 8.036 -9.22434 
-17.3437 7.71952 -9.71465 -16.712 7.27369 -10.0443 -16.0589 6.67455 -10.3886 

LINES 1 43
42 0 1 2 3 4 5 6 7 8 9 10 11 12 13 14 15 16 17 18 19 20 21 22 23 24 25 26 27 28 29 30 31 32 33 34 35 36 37 38 39 40 41 

POINT_DATA 42
SCALARS SamplingDistance2Origin float 
LOOKUP_TABLE default
-22 -21 -20 -19 -18 -17 -16 -15 -14 
-13 -12 -11 -10 -9 -8 -7 -6 -5 
-4 -3 -2 -1 0 1 2 3 4 
5 6 7 8 9 10 11 12 13 
14 15 16 17 18 19 
