# vtk DataFile Version 4.2
vtk output
ASCII
DATASET POLYDATA
POINTS 61 float
-8.19234 -3.2327 -8.6392 -8.13059 -2.95699 -8.43035 -7.52094 -2.22234 -7.96548 
-7.09718 -1.8069 -7.58056 -6.30449 -1.18891 -7.1317 -5.95037 -0.96074 -6.45441 
-5.10468 -0.694503 -5.92098 -5.17187 -0.609316 -5.11589 -4.03308 -0.427268 -4.6753 
-3.19562 -0.232604 -4.18145 -2.36058 -0.00147406 -3.69196 -1.53536 0.243264 -3.18873 
-0.723805 0.4749 -2.65674 0.0624443 0.663928 -2.07502 0.800657 0.785838 -1.42694 
1.42349 0.802743 -0.688083 1.97915 0.746548 0.0881023 2.41225 0.620806 0.931606 
2.72579 0.449945 1.82646 2.92942 0.244617 2.75604 3.05077 0.0129227 3.69589 
3.12612 -0.250224 4.64007 3.16939 -0.546947 5.57551 3.24398 -0.912529 6.48456 
3.43712 -1.36737 7.34252 3.71511 -1.84998 8.16814 4.00409 -2.329 8.99392 
4.26652 -2.79598 9.83599 4.49494 -3.24935 10.6958 4.6753 -3.69787 11.5662 
4.80181 -4.1555 12.4489 4.73596 -4.48281 13.2507 4.59384 -4.94033 14.1746 
4.29948 -5.33115 15.0337 3.90468 -5.70709 15.8526 3.47081 -6.0232 16.6804 
3.11279 -6.43456 17.4655 2.85103 -6.88241 18.2753 2.70438 -7.40725 19.1074 
2.56933 -7.9968 19.8982 2.42328 -8.59965 20.6767 2.27518 -9.19799 21.4583 
2.12733 -9.78891 22.2467 1.97514 -10.3747 23.0392 1.81287 -10.957 23.8333 
1.64045 -11.5381 24.627 1.45963 -12.1194 25.4186 1.27414 -12.7004 26.2089 
1.08815 -13.2823 26.9984 0.902303 -13.8652 27.7876 0.709878 -14.4458 28.5773 
0.502323 -15.0196 29.3681 0.274939 -15.5797 30.1629 0.0310475 -16.194 30.9173 
-0.228031 -16.7101 31.7249 -0.590778 -18.1584 31.7644 -1.0052 -19.8197 32.0487 
-1.36217 -20.3855 32.7672 -1.39919 -21.8587 32.8758 -1.24535 -23.3942 32.9928 
-1.24835 -23.7905 33.2924 
LINES 1 62
61 0 1 2 3 4 5 6 7 8 9 10 11 12 13 14 15 16 17 18 19 20 21 22 23 24 25 26 27 28 29 30 31 32 33 34 35 36 37 38 39 40 41 42 43 44 45 46 47 48 49 50 51 52 53 54 55 56 57 58 59 60 

POINT_DATA 61
SCALARS SamplingDistance2Origin float 
LOOKUP_TABLE default
-30 -29 -28 -27 -26 -25 -24 -23 -22 
-21 -20 -19 -18 -17 -16 -15 -14 -13 
-12 -11 -10 -9 -8 -7 -6 -5 -4 
-3 -2 -1 0 1 2 3 4 5 
6 7 8 9 10 11 12 13 14 
15 16 17 18 19 20 21 22 23 
24 25 26 27 28 29 30 
