# vtk DataFile Version 4.2
vtk output
ASCII
DATASET POLYDATA
POINTS 80 float
-26.3242 0.695727 37.1662 -26.4562 0.885963 36.5945 -26.6377 0.247808 35.3274 
-26.9069 0.324275 34.3928 -27.2474 0.440168 33.4027 -27.5689 0.512814 32.4653 
-27.9156 0.599422 31.5387 -28.2903 0.701727 30.6239 -28.6968 0.831045 29.7251 
-29.1254 1.00225 28.8422 -29.5639 1.21461 27.9722 -30.0033 1.46049 27.1105 
-30.4251 1.76323 26.248 -30.8297 2.04793 25.3805 -31.187 2.34462 24.4964 
-31.4795 2.6573 23.5941 -31.7049 2.98417 22.6776 -31.9063 3.32086 21.765 
-32.1382 3.70434 20.8643 -32.4005 4.06372 19.9774 -32.6326 4.41171 19.0766 
-32.7985 4.7282 18.1496 -32.8808 5.0035 17.1983 -32.8829 5.23493 16.2311 
-32.813 5.42103 15.2544 -32.6871 5.5706 14.2756 -32.513 5.68715 13.2996 
-32.3082 5.76906 12.3277 -32.0873 5.8052 11.3594 -31.8751 5.79784 10.3912 
-31.6877 5.76471 9.41554 -31.5159 5.73197 8.44002 -31.3345 5.71455 7.46283 
-31.1275 5.71079 6.48818 -30.8929 5.71725 5.5182 -30.6336 5.72899 4.55383 
-30.3514 5.74432 3.59572 -30.0499 5.76063 2.64373 -29.7302 5.77132 1.69778 
-29.4021 5.77328 0.780964 -29.0823 5.77315 -0.066418 -28.7763 5.75027 -0.893663 
-28.3774 5.73255 -1.90761 -27.9947 5.69988 -2.82891 -27.5782 5.65632 -3.73448 
-27.1032 5.60315 -4.60956 -26.5575 5.52235 -5.43662 -25.9313 5.39675 -6.1969 
-25.2418 5.22686 -6.89229 -24.5042 5.02585 -7.52788 -23.7246 4.80325 -8.10248 
-22.9341 4.51543 -8.62747 -22.2649 3.98133 -9.10464 -21.7827 3.21913 -9.52103 
-21.3514 2.43442 -9.9606 -20.9229 1.68926 -10.4595 -20.4815 1.01742 -11.0375 
-20.0262 0.452117 -11.714 -19.5815 -0.0198574 -12.4691 -19.1911 -0.387662 -13.3066 
-18.8963 -0.670779 -14.2146 -18.7072 -0.926892 -15.1595 -18.5919 -1.20245 -16.1093 
-18.5212 -1.51418 -17.0527 -18.4726 -1.85765 -17.9876 -18.4314 -2.23034 -18.9124 
-18.3921 -2.62568 -19.8279 -18.3657 -3.03391 -20.7384 -18.3638 -3.44017 -21.6501 
-18.3868 -3.82931 -22.5689 -18.4332 -4.19071 -23.4981 -18.487 -4.50743 -24.4424 
-18.5271 -4.76563 -25.4037 -18.5396 -4.96512 -26.3785 -18.5106 -5.11982 -27.36 
-18.418 -5.21084 -28.3426 -18.2765 -5.18515 -29.3192 -18.1909 -5.00925 -30.2611 
-18.4209 -5.1925 -31.0088 -18.5452 -5.45861 -31.2678 
LINES 1 81
80 0 1 2 3 4 5 6 7 8 9 10 11 12 13 14 15 16 17 18 19 20 21 22 23 24 25 26 27 28 29 30 31 32 33 34 35 36 37 38 39 40 41 42 43 44 45 46 47 48 49 50 51 52 53 54 55 56 57 58 59 60 61 62 63 64 65 66 67 68 69 70 71 72 73 74 75 76 77 78 79 

POINT_DATA 80
SCALARS SamplingDistance2Origin float 
LOOKUP_TABLE default
-40 -39 -38 -37 -36 -35 -34 -33 -32 
-31 -30 -29 -28 -27 -26 -25 -24 -23 
-22 -21 -20 -19 -18 -17 -16 -15 -14 
-13 -12 -11 -10 -9 -8 -7 -6 -5 
-4 -3 -2 -1 0 1 2 3 4 
5 6 7 8 9 10 11 12 13 
14 15 16 17 18 19 20 21 22 
23 24 25 26 27 28 29 30 31 
32 33 34 35 36 37 38 39 
