# vtk DataFile Version 4.2
vtk output
ASCII
DATASET POLYDATA
POINTS 99 float
-37.8772 44.486 -2.1236 -38.0247 44.6511 -2.55745 -37.5394 44.9051 -2.65446 
-38.0909 44.1094 -2.82977 -38.0093 43.7177 -2.99473 -37.1848 43.7243 -2.603 
-36.321 44.036 -2.27411 -35.5247 43.9615 -1.64952 -34.7622 43.9524 -1.14216 
-33.7687 44.3625 -1.01593 -32.9926 44.3848 -0.817626 -32.2351 44.0787 -0.534205 
-31.6389 43.3185 -0.114853 -31.0919 42.5216 0.0904227 -30.5758 41.6867 0.183578 
-30.0882 40.8226 0.234634 -29.6549 39.9319 0.27585 -29.3112 39.0066 0.328206 
-29.0791 38.0465 0.382565 -28.9509 37.0671 0.416725 -28.9104 36.0772 0.433603 
-28.9271 35.0842 0.44225 -28.9553 34.0891 0.462727 -28.9333 33.0963 0.515823 
-28.8029 32.1214 0.607497 -28.5477 31.1801 0.708955 -28.1914 30.2809 0.771286 
-27.7818 29.391 0.801005 -27.3624 28.4995 0.781777 -26.9497 27.6039 0.7121 
-26.5491 26.7058 0.599991 -26.1632 25.8067 0.44833 -25.7978 24.9073 0.257248 
-25.4629 24.0071 0.0289323 -25.1651 23.1355 -0.239039 -24.9162 22.256 -0.546468 
-24.7275 21.3574 -0.898559 -24.6019 20.4509 -1.30137 -24.517 19.572 -1.74909 
-24.4647 18.7266 -2.24448 -24.4279 17.922 -2.7939 -24.3736 17.1683 -3.40786 
-24.2427 16.4813 -4.08629 -24.0131 15.8636 -4.81672 -23.7162 15.3099 -5.57458 
-23.4074 14.7995 -6.34331 -23.097 14.3178 -7.11167 -22.7614 13.8392 -7.86284 
-22.3724 13.3376 -8.57844 -21.9305 12.8237 -9.24642 -21.4671 12.338 -9.91421 
-20.926 11.844 -10.4468 -20.3446 11.2846 -11.1631 -19.8156 10.7086 -11.7642 
-19.341 10.0507 -12.3212 -18.9341 9.31535 -12.8214 -18.5739 8.54425 -13.2928 
-18.2408 7.7732 -13.7818 -17.9174 7.00756 -14.2886 -17.5887 6.22976 -14.7726 
-17.2505 5.41952 -15.1494 -16.928 4.5751 -15.4444 -16.6582 3.70616 -15.7506 
-16.4844 2.85986 -16.1506 -16.3991 2.07204 -16.6739 -16.3455 1.34246 -17.3018 
-16.2905 0.642794 -17.9838 -16.2293 -0.0408664 -18.6853 -16.1693 -0.710323 -19.3971 
-16.1254 -1.35778 -20.1372 -16.099 -1.9549 -20.9186 -16.0862 -2.4921 -21.7459 
-16.0767 -2.97412 -22.6127 -16.053 -3.4027 -23.4997 -16.0113 -3.78444 -24.4171 
-15.9333 -4.11482 -25.3561 -15.8038 -4.39312 -26.2993 -15.6133 -4.61459 -27.2484 
-15.3646 -4.76066 -28.1913 -15.1088 -4.79695 -29.1395 -14.9059 -4.69584 -30.0885 
-14.7761 -4.45113 -31.0277 -14.6909 -4.15857 -31.944 -14.6118 -3.97504 -32.8826 
-14.5251 -3.98003 -33.8467 -14.4402 -4.10557 -34.8211 -14.3648 -4.27213 -35.7991 
-14.304 -4.46677 -36.7722 -14.2618 -4.69219 -37.7385 -14.2446 -4.94594 -38.6976 
-14.2579 -5.20874 -39.6563 -14.3017 -5.4762 -40.602 -14.4278 -5.79223 -41.4111 
-14.8156 -6.05391 -41.9496 -15.1876 -6.13445 -42.5195 -15.4975 -6.24129 -43.0783 
-15.5772 -6.71164 -43.2649 -15.5454 -7.30883 -43.5669 -15.5447 -7.47347 -43.7611 

LINES 1 100
99 0 1 2 3 4 5 6 7 8 9 10 11 12 13 14 15 16 17 18 19 20 21 22 23 24 25 26 27 28 29 30 31 32 33 34 35 36 37 38 39 40 41 42 43 44 45 46 47 48 49 50 51 52 53 54 55 56 57 58 59 60 61 62 63 64 65 66 67 68 69 70 71 72 73 74 75 76 77 78 79 80 81 82 83 84 85 86 87 88 89 90 91 92 93 94 95 96 97 98 

POINT_DATA 99
SCALARS SamplingDistance2Origin float 
LOOKUP_TABLE default
-50 -49 -48 -47 -46 -45 -44 -43 -42 
-41 -40 -39 -38 -37 -36 -35 -34 -33 
-32 -31 -30 -29 -28 -27 -26 -25 -24 
-23 -22 -21 -20 -19 -18 -17 -16 -15 
-14 -13 -12 -11 -10 -9 -8 -7 -6 
-5 -4 -3 -2 -1 0 1 2 3 
4 5 6 7 8 9 10 11 12 
13 14 15 16 17 18 19 20 21 
22 23 24 25 26 27 28 29 30 
31 32 33 34 35 36 37 38 39 
40 41 42 43 44 45 46 47 48 

