# vtk DataFile Version 4.2
vtk output
ASCII
DATASET POLYDATA
POINTS 53 float
-26.1825 -8.35063 37.755 -26.6462 -9.1118 36.5864 -27.369 -10.4726 35.1136 
-27.513 -9.97236 34.2938 -27.5013 -9.12364 33.5531 -27.7534 -8.75442 32.6885 
-28.0261 -8.4143 31.8132 -28.3032 -8.07747 30.9446 -28.5878 -7.73629 30.0778 
-28.8779 -7.38577 29.2142 -29.1747 -7.03299 28.3496 -29.4762 -6.68686 27.4803 
-29.7796 -6.34376 26.6068 -30.0827 -5.99799 25.7316 -30.3821 -5.64494 24.8565 
-30.6717 -5.28033 23.9811 -30.9364 -4.89817 23.1035 -31.1544 -4.49397 22.2215 
-31.298 -4.05974 21.3371 -31.3727 -3.59003 20.4622 -31.4397 -3.09139 19.6054 
-31.5578 -2.59313 18.7574 -31.7199 -2.12988 17.8951 -31.8653 -1.71319 17.003 
-31.909 -1.32606 16.0892 -31.8354 -0.943263 15.1724 -31.6843 -0.580083 14.3049 
-31.4789 -0.208604 13.3899 -31.2444 0.129824 12.4876 -30.978 0.434986 11.5769 
-30.6785 0.706168 10.6667 -30.3741 0.955152 9.75296 -30.1302 1.196 8.821 
-29.9853 1.40406 7.85806 -29.8522 1.558 6.88217 -29.6462 1.67405 5.91589 
-29.3425 1.75273 4.974 -28.9382 1.78836 4.07187 -28.4365 1.78933 3.21938 
-27.8457 1.7719 2.42489 -27.1921 1.74429 1.67828 -26.5049 1.69987 0.960017 
-25.8096 1.62513 0.250086 -25.1174 1.51143 -0.458083 -24.4336 1.35947 -1.16557 
-23.7607 1.17408 -1.87323 -23.0913 0.973012 -2.57881 -22.4179 0.776791 -3.28062 
-21.7461 0.602228 -3.98587 -21.1498 0.504745 -4.70018 -20.6922 0.774162 -5.35938 
-20.3194 0.883336 -6.06852 -19.8072 1.27172 -6.56652 
LINES 1 54
53 0 1 2 3 4 5 6 7 8 9 10 11 12 13 14 15 16 17 18 19 20 21 22 23 24 25 26 27 28 29 30 31 32 33 34 35 36 37 38 39 40 41 42 43 44 45 46 47 48 49 50 51 52 

POINT_DATA 53
SCALARS SamplingDistance2Origin float 
LOOKUP_TABLE default
-26 -25 -24 -23 -22 -21 -20 -19 -18 
-17 -16 -15 -14 -13 -12 -11 -10 -9 
-8 -7 -6 -5 -4 -3 -2 -1 0 
1 2 3 4 5 6 7 8 9 
10 11 12 13 14 15 16 17 18 
19 20 21 22 23 24 25 26 
