# vtk DataFile Version 4.2
vtk output
ASCII
DATASET POLYDATA
POINTS 65 float
4.37096 49.6698 -4.94217 6.08598 47.6731 -3.93415 5.53529 47.4592 -3.58369 
5.37409 46.9974 -3.10148 4.94769 46.7196 -2.76486 4.49092 46.5118 -2.47656 
4.16959 46.0201 -2.05536 3.8711 45.5076 -1.647 3.53124 44.8112 -1.15175 
3.19138 44.0976 -0.725378 2.81069 43.3455 -0.372066 2.38521 42.563 -0.0986556 
1.92771 41.7482 0.100687 1.48007 40.8903 0.261229 1.07498 40.0056 0.371011 
0.76917 39.1078 0.554601 0.589266 38.2454 0.893398 0.499532 37.4391 1.37458 
0.447801 36.6762 1.9435 0.404146 35.918 2.53646 0.36167 35.1388 3.1206 
0.318565 34.3277 3.67442 0.272067 33.4776 4.17953 0.218035 32.5923 4.62731 
0.150899 31.6742 4.99967 0.0660252 30.7309 5.28002 -0.0449695 29.7691 5.44753 
-0.188932 28.8032 5.5022 -0.378041 27.8453 5.45451 -0.619397 26.9049 5.33146 
-0.915024 25.9928 5.14826 -1.28471 25.0166 4.8852 -1.68143 24.1634 4.60682 
-2.10155 23.3201 4.28216 -2.5326 22.4937 3.93398 -2.96905 21.6782 3.57029 
-3.40239 20.8649 3.20043 -3.82255 20.0451 2.83028 -4.23301 19.2132 2.47692 
-4.64713 18.3615 2.18526 -5.06272 17.4901 2.03404 -5.40787 16.6127 2.13205 
-5.64495 15.7508 2.42245 -5.86425 14.8978 2.75101 -6.1395 14.0324 3.03074 
-6.46294 13.149 3.24714 -6.79958 12.2465 3.39926 -7.13234 11.3246 3.49027 
-7.45101 10.3896 3.54684 -7.71159 9.43848 3.6183 -7.88069 8.47861 3.72209 
-7.9635 7.51941 3.79895 -8.00368 6.57665 3.79706 -8.04155 5.66326 3.69666 
-8.11578 4.7789 3.5108 -8.0739 3.88784 3.2155 -8.23517 3.02261 2.78459 
-8.50871 2.21081 2.3266 -8.8122 1.40487 1.8411 -9.1088 0.685198 1.3011 
-9.30529 0.005269 0.891514 -9.68481 -0.220886 -0.0610391 -10.0617 -0.149164 -0.972166 
-10.3322 0.13028 -1.7051 -10.4423 0.190903 -2.1807 
LINES 1 66
65 0 1 2 3 4 5 6 7 8 9 10 11 12 13 14 15 16 17 18 19 20 21 22 23 24 25 26 27 28 29 30 31 32 33 34 35 36 37 38 39 40 41 42 43 44 45 46 47 48 49 50 51 52 53 54 55 56 57 58 59 60 61 62 63 64 

POINT_DATA 65
SCALARS SamplingDistance2Origin float 
LOOKUP_TABLE default
-31 -30 -29 -28 -27 -26 -25 -24 -23 
-22 -21 -20 -19 -18 -17 -16 -15 -14 
-13 -12 -11 -10 -9 -8 -7 -6 -5 
-4 -3 -2 -1 0 1 2 3 4 
5 6 7 8 9 10 11 12 13 
14 15 16 17 18 19 20 21 22 
23 24 25 26 27 28 29 30 31 
32 33 
