# vtk DataFile Version 4.2
vtk output
ASCII
DATASET POLYDATA
POINTS 91 float
-3.62324 18.0348 32.5365 -3.26662 16.7198 32.0633 -2.94241 17.0234 31.1456 
-2.56891 16.9454 30.242 -2.1901 16.9191 29.3216 -1.80266 16.8833 28.4074 
-1.4086 16.8405 27.4987 -1.02509 16.8955 26.5719 -0.62272 16.8484 25.669 
-0.212535 16.8007 24.7704 0.194551 16.756 23.8696 0.572217 16.7083 22.9555 
0.886285 16.6527 22.0174 1.11568 16.5776 21.0565 1.3163 16.3844 20.119 
1.66443 16.1162 19.2699 2.17741 15.889 18.4853 2.75042 15.6827 17.7095 
3.28355 15.521 16.8943 3.74441 15.4088 16.0283 4.10898 15.3468 15.1129 
4.35015 15.3051 14.1564 4.43261 15.2331 13.1754 4.34464 15.0957 12.2009 
4.10485 14.8895 11.2608 3.75163 14.6251 10.3708 3.31357 14.3095 9.53803 
2.84097 13.9684 8.73551 2.37067 13.621 7.93474 1.92833 13.2849 7.11445 
1.53299 12.9739 6.26144 1.18676 12.6933 5.37575 0.882129 12.4421 4.46354 
0.603719 12.2119 3.53531 0.338358 11.9948 2.59893 0.0763229 11.7832 1.65987 
-0.185677 11.5746 0.719842 -0.446383 11.3662 -0.220538 -0.711957 11.1461 -1.15636 
-0.996209 10.9052 -2.08093 -1.30338 10.6468 -2.9936 -1.61727 10.3874 -3.90432 
-1.92319 10.138 -4.82057 -2.22225 9.89296 -5.73978 -2.57854 9.6071 -6.7681 
-2.86728 9.30034 -7.4691 -3.24945 8.96827 -8.1929 -3.73297 8.47852 -8.86882 
-4.27041 7.88886 -9.45981 -4.79581 7.21795 -9.97129 -5.2616 6.47808 -10.4358 
-5.66175 5.70139 -10.8982 -6.03816 4.92107 -11.3797 -6.43092 4.16434 -11.8881 
-6.86021 3.44936 -12.4278 -7.31212 2.77417 -12.9986 -7.77841 2.16649 -13.6324 
-8.23559 1.62651 -14.3287 -8.65661 1.16701 -15.0939 -9.00701 0.757548 -15.9175 
-9.27091 0.379399 -16.7962 -9.45806 -0.00183565 -17.6974 -9.58379 -0.407888 -18.5996 
-9.65823 -0.842796 -19.4948 -9.69284 -1.29661 -20.3837 -9.68501 -1.75028 -21.2739 
-9.64154 -2.18304 -22.1737 -9.5775 -2.58123 -23.0881 -9.53409 -2.93774 -24.0206 
-9.54387 -3.24384 -24.9712 -9.61079 -3.4886 -25.9365 -9.73493 -3.66101 -26.9109 
-9.94075 -3.75802 -27.8791 -10.2822 -3.76709 -28.8067 -10.7363 -3.67693 -29.6772 
-11.2026 -3.44843 -30.5153 -11.5828 -3.04271 -31.3286 -11.8471 -2.5432 -32.127 
-12.0796 -2.23452 -32.9879 -12.2935 -2.21265 -33.9416 -12.4697 -2.3122 -34.918 
-12.6169 -2.44193 -35.8972 -12.7489 -2.59652 -36.8736 -12.8727 -2.79482 -37.8416 
-12.9837 -3.05426 -38.7965 -13.0709 -3.37521 -39.7364 -13.1278 -3.73285 -40.6668 
-13.1461 -4.09665 -41.5972 -13.1557 -4.52176 -42.6878 -12.8969 -4.6157 -43.2434 
-11.7776 -4.68873 -43.428 
LINES 1 92
91 0 1 2 3 4 5 6 7 8 9 10 11 12 13 14 15 16 17 18 19 20 21 22 23 24 25 26 27 28 29 30 31 32 33 34 35 36 37 38 39 40 41 42 43 44 45 46 47 48 49 50 51 52 53 54 55 56 57 58 59 60 61 62 63 64 65 66 67 68 69 70 71 72 73 74 75 76 77 78 79 80 81 82 83 84 85 86 87 88 89 90 

POINT_DATA 91
SCALARS SamplingDistance2Origin float 
LOOKUP_TABLE default
-45 -44 -43 -42 -41 -40 -39 -38 -37 
-36 -35 -34 -33 -32 -31 -30 -29 -28 
-27 -26 -25 -24 -23 -22 -21 -20 -19 
-18 -17 -16 -15 -14 -13 -12 -11 -10 
-9 -8 -7 -6 -5 -4 -3 -2 -1 
0 1 2 3 4 5 6 7 8 
9 10 11 12 13 14 15 16 17 
18 19 20 21 22 23 24 25 26 
27 28 29 30 31 32 33 34 35 
36 37 38 39 40 41 42 43 44 
45 
