# vtk DataFile Version 4.2
vtk output
ASCII
DATASET POLYDATA
POINTS 56 float
-4.09711 0.616386 41.6137 -3.6982 1.01107 40.8936 -3.3157 1.34027 40.0172 
-2.86304 1.49897 39.136 -2.45713 1.6744 38.24 -2.1085 1.84965 37.3204 
-1.81359 2.01983 36.3814 -1.55866 2.19268 35.4308 -1.32853 2.38027 34.4765 
-1.10104 2.5822 33.5244 -0.852016 2.78629 32.5787 -0.563936 2.98968 31.6442 
-0.229891 3.19212 30.725 0.144227 3.39601 29.8218 0.541206 3.60509 28.9293 
0.946091 3.8226 28.042 1.34612 4.04983 27.1547 1.73335 4.29132 26.2653 
2.09692 4.54547 25.3695 2.41224 4.80518 24.4576 2.64292 5.0579 23.5197 
2.76478 5.28016 22.555 2.78699 5.44732 21.5721 2.75656 5.55205 20.5805 
2.75971 5.61736 19.5869 2.90555 5.67759 18.606 3.1287 5.74684 17.6587 
3.3173 5.79066 16.7111 3.42756 5.8854 15.7887 3.45571 5.93732 14.74 
3.37775 5.99838 13.7474 3.20509 6.04391 12.7659 2.96712 6.05655 11.797 
2.70802 6.03405 10.8335 2.47779 5.99028 9.86388 2.3147 5.95511 8.88053 
2.18925 5.94017 7.88991 2.03909 5.93287 6.90246 1.83296 5.92362 5.91997 
1.56637 5.90764 4.95254 1.24274 5.88158 4.00912 0.86354 5.84362 3.08865 
0.430673 5.78766 2.19593 -0.052168 5.706 1.33393 -0.575776 5.60105 0.499302 
-1.1311 5.47994 -0.313406 -1.70509 5.35366 -1.11395 -2.29311 5.22646 -1.90624 
-2.90216 5.09649 -2.68399 -3.55351 4.94459 -3.42328 -4.18375 4.79884 -4.13348 
-4.71364 4.68357 -4.84128 -5.34602 4.49429 -5.45607 -5.72719 4.50704 -6.13554 
-6.16356 4.3576 -6.76784 -6.3145 4.43822 -7.60019 
LINES 1 57
56 0 1 2 3 4 5 6 7 8 9 10 11 12 13 14 15 16 17 18 19 20 21 22 23 24 25 26 27 28 29 30 31 32 33 34 35 36 37 38 39 40 41 42 43 44 45 46 47 48 49 50 51 52 53 54 55 

POINT_DATA 56
SCALARS SamplingDistance2Origin float 
LOOKUP_TABLE default
-27 -26 -25 -24 -23 -22 -21 -20 -19 
-18 -17 -16 -15 -14 -13 -12 -11 -10 
-9 -8 -7 -6 -5 -4 -3 -2 -1 
0 1 2 3 4 5 6 7 8 
9 10 11 12 13 14 15 16 17 
18 19 20 21 22 23 24 25 26 
27 28 
