# vtk DataFile Version 4.2
vtk output
ASCII
DATASET POLYDATA
POINTS 97 float
8.38664 46.6607 -5.20706 7.76995 47.0075 -5.3976 9.44208 45.1855 -4.49075 
9.41833 44.7316 -4.11352 8.69287 44.5633 -3.62123 7.54014 44.9779 -3.27629 
6.74103 44.976 -2.89037 5.92697 45.2097 -2.64007 5.3448 44.7797 -2.11888 
4.78905 44.3172 -1.59464 4.25538 43.8076 -1.10917 3.74245 43.1748 -0.722303 
3.25376 42.4076 -0.467259 2.77962 41.5671 -0.362885 2.34038 40.6821 -0.323309 
1.96162 39.7601 -0.291174 1.66578 38.8186 -0.264155 1.47264 37.843 -0.222236 
1.3752 36.8563 -0.203944 1.34717 35.8613 -0.210775 1.33679 34.8729 -0.253569 
1.28771 33.8946 -0.30179 1.14737 32.9197 -0.317142 0.895049 31.9816 -0.294564 
0.535351 31.0712 -0.263321 0.10713 30.1867 -0.243355 -0.349959 29.3162 -0.249024 
-0.810399 28.4449 -0.302634 -1.2613 27.5723 -0.395838 -1.69952 26.6963 -0.526228 
-2.11493 25.8154 -0.693895 -2.4944 24.9288 -0.896276 -2.81405 24.0308 -1.1371 
-3.06735 23.13 -1.41614 -3.26271 22.2282 -1.73119 -3.41214 21.3303 -2.07961 
-3.5174 20.4444 -2.46932 -3.58251 19.5742 -2.90365 -3.61718 18.7402 -3.39514 
-3.6637 17.9452 -3.94943 -3.80312 17.2168 -4.58498 -4.07029 16.5732 -5.27674 
-4.40079 15.9817 -5.97964 -4.73974 15.419 -6.69344 -5.07379 14.8771 -7.40446 
-5.4162 14.3301 -8.09985 -5.78982 13.762 -8.77147 -6.2141 13.1775 -9.4085 
-6.6896 12.5898 -10.0155 -7.1979 12.0099 -10.6153 -7.80605 11.1525 -11.2479 
-8.31422 10.1156 -11.607 -8.88086 10.0906 -12.5504 -9.04836 9.05641 -12.6956 
-9.28597 8.21834 -13.0918 -9.49552 7.39925 -13.5246 -9.68043 6.55421 -13.9686 
-9.87048 5.69579 -14.3781 -10.163 4.8456 -14.6582 -10.3889 3.94881 -14.918 
-10.5865 3.09098 -15.2569 -10.6666 2.2827 -15.723 -10.7288 1.59962 -16.3738 
-10.7862 0.964787 -17.0958 -10.8576 0.343117 -17.8381 -10.9052 -0.293455 -18.5693 
-10.9272 -0.925584 -19.3092 -10.9232 -1.54112 -20.0716 -10.9009 -2.11895 -20.8743 
-10.8674 -2.64901 -21.7155 -10.829 -3.12408 -22.5913 -10.81 -3.54467 -23.4952 
-10.8218 -3.91128 -24.4211 -10.8713 -4.22842 -25.3657 -10.9694 -4.49478 -26.3206 
-11.1169 -4.7101 -27.2848 -11.3328 -4.85938 -28.2406 -11.5859 -4.90435 -29.197 
-11.8468 -4.82246 -30.146 -12.0376 -4.5929 -31.0915 -12.1437 -4.27872 -31.9909 
-12.2522 -4.03295 -32.9074 -12.3393 -3.95875 -33.8539 -12.4696 -4.06168 -34.8519 
-12.57 -4.19453 -35.8294 -12.6755 -4.34892 -36.8039 -12.7783 -4.53696 -37.7797 
-12.8418 -4.74651 -38.7434 -12.8558 -4.97697 -39.7042 -12.8029 -5.20268 -40.6567 
-12.6818 -5.40387 -41.6102 -12.5206 -5.59356 -42.5664 -12.3517 -5.78402 -43.5271 
-12.1782 -5.91802 -44.3982 -11.8545 -5.6835 -44.8094 -11.5157 -5.29787 -44.9845 
-11.3163 -5.00924 -44.9459 
LINES 1 98
97 0 1 2 3 4 5 6 7 8 9 10 11 12 13 14 15 16 17 18 19 20 21 22 23 24 25 26 27 28 29 30 31 32 33 34 35 36 37 38 39 40 41 42 43 44 45 46 47 48 49 50 51 52 53 54 55 56 57 58 59 60 61 62 63 64 65 66 67 68 69 70 71 72 73 74 75 76 77 78 79 80 81 82 83 84 85 86 87 88 89 90 91 92 93 94 95 96 

POINT_DATA 97
SCALARS SamplingDistance2Origin float 
LOOKUP_TABLE default
-50 -49 -48 -47 -46 -45 -44 -43 -42 
-41 -40 -39 -38 -37 -36 -35 -34 -33 
-32 -31 -30 -29 -28 -27 -26 -25 -24 
-23 -22 -21 -20 -19 -18 -17 -16 -15 
-14 -13 -12 -11 -10 -9 -8 -7 -6 
-5 -4 -3 -2 -1 0 1 2 3 
4 5 6 7 8 9 10 11 12 
13 14 15 16 17 18 19 20 21 
22 23 24 25 26 27 28 29 30 
31 32 33 34 35 36 37 38 39 
40 41 42 43 44 45 46 
