# vtk DataFile Version 4.2
vtk output
ASCII
DATASET POLYDATA
POINTS 96 float
-25.3859 2.22891 40.4691 -26.0917 1.90555 40.0087 -26.6685 1.76511 39.2395 
-26.816 1.9118 38.2573 -27.0323 2.0147 37.2996 -27.2539 2.12015 36.3368 
-27.4737 2.24053 35.3712 -27.7002 2.38352 34.4088 -27.9403 2.55075 33.4538 
-28.2016 2.73814 32.5093 -28.4948 2.93655 31.578 -28.8268 3.14084 30.6628 
-29.1876 3.34989 29.761 -29.5629 3.56414 28.8666 -29.9433 3.79113 27.9769 
-30.3256 4.0417 27.0929 -30.703 4.32164 26.2138 -31.063 4.62629 25.3341 
-31.3966 4.94639 24.4486 -31.7075 5.2721 23.5563 -32.0217 5.59425 22.6652 
-32.3714 5.90696 21.7893 -32.7367 6.21865 20.9219 -33.0716 6.53218 20.0424 
-33.3393 6.8373 19.1354 -33.5227 7.11542 18.1982 -33.6166 7.35363 17.236 
-33.6228 7.54665 16.2558 -33.551 7.70562 15.2715 -33.4139 7.80093 14.2939 
-33.2266 7.87634 13.3161 -33.0045 7.91762 12.3449 -32.7574 7.91692 11.3811 
-32.4948 7.87258 10.4255 -32.2227 7.79371 9.47709 -31.9446 7.70352 8.52982 
-31.6633 7.62595 7.5786 -31.3808 7.57188 6.62334 -31.1013 7.54335 5.66498 
-30.8244 7.53506 4.70504 -30.5464 7.53835 3.74524 -30.2645 7.5455 2.78669 
-29.9777 7.55022 1.82979 -29.6862 7.55082 0.874429 -29.3918 7.54824 -0.0801062 
-29.0996 7.54387 -1.03528 -28.8097 7.53302 -1.99086 -28.5243 7.50849 -2.92167 
-28.2554 7.45002 -3.7883 -27.9357 7.47837 -4.5516 -27.5962 7.4084 -5.51635 
-27.2278 7.36547 -6.44251 -26.82 7.29511 -7.34933 -26.3555 7.16867 -8.22223 
-25.8561 6.9844 -9.06704 -25.3569 6.77487 -9.90708 -24.8603 6.56876 -10.7495 
-24.3361 6.36378 -11.5745 -23.7582 6.1505 -12.3602 -23.1285 5.92168 -13.1008 
-22.4693 5.67287 -13.8091 -21.8131 5.40277 -14.5123 -21.1872 5.11588 -15.2355 
-20.61 4.82503 -15.9963 -20.0914 4.54305 -16.801 -19.6348 4.2834 -17.6496 
-19.2397 4.05809 -18.538 -18.9008 3.87314 -19.4586 -18.6131 3.73248 -20.4043 
-18.375 3.6364 -21.3695 -18.181 3.57372 -22.3475 -18.0128 3.52546 -23.3315 
-17.8453 3.46296 -24.3147 -17.6662 3.35475 -25.2915 -17.4832 3.17556 -26.2569 
-17.3018 2.9165 -27.2042 -17.1197 2.57505 -28.1248 -16.9457 2.145 -29.0087 
-16.7812 1.61987 -29.8408 -16.6065 1.00382 -30.6059 -16.4063 0.333103 -31.3182 
-16.1849 -0.31746 -32.04 -15.9561 -0.869052 -32.8342 -15.729 -1.26464 -33.7177 
-15.5206 -1.5631 -34.6547 -15.3257 -1.78211 -35.6099 -15.1505 -1.98084 -36.5738 
-15.0049 -2.19123 -37.54 -14.8942 -2.43815 -38.5017 -14.8207 -2.73453 -39.4528 
-14.7888 -3.08427 -40.3891 -14.7883 -3.45793 -41.3162 -14.7996 -3.84502 -42.2379 
-14.8088 -4.22136 -43.1639 -14.624 -4.59666 -43.7879 -14.3725 -3.79634 -44.0486 

LINES 1 97
96 0 1 2 3 4 5 6 7 8 9 10 11 12 13 14 15 16 17 18 19 20 21 22 23 24 25 26 27 28 29 30 31 32 33 34 35 36 37 38 39 40 41 42 43 44 45 46 47 48 49 50 51 52 53 54 55 56 57 58 59 60 61 62 63 64 65 66 67 68 69 70 71 72 73 74 75 76 77 78 79 80 81 82 83 84 85 86 87 88 89 90 91 92 93 94 95 

POINT_DATA 96
SCALARS SamplingDistance2Origin float 
LOOKUP_TABLE default
-48 -47 -46 -45 -44 -43 -42 -41 -40 
-39 -38 -37 -36 -35 -34 -33 -32 -31 
-30 -29 -28 -27 -26 -25 -24 -23 -22 
-21 -20 -19 -18 -17 -16 -15 -14 -13 
-12 -11 -10 -9 -8 -7 -6 -5 -4 
-3 -2 -1 0 1 2 3 4 5 
6 7 8 9 10 11 12 13 14 
15 16 17 18 19 20 21 22 23 
24 25 26 27 28 29 30 31 32 
33 34 35 36 37 38 39 40 41 
42 43 44 45 46 47 
