# vtk DataFile Version 4.2
vtk output
ASCII
DATASET POLYDATA
POINTS 97 float
-26.5769 -7.64872 38.1336 -27.1343 -8.9771 36.8094 -27.7359 -10.1812 35.4442 
-28.0407 -10.6215 34.3957 -28.1106 -10.6993 33.5255 -28.2719 -10.4896 32.713 
-28.5072 -10.0982 31.8506 -28.7494 -9.72427 30.9883 -29.0004 -9.34861 30.1255 
-29.2577 -8.96232 29.2652 -29.5199 -8.56575 28.4077 -29.7854 -8.16293 27.5511 
-30.052 -7.75964 26.6923 -30.3169 -7.36051 25.8293 -30.5788 -6.9628 24.9637 
-30.8382 -6.55987 24.0982 -31.0933 -6.14623 23.2341 -31.3389 -5.71196 22.3748 
-31.5687 -5.25064 21.5237 -31.7828 -4.75722 20.6874 -31.9997 -4.23827 19.8699 
-32.2338 -3.71149 19.0642 -32.4637 -3.18998 18.2555 -32.6393 -2.68498 17.4272 
-32.7185 -2.20689 16.5735 -32.6918 -1.76873 15.6923 -32.5763 -1.36456 14.7958 
-32.4054 -0.976107 13.8998 -32.2096 -0.619155 12.9955 -32.0063 -0.299211 12.0778 
-31.7977 -0.00858494 11.1521 -31.5925 0.260033 10.219 -31.4136 0.516479 9.27918 
-31.2803 0.770247 8.33284 -31.1839 1.02239 7.37998 -31.0965 1.26165 6.41929 
-30.9886 1.47371 5.45243 -30.8399 1.65842 4.48442 -30.6488 1.82611 3.52101 
-30.4173 1.98492 2.56506 -30.1436 2.13044 1.61788 -29.8231 2.25229 0.682301 
-29.4474 2.34208 -0.237099 -29.003 2.39348 -1.1287 -28.4843 2.40096 -1.98014 
-27.8976 2.37323 -2.7848 -27.2458 2.31608 -3.53402 -26.5287 2.23274 -4.21674 
-25.7535 2.12756 -4.83285 -24.9414 1.97309 -5.42104 -24.1287 1.79433 -5.97224 
-23.314 1.57825 -6.50661 -22.5004 1.29833 -7.00717 -21.7194 0.907722 -7.47571 
-21.0352 0.435246 -8.00312 -20.4493 -0.0343121 -8.6321 -19.9075 -0.496396 -9.31011 
-19.42 -0.943861 -10.0478 -19.0005 -1.33573 -10.8613 -18.6668 -1.6328 -11.7462 
-18.4113 -1.85307 -12.678 -18.2354 -2.05026 -13.6329 -18.1445 -2.28551 -14.5821 
-18.1242 -2.58435 -15.5072 -18.1426 -2.93448 -16.4175 -18.1837 -3.32228 -17.3204 
-18.2429 -3.73876 -18.2161 -18.3204 -4.1744 -19.1034 -18.4183 -4.61744 -19.986 
-18.5375 -5.06324 -20.866 -18.6765 -5.51697 -21.741 -18.8433 -5.98154 -22.6081 
-19.0483 -6.44521 -23.4668 -19.292 -6.90131 -24.3184 -19.5544 -7.36622 -25.1577 
-19.7991 -7.85261 -25.9847 -19.9865 -8.30503 -26.837 -20.0674 -8.52157 -27.7749 
-20.0115 -8.53205 -28.7531 -19.8754 -8.43582 -29.7306 -19.7096 -8.26917 -30.6981 
-19.5059 -8.08742 -31.6543 -19.239 -7.95222 -32.6025 -18.9179 -7.885 -33.5411 
-18.5798 -7.86293 -34.4756 -18.2614 -7.8591 -35.4164 -17.9742 -7.86168 -36.3818 
-17.7266 -7.89639 -37.3476 -17.5165 -7.92466 -38.3229 -17.3518 -7.94055 -39.2921 
-17.2211 -7.93504 -40.2687 -17.1069 -7.98778 -41.2039 -17.0415 -8.08575 -42.1411 
-17.0057 -8.41871 -42.8361 -16.9672 -9.20717 -43.1778 -16.8163 -10.4239 -43.2806 
-16.9156 -11.284 -43.7253 
LINES 1 98
97 0 1 2 3 4 5 6 7 8 9 10 11 12 13 14 15 16 17 18 19 20 21 22 23 24 25 26 27 28 29 30 31 32 33 34 35 36 37 38 39 40 41 42 43 44 45 46 47 48 49 50 51 52 53 54 55 56 57 58 59 60 61 62 63 64 65 66 67 68 69 70 71 72 73 74 75 76 77 78 79 80 81 82 83 84 85 86 87 88 89 90 91 92 93 94 95 96 

POINT_DATA 97
SCALARS SamplingDistance2Origin float 
LOOKUP_TABLE default
-48 -47 -46 -45 -44 -43 -42 -41 -40 
-39 -38 -37 -36 -35 -34 -33 -32 -31 
-30 -29 -28 -27 -26 -25 -24 -23 -22 
-21 -20 -19 -18 -17 -16 -15 -14 -13 
-12 -11 -10 -9 -8 -7 -6 -5 -4 
-3 -2 -1 0 1 2 3 4 5 
6 7 8 9 10 11 12 13 14 
15 16 17 18 19 20 21 22 23 
24 25 26 27 28 29 30 31 32 
33 34 35 36 37 38 39 40 41 
42 43 44 45 46 47 48 
