# vtk DataFile Version 4.2
vtk output
ASCII
DATASET POLYDATA
POINTS 93 float
0.232203 -16.1657 33.2894 0.198742 -15.6628 33.1238 0.249073 -15.4483 32.5283 
0.522722 -15.0074 31.6517 0.756925 -14.5116 30.8735 0.987102 -13.9837 30.0578 
1.18894 -13.4288 29.2523 1.36325 -12.8591 28.4499 1.52047 -12.2844 27.6482 
1.67331 -11.6977 26.8495 1.82819 -11.1273 26.0442 1.98344 -10.5426 25.2431 
2.13661 -9.96683 24.4389 2.28665 -9.39257 23.6337 2.43481 -8.81493 22.8357 
2.59285 -8.24244 22.0337 2.77027 -7.66923 21.2372 2.97304 -7.0913 20.4505 
3.20247 -6.51011 19.672 3.45874 -5.93595 18.9041 3.74759 -5.38024 18.1294 
4.06463 -4.84566 17.3524 4.38193 -4.34343 16.557 4.6317 -3.84026 15.748 
4.77533 -3.33318 14.9085 4.78754 -2.86081 14.0344 4.69221 -2.42243 13.1468 
4.52113 -1.99794 12.2571 4.31512 -1.60316 11.3628 4.09868 -1.22152 10.4652 
3.87939 -0.848882 9.56507 3.6745 -0.484402 8.66063 3.51869 -0.106704 7.75655 
3.44469 0.271462 6.83588 3.42701 0.628229 5.90244 3.4092 0.950911 4.95799 
3.35926 1.24067 4.00483 3.2654 1.50337 3.04685 3.11997 1.74161 2.0895 
2.91443 1.95793 1.13485 2.63821 2.14103 0.199287 2.28677 2.2873 -0.724619 
1.84169 2.37265 -1.61221 1.20887 2.51615 -2.76139 0.370263 2.32809 -3.67489 
-0.391359 2.1466 -4.28877 -1.17219 1.96584 -4.87916 -2.14944 1.32018 -4.86703 
-2.48941 1.61769 -5.73389 -3.34603 1.39372 -6.28774 -4.17716 1.14779 -6.80057 
-4.99997 0.815426 -7.25459 -5.78725 0.333496 -7.64444 -6.49 -0.222018 -8.06872 
-7.15108 -0.810636 -8.54661 -7.7521 -1.38683 -9.10282 -8.26705 -1.93831 -9.78078 
-8.64455 -2.37727 -10.5948 -8.88851 -2.65673 -11.5197 -9.04555 -2.81735 -12.4846 
-9.14544 -2.9022 -13.4748 -9.20499 -2.98371 -14.4638 -9.22756 -3.10855 -15.4499 
-9.21592 -3.30278 -16.4254 -9.16826 -3.56501 -17.3853 -9.08386 -3.87738 -18.3262 
-8.96684 -4.23869 -19.25 -8.82503 -4.64676 -20.1491 -8.66261 -5.07766 -21.0347 
-8.48197 -5.50298 -21.9227 -8.28284 -5.9154 -22.8097 -8.06582 -6.31927 -23.6955 
-7.82488 -6.71663 -24.576 -7.5644 -7.10476 -25.4548 -7.30499 -7.47238 -26.3396 
-7.084 -7.75767 -27.2594 -6.95988 -7.80458 -28.2404 -6.97373 -7.71671 -29.2497 
-7.04742 -7.56645 -30.2306 -7.08433 -7.57388 -30.974 -7.17244 -7.623 -31.6872 
-7.39256 -7.47682 -32.5891 -7.79741 -7.32669 -33.5819 -8.3119 -7.26764 -34.4834 
-8.85455 -7.26409 -35.3255 -9.35665 -7.26311 -36.1847 -9.78742 -7.2335 -37.1153 
-10.1153 -7.22372 -38.0572 -10.3436 -7.21599 -39.0294 -10.5088 -7.18412 -40.0132 
-10.6279 -7.13449 -40.9541 -10.6751 -7.12709 -41.542 -10.6643 -7.0867 -41.9784 

LINES 1 94
93 0 1 2 3 4 5 6 7 8 9 10 11 12 13 14 15 16 17 18 19 20 21 22 23 24 25 26 27 28 29 30 31 32 33 34 35 36 37 38 39 40 41 42 43 44 45 46 47 48 49 50 51 52 53 54 55 56 57 58 59 60 61 62 63 64 65 66 67 68 69 70 71 72 73 74 75 76 77 78 79 80 81 82 83 84 85 86 87 88 89 90 91 92 

POINT_DATA 93
SCALARS SamplingDistance2Origin float 
LOOKUP_TABLE default
-43 -42 -41 -40 -39 -38 -37 -36 -35 
-34 -33 -32 -31 -30 -29 -28 -27 -26 
-25 -24 -23 -22 -21 -20 -19 -18 -17 
-16 -15 -14 -13 -12 -11 -10 -9 -8 
-7 -6 -5 -4 -3 -2 -1 0 1 
2 3 4 5 6 7 8 9 10 
11 12 13 14 15 16 17 18 19 
20 21 22 23 24 25 26 27 28 
29 30 31 32 33 34 35 36 37 
38 39 40 41 42 43 44 45 46 
47 48 49 
