# vtk DataFile Version 4.2
vtk output
ASCII
DATASET POLYDATA
POINTS 99 float
-10.6879 -10.9982 -44.6485 -11.1205 -10.7456 -44.6222 -10.9745 -9.10917 -44.437 
-10.8528 -8.06015 -44.2218 -10.8258 -7.58944 -43.6928 -10.9105 -7.52537 -42.7537 
-10.9561 -7.50499 -41.773 -10.9226 -7.52372 -40.783 -10.7981 -7.43744 -39.9088 
-10.6432 -7.40749 -38.9658 -10.4439 -7.38539 -38.0117 -10.1815 -7.38749 -37.0562 
-9.84601 -7.41785 -36.1184 -9.43905 -7.44539 -35.2109 -8.9996 -7.44106 -34.3223 
-8.58391 -7.44111 -33.4173 -8.24837 -7.50142 -32.4649 -8.03089 -7.59153 -31.5084 
-7.88133 -7.735 -30.5375 -7.79107 -7.83856 -29.5654 -7.76242 -7.85264 -28.5933 
-7.82985 -7.75192 -27.6312 -7.99905 -7.53138 -26.6967 -8.22612 -7.2107 -25.794 
-8.47141 -6.84649 -24.908 -8.71434 -6.44843 -24.0313 -8.94158 -6.01106 -23.1659 
-9.14688 -5.53416 -22.3141 -9.32784 -5.02167 -21.4767 -9.48363 -4.47844 -20.6535 
-9.61528 -3.91508 -19.8398 -9.72342 -3.34138 -19.0302 -9.81116 -2.76233 -18.2223 
-9.88644 -2.1743 -17.421 -9.96345 -1.57139 -16.634 -10.0535 -0.962555 -15.8566 
-10.1352 -0.389973 -15.0518 -10.1152 0.0747489 -14.1742 -9.92725 0.405412 -13.2562 
-9.60234 0.678168 -12.3569 -9.20008 0.959102 -11.4905 -8.74682 1.27858 -10.6621 
-8.24481 1.63294 -9.8775 -7.70383 2.00579 -9.13447 -7.14112 2.44079 -8.45772 
-6.51547 2.97857 -7.93028 -5.79591 3.50034 -7.49993 -5.01326 3.88678 -7.02589 
-4.20554 4.18003 -6.49887 -3.4502 4.40712 -6.0008 -2.67378 4.5776 -5.43984 
-1.92286 4.71704 -4.80432 -1.24653 4.81405 -4.07835 -0.65419 4.88261 -3.27899 
-0.127286 4.93956 -2.43324 0.354597 4.98735 -1.56018 0.803114 5.02039 -0.668827 
1.21954 5.03603 0.238468 1.59982 5.03243 1.16146 1.94409 5.01333 2.09819 
2.25259 4.98516 3.047 2.52099 4.95265 4.0076 2.74265 4.91661 4.97976 
2.91408 4.87472 5.96088 3.03369 4.82212 6.94844 3.11368 4.75917 7.9391 
3.19025 4.69541 8.92947 3.30844 4.63867 9.9155 3.4784 4.57999 10.8945 
3.67206 4.50363 11.8692 3.85653 4.40399 12.8445 4.00529 4.28371 13.8232 
4.10052 4.14507 14.8054 4.13212 3.98828 15.7878 4.09034 3.81443 16.7663 
3.97728 3.62569 17.7365 3.82301 3.42548 18.699 3.68112 3.21994 19.6597 
3.58124 3.00091 20.6215 3.49964 2.75047 21.5786 3.38285 2.46644 22.5245 
3.19063 2.1662 23.4548 2.92128 1.86625 24.3675 2.59745 1.57466 25.2661 
2.24197 1.29715 26.1567 1.86677 1.04057 27.0451 1.4755 0.806816 27.9322 
1.07506 0.59583 28.8202 0.678898 0.406013 29.7142 0.304227 0.232536 30.62 
-0.0351608 0.0664285 31.5405 -0.337607 -0.100833 32.4731 -0.606804 -0.272325 33.4055 
-0.819176 -0.402247 34.3035 -1.01899 -0.611782 35.2006 -1.05198 -2.17031 35.7675 
-1.05007 -4.59409 36.2519 -1.02195 -6.28044 36.9809 -0.719095 -7.43333 37.2429 

LINES 1 100
99 0 1 2 3 4 5 6 7 8 9 10 11 12 13 14 15 16 17 18 19 20 21 22 23 24 25 26 27 28 29 30 31 32 33 34 35 36 37 38 39 40 41 42 43 44 45 46 47 48 49 50 51 52 53 54 55 56 57 58 59 60 61 62 63 64 65 66 67 68 69 70 71 72 73 74 75 76 77 78 79 80 81 82 83 84 85 86 87 88 89 90 91 92 93 94 95 96 97 98 

POINT_DATA 99
SCALARS SamplingDistance2Origin float 
LOOKUP_TABLE default
-49 -48 -47 -46 -45 -44 -43 -42 -41 
-40 -39 -38 -37 -36 -35 -34 -33 -32 
-31 -30 -29 -28 -27 -26 -25 -24 -23 
-22 -21 -20 -19 -18 -17 -16 -15 -14 
-13 -12 -11 -10 -9 -8 -7 -6 -5 
-4 -3 -2 -1 0 1 2 3 4 
5 6 7 8 9 10 11 12 13 
14 15 16 17 18 19 20 21 22 
23 24 25 26 27 28 29 30 31 
32 33 34 35 36 37 38 39 40 
41 42 43 44 45 46 47 48 49 

