# vtk DataFile Version 4.2
vtk output
ASCII
DATASET POLYDATA
POINTS 75 float
-19.0465 18.9452 -7.28359 -18.437 18.2614 -7.73206 -18.0239 18.0552 -7.48882 
-17.7291 17.985 -7.07983 -17.6104 18.0461 -6.60998 -17.609 18.0452 -6.24472 
-17.5346 18.1611 -5.58309 -17.3054 18.2624 -4.69731 -17.0645 18.2753 -3.74718 
-16.873 18.1902 -2.80144 -16.7279 18.0012 -1.86375 -16.6291 17.7065 -0.940492 
-16.563 17.3204 -0.0354764 -16.5113 16.871 0.848455 -16.4655 16.3796 1.71106 
-16.4305 15.8627 2.55556 -16.412 15.3279 3.38349 -16.4078 14.7678 4.18801 
-16.4192 14.1606 4.95268 -16.4535 13.4894 5.66117 -16.5187 12.7488 6.30167 
-16.6199 11.9489 6.86139 -16.7516 11.097 7.33195 -16.9033 10.2011 7.7163 
-17.078 9.27263 8.01408 -17.2822 8.32723 8.23839 -17.5168 7.37457 8.40054 
-17.776 6.41939 8.50726 -18.0616 5.4664 8.55585 -18.3837 4.52348 8.54086 
-18.7488 3.5986 8.46023 -19.1565 2.69737 8.32794 -19.6105 1.82625 8.15012 
-20.1063 0.988623 7.92817 -20.6402 0.187213 7.66426 -21.2052 -0.579639 7.36547 
-21.7961 -1.31338 7.04687 -22.3939 -2.00683 6.7334 -23.011 -2.64771 6.42236 
-23.6894 -3.29157 6.07225 -24.3955 -3.8857 5.69342 -25.1232 -4.43186 5.2826 
-25.8683 -4.93212 4.84542 -26.6231 -5.38896 4.37962 -27.3779 -5.80219 3.87569 
-28.1217 -6.16214 3.3178 -28.8419 -6.45506 2.69383 -29.5272 -6.66988 2.0022 
-30.1742 -6.8088 1.25604 -30.7855 -6.87786 0.470288 -31.3654 -6.8729 -0.341906 
-31.9187 -6.77998 -1.16734 -32.4488 -6.59693 -1.99249 -32.9588 -6.31884 -2.80363 
-33.4469 -5.95089 -3.59206 -33.9119 -5.50671 -4.35532 -34.351 -5.00057 -5.09472 
-34.7625 -4.44143 -5.81159 -35.1422 -3.83984 -6.51101 -35.4788 -3.20091 -7.19845 
-35.7628 -2.52712 -7.87401 -35.9877 -1.8171 -8.53243 -36.155 -1.07225 -9.16483 
-36.27 -0.295665 -9.76377 -36.3356 0.508507 -10.3233 -36.3549 1.33644 -10.8411 
-36.3439 2.17948 -11.3261 -36.3332 3.02914 -11.7987 -36.3344 3.87554 -12.2809 
-36.3605 4.71122 -12.7908 -36.4073 5.53126 -13.3364 -36.0962 6.2088 -13.7457 
-34.2402 7.00087 -13.7022 -33.091 7.62775 -13.6768 -32.4418 7.88301 -13.8094 

LINES 1 76
75 0 1 2 3 4 5 6 7 8 9 10 11 12 13 14 15 16 17 18 19 20 21 22 23 24 25 26 27 28 29 30 31 32 33 34 35 36 37 38 39 40 41 42 43 44 45 46 47 48 49 50 51 52 53 54 55 56 57 58 59 60 61 62 63 64 65 66 67 68 69 70 71 72 73 74 

POINT_DATA 75
SCALARS SamplingDistance2Origin float 
LOOKUP_TABLE default
-37 -36 -35 -34 -33 -32 -31 -30 -29 
-28 -27 -26 -25 -24 -23 -22 -21 -20 
-19 -18 -17 -16 -15 -14 -13 -12 -11 
-10 -9 -8 -7 -6 -5 -4 -3 -2 
-1 0 1 2 3 4 5 6 7 
8 9 10 11 12 13 14 15 16 
17 18 19 20 21 22 23 24 25 
26 27 28 29 30 31 32 33 34 
35 36 37 
