# vtk DataFile Version 4.2
vtk output
ASCII
DATASET POLYDATA
POINTS 74 float
10.6552 7.45315 -16.8159 10.8342 7.56854 -16.4044 11.0251 7.35381 -15.8273 
11.1007 6.98302 -15.4415 11.1689 6.61538 -15.0655 11.2287 5.92044 -14.5582 
11.2612 5.04678 -13.9987 11.2633 4.21429 -13.448 11.2309 3.38941 -12.8866 
11.1661 2.57757 -12.3089 11.0728 1.78105 -11.7136 10.9597 0.998705 -11.1024 
10.8286 0.231745 -10.475 10.6793 -0.520111 -9.8334 10.5075 -1.25761 -9.18087 
10.3079 -1.97646 -8.5163 10.073 -2.66566 -7.83261 9.81045 -3.32683 -7.13116 
9.52387 -3.95848 -6.41062 9.21772 -4.55581 -5.67052 8.88914 -5.11319 -4.90928 
8.53532 -5.62027 -4.12522 8.15707 -6.05977 -3.31387 7.7611 -6.42584 -2.47509 
7.35781 -6.7148 -1.61044 6.95045 -6.92132 -0.723539 6.54521 -7.04874 0.178698 
6.15174 -7.0991 1.09254 5.76462 -7.06932 2.01043 5.37405 -6.98313 2.92364 
4.9787 -6.82997 3.82542 4.57384 -6.60377 4.70713 4.14851 -6.29156 5.55096 
3.70274 -5.88836 6.34343 3.24576 -5.396 7.07672 2.7783 -4.82481 7.74226 
2.29173 -4.2048 8.33693 1.80102 -3.57747 8.86097 1.37431 -2.94861 9.32163 
0.887206 -2.17784 9.77526 0.413742 -1.3834 10.1495 -0.068759 -0.563477 10.4441 
-0.566852 0.264849 10.6807 -1.07503 1.09587 10.8779 -1.58174 1.93117 11.0485 
-2.08631 2.77079 11.1874 -2.59633 3.61251 11.2843 -3.11204 4.45647 11.3371 
-3.63434 5.30045 11.3528 -4.16901 6.13935 11.3231 -4.70682 6.97494 11.2413 
-5.22746 7.81482 11.1026 -5.71895 8.66001 10.9043 -6.17301 9.50952 10.647 
-6.59308 10.362 10.3471 -6.97673 11.2159 10.0079 -7.30584 12.0708 9.62117 
-7.57802 12.9181 9.17857 -7.81462 13.7432 8.67761 -8.02802 14.5296 8.10989 
-8.22964 15.261 7.47017 -8.42783 15.915 6.75456 -8.62692 16.4833 5.97287 
-8.83753 16.9547 5.13301 -9.06658 17.3381 4.24984 -9.31279 17.6521 3.3379 
-9.57351 17.9263 2.41459 -9.8471 18.1727 1.48806 -10.123 18.394 0.558279 
-10.3961 18.5689 -0.404679 -10.606 18.716 -1.34814 -10.7622 18.8868 -2.03228 
-11.0735 19.6481 -1.3519 -11.1301 19.9052 -1.39961 
LINES 1 75
74 0 1 2 3 4 5 6 7 8 9 10 11 12 13 14 15 16 17 18 19 20 21 22 23 24 25 26 27 28 29 30 31 32 33 34 35 36 37 38 39 40 41 42 43 44 45 46 47 48 49 50 51 52 53 54 55 56 57 58 59 60 61 62 63 64 65 66 67 68 69 70 71 72 73 

POINT_DATA 74
SCALARS SamplingDistance2Origin float 
LOOKUP_TABLE default
-37 -36 -35 -34 -33 -32 -31 -30 -29 
-28 -27 -26 -25 -24 -23 -22 -21 -20 
-19 -18 -17 -16 -15 -14 -13 -12 -11 
-10 -9 -8 -7 -6 -5 -4 -3 -2 
-1 0 1 2 3 4 5 6 7 
8 9 10 11 12 13 14 15 16 
17 18 19 20 21 22 23 24 25 
26 27 28 29 30 31 32 33 34 
35 36 
