# vtk DataFile Version 4.2
vtk output
ASCII
DATASET POLYDATA
POINTS 71 float
-11.173 17.1323 -7.03787 -11.0643 16.9764 -6.89645 -11.1028 17.1236 -6.37478 
-11.1419 17.4429 -5.69345 -10.9573 17.7088 -5.1467 -11.1748 17.9324 -4.26107 
-11.3857 18.0249 -3.31472 -11.5325 17.9578 -2.35406 -11.59 17.743 -1.40048 
-11.5709 17.4432 -0.458657 -11.5144 17.1062 0.473911 -11.4547 16.7541 1.40062 
-11.4106 16.3782 2.31552 -11.3851 15.9559 3.20678 -11.3668 15.4741 4.06485 
-11.3426 14.9242 4.88026 -11.3021 14.2925 5.63344 -11.2381 13.5743 6.30298 
-11.1393 12.7745 6.87118 -10.9975 11.9134 7.33847 -10.8109 11.0117 7.70877 
-10.5868 10.0868 7.99927 -10.3304 9.1517 8.22919 -10.0522 8.21281 8.41859 
-9.75364 7.27379 8.57444 -9.41753 6.34087 8.68348 -9.02186 5.42783 8.7317 
-8.56811 4.5413 8.719 -8.07102 3.68125 8.64318 -7.53939 2.84804 8.51323 
-6.96723 2.04987 8.33893 -6.35761 1.28848 8.1306 -5.71639 0.560035 7.90266 
-5.04991 -0.142608 7.67065 -4.34381 -0.83996 7.42154 -3.62674 -1.52487 7.14552 
-2.9105 -2.15576 6.84446 -2.20343 -2.75507 6.51183 -1.47958 -3.32533 6.13229 
-0.746639 -3.84245 5.70127 -0.0121983 -4.29871 5.21055 0.710025 -4.69166 4.65262 
1.4067 -5.02477 4.02589 2.06749 -5.28984 3.33075 2.69496 -5.48988 2.58314 
3.28973 -5.6309 1.79489 3.85795 -5.72024 0.979547 4.40276 -5.74477 0.144633 
4.9234 -5.68809 -0.703409 5.41565 -5.54321 -1.55743 5.88206 -5.30969 -2.40648 
6.3222 -4.98846 -3.24001 6.73887 -4.5901 -4.05222 7.13481 -4.12234 -4.83732 
7.50456 -3.59614 -5.59746 7.83533 -3.01466 -6.33409 8.11824 -2.38671 -7.05019 
8.34339 -1.71284 -7.74218 8.51369 -0.999836 -8.40669 8.63148 -0.253739 -9.03942 
8.70103 0.520494 -9.63783 8.73792 1.31951 -10.1996 8.76358 2.13323 -10.7382 
8.79441 2.95288 -11.2686 8.85109 3.77368 -11.8071 8.93615 4.58939 -12.3617 
9.04857 5.39538 -12.9341 9.17358 6.18747 -13.5248 9.45692 6.815 -14.0961 
10.5516 6.73719 -14.5617 10.9663 6.5556 -14.9911 
LINES 1 72
71 0 1 2 3 4 5 6 7 8 9 10 11 12 13 14 15 16 17 18 19 20 21 22 23 24 25 26 27 28 29 30 31 32 33 34 35 36 37 38 39 40 41 42 43 44 45 46 47 48 49 50 51 52 53 54 55 56 57 58 59 60 61 62 63 64 65 66 67 68 69 70 

POINT_DATA 71
SCALARS SamplingDistance2Origin float 
LOOKUP_TABLE default
-35 -34 -33 -32 -31 -30 -29 -28 -27 
-26 -25 -24 -23 -22 -21 -20 -19 -18 
-17 -16 -15 -14 -13 -12 -11 -10 -9 
-8 -7 -6 -5 -4 -3 -2 -1 0 
1 2 3 4 5 6 7 8 9 
10 11 12 13 14 15 16 17 18 
19 20 21 22 23 24 25 26 27 
28 29 30 31 32 33 34 35 
