# vtk DataFile Version 4.2
vtk output
ASCII
DATASET POLYDATA
POINTS 78 float
-18.5559 18.6923 -6.32791 -18.3632 18.816 -5.86825 -18.0956 19.0107 -5.10241 
-17.893 19.1957 -4.13556 -17.8251 19.1816 -3.14223 -17.8861 18.9908 -2.17804 
-18.0503 18.7272 -1.24934 -18.2696 18.4661 -0.327158 -18.5103 18.2274 0.595354 
-18.7488 18.01 1.54062 -18.9655 17.7734 2.48697 -19.1644 17.4862 3.42321 
-19.3666 17.1439 4.3552 -19.5663 16.7265 5.23981 -19.7617 16.2332 6.08443 
-19.9449 15.6548 6.86177 -20.1385 15.0164 7.60311 -20.3409 14.3246 8.29306 
-20.5626 13.5798 8.91886 -20.7916 12.7818 9.47252 -21.0307 11.9434 9.95862 
-21.2996 11.0779 10.3755 -21.6198 10.1946 10.7092 -21.9851 9.30458 10.9749 
-22.3842 8.41493 11.1914 -22.8193 7.53306 11.3695 -23.2821 6.65782 11.5063 
-23.7893 5.79374 11.5973 -24.3187 4.9472 11.6098 -24.8537 4.10547 11.5651 
-25.3919 3.25436 11.4927 -25.8682 2.38623 11.3708 -26.3176 1.50731 11.2244 
-26.7401 0.624998 11.0269 -27.1477 -0.253266 10.7822 -27.5548 -1.12506 10.5157 
-27.9501 -1.97849 10.1924 -28.3547 -2.81077 9.80091 -28.6844 -3.43451 9.45268 
-29.0372 -4.05244 9.05742 -29.4909 -4.76002 8.54933 -29.9723 -5.43872 7.99686 
-30.4585 -6.08243 7.40816 -30.9356 -6.69025 6.77594 -31.3933 -7.26521 6.10144 
-31.8393 -7.78948 5.38105 -32.2635 -8.20534 4.58258 -32.656 -8.49407 3.71403 
-33.0215 -8.68925 2.80754 -33.3811 -8.80751 1.88607 -33.7513 -8.84504 0.960073 
-34.1397 -8.80029 0.0427665 -34.5398 -8.67473 -0.862283 -34.946 -8.46379 -1.74838 
-35.3527 -8.16645 -2.6092 -35.7503 -7.78811 -3.44174 -36.137 -7.33064 -4.23907 
-36.5013 -6.82175 -4.99236 -36.8598 -6.2438 -5.72441 -37.2083 -5.63664 -6.43803 
-37.5426 -5.00842 -7.13994 -37.8552 -4.35393 -7.82735 -38.1403 -3.67348 -8.50122 
-38.3949 -2.97024 -9.16368 -38.6188 -2.24045 -9.81018 -38.8163 -1.46778 -10.4455 
-38.976 -0.697718 -11.0618 -39.1002 0.0893341 -11.6648 -39.1846 0.893086 -12.2526 
-39.2263 1.70757 -12.8303 -39.2257 2.52911 -13.3992 -39.1843 3.36006 -13.9525 
-39.1061 4.18613 -14.4822 -38.9894 4.96238 -14.9986 -38.8371 5.68118 -15.5374 
-38.5358 6.0679 -16.0446 -38.208 6.35725 -16.5342 -38.1481 6.54759 -16.83 

LINES 1 79
78 0 1 2 3 4 5 6 7 8 9 10 11 12 13 14 15 16 17 18 19 20 21 22 23 24 25 26 27 28 29 30 31 32 33 34 35 36 37 38 39 40 41 42 43 44 45 46 47 48 49 50 51 52 53 54 55 56 57 58 59 60 61 62 63 64 65 66 67 68 69 70 71 72 73 74 75 76 77 

POINT_DATA 78
SCALARS SamplingDistance2Origin float 
LOOKUP_TABLE default
-38 -37 -36 -35 -34 -33 -32 -31 -30 
-29 -28 -27 -26 -25 -24 -23 -22 -21 
-20 -19 -18 -17 -16 -15 -14 -13 -12 
-11 -10 -9 -8 -7 -6 -5 -4 -3 
-2 -1 0 1 2 3 4 5 6 
7 8 9 10 11 12 13 14 15 
16 17 18 19 20 21 22 23 24 
25 26 27 28 29 30 31 32 33 
34 35 36 37 38 39 
