# vtk DataFile Version 4.2
vtk output
ASCII
DATASET POLYDATA
POINTS 50 float
-10.4624 -8.54391 -45.6541 -10.4849 -9.17564 -45.3444 -10.566 -9.07452 -44.4791 
-10.6266 -8.93611 -43.4926 -10.6526 -8.8266 -42.5015 -10.6395 -8.75346 -41.5077 
-10.5672 -8.71243 -40.5137 -10.4181 -8.69165 -39.5272 -10.2077 -8.68077 -38.5514 
-9.92376 -8.69963 -37.5943 -9.54122 -8.78322 -36.6782 -9.06972 -8.90966 -35.8095 
-8.55215 -9.02994 -34.9632 -8.04204 -9.13498 -34.111 -7.5945 -9.24039 -33.2279 
-7.22675 -9.37719 -32.3128 -6.92565 -9.57149 -31.384 -6.69648 -9.80604 -30.4449 
-6.55837 -10.0517 -29.4916 -6.48884 -10.3363 -28.5411 -6.44802 -10.7474 -27.6391 
-6.41639 -11.3677 -26.8163 -6.3766 -11.9799 -26.198 -6.3675 -12.7067 -25.6656 
-6.34253 -13.5247 -25.1703 -6.29336 -14.3927 -24.7508 -6.21082 -15.2839 -24.4488 
-6.10382 -16.1922 -24.3053 -5.98543 -17.1073 -24.3588 -5.85038 -18.0027 -24.6356 
-5.68112 -18.8411 -25.1135 -5.50705 -19.6396 -25.6551 -5.35272 -20.4535 -26.1758 
-5.226 -21.2982 -26.6588 -5.11719 -22.1694 -27.096 -5.00276 -23.0589 -27.4761 
-4.86366 -23.9544 -27.8143 -4.69606 -24.8461 -28.1478 -4.5091 -25.7326 -28.4916 
-4.47436 -26.5875 -28.7325 -4.9829 -27.4311 -28.5807 -5.54904 -28.2512 -28.4258 
-6.29541 -29.1219 -28.2592 -6.85563 -30.0621 -28.2237 -7.30522 -30.9739 -28.1476 
-7.75672 -31.8042 -27.8725 -8.19354 -32.5748 -27.4458 -8.65089 -33.1762 -26.8181 
-8.60113 -33.8306 -27.0633 -7.95894 -35.4401 -27.9542 
LINES 1 51
50 0 1 2 3 4 5 6 7 8 9 10 11 12 13 14 15 16 17 18 19 20 21 22 23 24 25 26 27 28 29 30 31 32 33 34 35 36 37 38 39 40 41 42 43 44 45 46 47 48 49 

POINT_DATA 50
SCALARS SamplingDistance2Origin float 
LOOKUP_TABLE default
-22 -21 -20 -19 -18 -17 -16 -15 -14 
-13 -12 -11 -10 -9 -8 -7 -6 -5 
-4 -3 -2 -1 0 1 2 3 4 
5 6 7 8 9 10 11 12 13 
14 15 16 17 18 19 20 21 22 
23 24 25 26 27 
