# vtk DataFile Version 4.2
vtk output
ASCII
DATASET POLYDATA
POINTS 49 float
-17.4959 -8.55632 -45.3282 -17.3561 -9.61689 -45.0117 -17.3724 -9.8248 -44.3672 
-17.3246 -9.67267 -43.4041 -17.3194 -9.53876 -42.4152 -17.3701 -9.43641 -41.4233 
-17.4726 -9.36715 -40.4328 -17.6151 -9.32136 -39.4466 -17.7942 -9.27968 -38.4652 
-18.0172 -9.25726 -37.492 -18.2938 -9.26829 -36.5325 -18.6246 -9.31422 -35.5914 
-18.9971 -9.38232 -34.6674 -19.3821 -9.44764 -33.7489 -19.7462 -9.50201 -32.8228 
-20.0841 -9.59545 -31.8903 -20.3974 -9.77132 -30.9614 -20.6471 -10.005 -30.0271 
-20.798 -10.2593 -29.0778 -20.8891 -10.5714 -28.1391 -20.9621 -11.0425 -27.2708 
-21.0398 -11.7357 -26.523 -21.1224 -12.403 -25.9792 -21.1709 -13.1535 -25.5137 
-21.2386 -14.0155 -25.0851 -21.3213 -14.9113 -24.767 -21.4226 -15.824 -24.5836 
-21.5372 -16.7438 -24.5596 -21.658 -17.6572 -24.713 -21.7966 -18.5389 -25.0572 
-21.9686 -19.3625 -25.5566 -22.1474 -20.1564 -26.1107 -22.3076 -20.9589 -26.6545 
-22.4477 -21.7828 -27.1731 -22.5871 -22.6245 -27.6583 -22.7492 -23.4775 -28.104 
-22.9437 -24.3351 -28.5184 -23.1682 -25.1874 -28.928 -23.3754 -26.0151 -29.3202 
-23.3129 -26.7952 -29.524 -22.7387 -27.6503 -29.37 -22.1915 -28.4453 -29.3082 
-21.2771 -29.3889 -29.0885 -20.5265 -30.4091 -28.9027 -20.0108 -31.3228 -28.788 
-19.5834 -32.1826 -28.5408 -19.1472 -32.9535 -28.1028 -18.7035 -33.6218 -27.5092 
-19.9338 -34.1572 -28.6432 
LINES 1 50
49 0 1 2 3 4 5 6 7 8 9 10 11 12 13 14 15 16 17 18 19 20 21 22 23 24 25 26 27 28 29 30 31 32 33 34 35 36 37 38 39 40 41 42 43 44 45 46 47 48 

POINT_DATA 49
SCALARS SamplingDistance2Origin float 
LOOKUP_TABLE default
-22 -21 -20 -19 -18 -17 -16 -15 -14 
-13 -12 -11 -10 -9 -8 -7 -6 -5 
-4 -3 -2 -1 0 1 2 3 4 
5 6 7 8 9 10 11 12 13 
14 15 16 17 18 19 20 21 22 
23 24 25 26 
