# vtk DataFile Version 4.2
vtk output
ASCII
DATASET POLYDATA
POINTS 105 float
-33.6806 45.6152 -5.0203 -34.0969 44.9997 -4.58596 -33.6547 44.8973 -4.13463 
-33.1015 44.6975 -3.68945 -32.5484 44.4344 -3.26704 -32.044 43.9618 -2.87909 
-31.5502 43.4005 -2.52753 -31.0729 42.7542 -2.22957 -30.6063 42.0139 -2.02439 
-30.1434 41.2035 -1.92933 -29.7062 40.3398 -1.93202 -29.3156 39.4457 -2.01635 
-29.007 38.5174 -2.14887 -28.79 37.5672 -2.3265 -28.6776 36.6068 -2.55286 
-28.6507 35.6487 -2.81566 -28.691 34.6967 -3.10044 -28.7611 33.7548 -3.40592 
-28.8451 32.8261 -3.74014 -28.9535 31.9222 -4.12283 -29.1235 31.0492 -4.55192 
-29.3645 30.1986 -4.99544 -29.6758 29.364 -5.4265 -30.0436 28.5433 -5.83457 
-30.4605 27.738 -6.2233 -30.9071 26.9463 -6.59514 -31.3632 26.1594 -6.94348 
-31.8103 25.3657 -7.25897 -32.2371 24.5595 -7.53372 -32.6402 23.7336 -7.78123 
-33.004 22.8727 -8.00833 -33.3171 21.9733 -8.22399 -33.5816 21.0491 -8.44263 
-33.8226 20.1187 -8.68966 -34.0512 19.1973 -8.98326 -34.2731 18.2869 -9.32464 
-34.4934 17.3929 -9.70643 -34.7304 16.5129 -10.1054 -35.0151 15.6414 -10.4864 
-35.3627 14.7732 -10.7969 -35.7743 13.9086 -10.9877 -36.2197 13.0499 -11.0633 
-36.6762 12.1984 -11.0415 -37.1324 11.3526 -10.9617 -37.5812 10.5082 -10.8482 
-38.0079 9.65152 -10.7143 -38.3961 8.77079 -10.5624 -38.742 7.86973 -10.3966 
-39.0429 6.92891 -10.2072 -39.3113 5.92653 -9.97302 -39.5215 4.96684 -9.71432 
-39.7188 4.04337 -9.42885 -39.9166 3.12807 -9.10792 -40.1185 2.22729 -8.76187 
-40.3172 1.33463 -8.40521 -40.4994 0.438267 -8.05544 -40.6507 -0.470268 -7.72338 
-40.7548 -1.39624 -7.41291 -40.7994 -2.33738 -7.12304 -40.7819 -3.28669 -6.84978 
-40.7171 -4.23698 -6.58209 -40.6264 -5.18521 -6.30882 -40.528 -6.13075 -6.02303 
-40.4356 -7.07316 -5.72114 -40.3578 -8.01192 -5.40238 -40.3003 -8.94529 -5.06428 
-40.2625 -9.87175 -4.70629 -40.2377 -10.791 -4.33336 -40.2097 -11.7048 -3.95308 
-40.1511 -12.6127 -3.55332 -40.0529 -13.5256 -3.18674 -39.8902 -14.4357 -2.83455 
-39.661 -15.3408 -2.50732 -39.3681 -16.2366 -2.20546 -39.0218 -17.1209 -1.92623 
-38.6333 -17.9935 -1.66605 -38.2172 -18.8588 -1.42284 -37.7848 -19.7201 -1.19603 
-37.3459 -20.5863 -1.00044 -36.9099 -21.4611 -0.843563 -36.4816 -22.3475 -0.735042 
-36.0581 -23.2432 -0.684613 -35.6328 -24.1411 -0.684665 -35.2049 -25.0351 -0.724656 
-34.7796 -25.9288 -0.82255 -34.3676 -26.8217 -0.95989 -33.9793 -27.7176 -1.12381 
-33.6194 -28.6179 -1.31 -33.2894 -29.5141 -1.53346 -32.9967 -30.3754 -1.82538 
-32.7469 -31.1914 -2.17986 -32.5563 -31.9586 -2.57838 -32.3759 -32.7032 -3.1459 
-32.1898 -33.4405 -3.91187 -32.085 -34.1003 -4.37405 -31.372 -34.7782 -4.59464 
-30.6535 -35.5374 -4.88509 -30.0184 -36.3883 -5.28546 -29.6064 -37.2324 -5.75447 
-28.4281 -38.5119 -6.3349 -27.4221 -39.8268 -6.9628 -26.9309 -40.5956 -7.38437 
-26.307 -41.2066 -7.61928 -25.8289 -41.6012 -7.23807 -26.1476 -42.4095 -7.24542 

LINES 1 106
105 0 1 2 3 4 5 6 7 8 9 10 11 12 13 14 15 16 17 18 19 20 21 22 23 24 25 26 27 28 29 30 31 32 33 34 35 36 37 38 39 40 41 42 43 44 45 46 47 48 49 50 51 52 53 54 55 56 57 58 59 60 61 62 63 64 65 66 67 68 69 70 71 72 73 74 75 76 77 78 79 80 81 82 83 84 85 86 87 88 89 90 91 92 93 94 95 96 97 98 99 100 101 102 103 104 

POINT_DATA 105
SCALARS SamplingDistance2Origin float 
LOOKUP_TABLE default
-49 -48 -47 -46 -45 -44 -43 -42 -41 
-40 -39 -38 -37 -36 -35 -34 -33 -32 
-31 -30 -29 -28 -27 -26 -25 -24 -23 
-22 -21 -20 -19 -18 -17 -16 -15 -14 
-13 -12 -11 -10 -9 -8 -7 -6 -5 
-4 -3 -2 -1 0 1 2 3 4 
5 6 7 8 9 10 11 12 13 
14 15 16 17 18 19 20 21 22 
23 24 25 26 27 28 29 30 31 
32 33 34 35 36 37 38 39 40 
41 42 43 44 45 46 47 48 49 
50 51 52 53 54 55 
