# vtk DataFile Version 4.2
vtk output
ASCII
DATASET POLYDATA
POINTS 96 float
10.3293 44.483 -5.97457 10.7194 43.6188 -5.67486 9.91996 43.5401 -5.31371 
9.20163 43.3382 -4.89026 8.39949 43.2107 -4.43921 7.55595 43.1068 -3.96975 
6.73367 42.9609 -3.50505 5.93851 42.7456 -3.06845 5.17862 42.4121 -2.69515 
4.46899 41.9208 -2.42125 3.86454 41.2575 -2.2817 3.30463 40.4764 -2.29397 
2.82388 39.6223 -2.425 2.44121 38.7249 -2.63698 2.17165 37.8021 -2.89368 
2.00556 36.8621 -3.17653 1.92389 35.9129 -3.46624 1.89418 34.9586 -3.75785 
1.8897 34.0073 -4.05687 1.92116 33.0671 -4.38971 2.04237 32.1431 -4.73866 
2.2798 31.2351 -5.05886 2.63285 30.3537 -5.35134 3.0726 29.5138 -5.64818 
3.57209 28.7119 -5.96365 4.0817 27.9276 -6.30254 4.56842 27.1368 -6.64896 
5.01681 26.3269 -6.99653 5.41917 25.4958 -7.34337 5.77102 24.6346 -7.67281 
6.03981 23.7306 -7.97242 6.2289 22.7926 -8.24543 6.40464 21.849 -8.51128 
6.57944 20.9166 -8.81701 6.76529 20.0071 -9.18117 6.96604 19.1232 -9.59727 
7.18053 18.26 -10.0493 7.4095 17.4098 -10.5182 7.66362 16.562 -10.9768 
7.96415 15.7013 -11.3693 8.32098 14.8202 -11.6262 8.71759 13.9331 -11.729 
9.1301 13.0484 -11.7139 9.5361 12.1617 -11.625 9.91526 11.2627 -11.4847 
10.258 10.3497 -11.313 10.5885 9.33704 -11.1083 10.8437 8.44879 -10.9113 
11.0808 7.49161 -10.6799 11.288 6.56389 -10.4332 11.4805 5.62526 -10.16 
11.6599 4.69325 -9.85952 11.8348 3.77262 -9.53016 12.0163 2.86469 -9.18108 
12.2047 1.96181 -8.83405 12.3897 1.05219 -8.50974 12.558 0.125547 -8.22521 
12.6979 -0.822683 -7.99084 12.8086 -1.78784 -7.80449 12.8946 -2.76386 -7.65089 
12.9611 -3.7448 -7.50801 13.0058 -4.72667 -7.35837 13.022 -5.70722 -7.1967 
13.0026 -6.6829 -7.01758 12.9486 -7.65325 -6.82509 12.8625 -8.61652 -6.61486 
12.7509 -9.57122 -6.38169 12.6168 -10.515 -6.12065 12.4596 -11.4477 -5.8363 
12.2712 -12.3702 -5.53696 12.0422 -13.2824 -5.23248 11.7645 -14.1834 -4.93252 
11.4368 -15.0714 -4.6418 11.0676 -15.9479 -4.36354 10.6727 -16.8184 -4.09848 
10.2627 -17.6875 -3.85092 9.84914 -18.5596 -3.6242 9.44209 -19.4433 -3.43079 
9.04015 -20.3401 -3.27966 8.63031 -21.2423 -3.17994 8.19965 -22.1405 -3.12594 
7.74263 -23.0273 -3.09696 7.26777 -23.9056 -3.09096 6.79119 -24.7818 -3.09649 
6.32401 -25.6629 -3.11732 5.87955 -26.5542 -3.14322 5.45992 -27.4565 -3.18087 
5.06352 -28.3669 -3.23776 4.68009 -29.2799 -3.3132 4.29983 -30.1933 -3.40327 
3.90924 -31.1016 -3.5051 3.48874 -32.0387 -3.64039 3.18804 -33.0474 -3.79294 
3.47871 -33.9468 -3.78917 3.82307 -34.9683 -3.29405 4.08469 -35.1318 -2.92694 

LINES 1 97
96 0 1 2 3 4 5 6 7 8 9 10 11 12 13 14 15 16 17 18 19 20 21 22 23 24 25 26 27 28 29 30 31 32 33 34 35 36 37 38 39 40 41 42 43 44 45 46 47 48 49 50 51 52 53 54 55 56 57 58 59 60 61 62 63 64 65 66 67 68 69 70 71 72 73 74 75 76 77 78 79 80 81 82 83 84 85 86 87 88 89 90 91 92 93 94 95 

POINT_DATA 96
SCALARS SamplingDistance2Origin float 
LOOKUP_TABLE default
-47 -46 -45 -44 -43 -42 -41 -40 -39 
-38 -37 -36 -35 -34 -33 -32 -31 -30 
-29 -28 -27 -26 -25 -24 -23 -22 -21 
-20 -19 -18 -17 -16 -15 -14 -13 -12 
-11 -10 -9 -8 -7 -6 -5 -4 -3 
-2 -1 0 1 2 3 4 5 6 
7 8 9 10 11 12 13 14 15 
16 17 18 19 20 21 22 23 24 
25 26 27 28 29 30 31 32 33 
34 35 36 37 38 39 40 41 42 
43 44 45 46 47 48 
