# vtk DataFile Version 4.2
vtk output
ASCII
DATASET POLYDATA
POINTS 74 float
-41.3276 21.9055 -23.4979 -41.4972 21.0643 -22.7578 -41.5821 20.1841 -22.376 
-41.5744 19.1081 -22.3691 -41.5097 17.9939 -22.3705 -41.5387 16.9871 -22.1484 
-41.6633 16.1093 -21.7066 -41.8536 15.311 -21.1889 -42.0183 14.4378 -20.7625 
-42.1721 13.6135 -20.2661 -42.3313 12.7779 -19.7561 -42.4996 11.9539 -19.2311 
-42.6813 11.1202 -18.7154 -42.8669 10.2808 -18.2142 -43.0591 9.42773 -17.7336 
-43.2477 8.56464 -17.2689 -43.418 7.70488 -16.8043 -43.5694 6.81643 -16.3717 
-43.6898 5.8988 -15.9722 -43.7566 4.98692 -15.5638 -43.776 4.08417 -15.1373 
-43.7575 3.20606 -14.6768 -43.7256 2.32463 -14.2221 -43.6833 1.43762 -13.7806 
-43.6287 0.544255 -13.3549 -43.5579 -0.352976 -12.9415 -43.4677 -1.25094 -12.5369 
-43.3593 -2.14763 -12.1375 -43.226 -3.03997 -11.7388 -43.0651 -3.92607 -11.3377 
-42.878 -4.80405 -10.9293 -42.6697 -5.67355 -10.5114 -42.4453 -6.53564 -10.0837 
-42.2125 -7.39347 -9.6476 -41.982 -8.25385 -9.20978 -41.7696 -9.12159 -8.77419 
-41.5609 -10.0728 -8.30763 -41.436 -10.9043 -7.89084 -41.2736 -11.7504 -7.47684 
-41.1136 -12.6181 -7.05033 -40.9243 -13.4931 -6.62224 -40.6902 -14.3616 -6.20524 
-40.4022 -15.2241 -5.80993 -40.0559 -16.0808 -5.44599 -39.6598 -16.9312 -5.11748 
-39.2217 -17.7745 -4.8223 -38.7545 -18.6144 -4.56037 -38.2707 -19.4557 -4.33181 
-37.7835 -20.3062 -4.14518 -37.3021 -21.1698 -4.00847 -36.8314 -22.0458 -3.92235 
-36.3711 -22.9311 -3.87907 -35.9165 -23.821 -3.87137 -35.4628 -24.7111 -3.89476 
-35.01 -25.6 -3.94643 -34.5619 -26.4896 -4.02007 -34.1262 -27.3833 -4.11012 
-33.7102 -28.285 -4.20556 -33.315 -29.1942 -4.30083 -32.9428 -30.1089 -4.40083 
-32.5961 -31.0227 -4.50996 -32.2993 -31.9346 -4.66851 -32.0807 -32.8402 -4.9125 
-31.8399 -33.6615 -5.1679 -31.4697 -34.4872 -5.45458 -30.5278 -35.4713 -5.7383 
-29.5764 -36.2904 -5.95927 -28.9713 -37.0921 -6.28149 -28.5626 -37.9117 -6.65911 
-27.9878 -38.6556 -7.04522 -27.4234 -39.4148 -7.46983 -27.2044 -40.2514 -7.87479 
-26.8598 -40.9192 -8.14328 -26.0642 -41.1375 -8.2319 
LINES 1 75
74 0 1 2 3 4 5 6 7 8 9 10 11 12 13 14 15 16 17 18 19 20 21 22 23 24 25 26 27 28 29 30 31 32 33 34 35 36 37 38 39 40 41 42 43 44 45 46 47 48 49 50 51 52 53 54 55 56 57 58 59 60 61 62 63 64 65 66 67 68 69 70 71 72 73 

POINT_DATA 74
SCALARS SamplingDistance2Origin float 
LOOKUP_TABLE default
-37 -36 -35 -34 -33 -32 -31 -30 -29 
-28 -27 -26 -25 -24 -23 -22 -21 -20 
-19 -18 -17 -16 -15 -14 -13 -12 -11 
-10 -9 -8 -7 -6 -5 -4 -3 -2 
-1 0 1 2 3 4 5 6 7 
8 9 10 11 12 13 14 15 16 
17 18 19 20 21 22 23 24 25 
26 27 28 29 30 31 32 33 34 
35 36 
