# vtk DataFile Version 4.2
vtk output
ASCII
DATASET POLYDATA
POINTS 68 float
12.9307 23.1222 -24.7973 13.1165 22.7035 -23.9844 13.4791 21.8442 -22.9884 
13.4631 20.8976 -22.87 13.4271 19.975 -22.7992 13.3805 19.0734 -22.3205 
13.3415 18.0052 -22.2784 13.4222 16.9618 -22.0558 13.6871 15.9362 -21.788 
13.9392 15.0207 -21.3768 14.0746 14.1412 -20.9487 14.1435 13.2759 -20.5256 
14.2761 12.4861 -19.921 14.395 11.6865 -19.3649 14.5393 10.8873 -18.8102 
14.7091 10.0635 -18.329 14.9093 9.25185 -17.7805 15.1217 8.40556 -17.3164 
15.3504 7.53072 -16.8941 15.5101 6.68788 -16.4149 15.6545 5.83482 -15.9516 
15.7676 4.97753 -15.4966 15.8433 4.11351 -15.0463 15.8712 3.24481 -14.5973 
15.8639 2.36823 -14.1622 15.8242 1.48384 -13.7329 15.7705 0.592605 -13.3223 
15.7097 -0.307146 -12.9258 15.6527 -1.21469 -12.5431 15.6057 -2.12891 -12.1736 
15.5664 -3.05091 -11.8196 15.5044 -3.95942 -11.4512 15.4087 -4.8588 -11.0716 
15.2769 -5.74985 -10.6789 15.1113 -6.63322 -10.2739 14.9239 -7.50112 -9.8645 
14.6456 -8.37745 -9.45987 14.4964 -9.17573 -9.01631 14.1732 -10.1003 -8.60667 
13.8852 -10.9616 -8.1981 13.5863 -11.821 -7.79245 13.2736 -12.6798 -7.39705 
12.9407 -13.5363 -7.01155 12.5824 -14.3894 -6.64198 12.1922 -15.2377 -6.29529 
11.7727 -16.0827 -5.97758 11.3352 -16.9283 -5.69037 10.8859 -17.7764 -5.42945 
10.4281 -18.6287 -5.19564 9.9683 -19.4883 -4.98694 9.52392 -20.3653 -4.81547 
9.09734 -21.2558 -4.673 8.67099 -22.1521 -4.56191 8.24084 -23.0496 -4.47573 
7.79603 -23.9408 -4.41308 7.3459 -24.8311 -4.36458 6.8979 -25.721 -4.33037 
6.49992 -26.6292 -4.29822 6.08938 -27.5379 -4.29329 5.72425 -28.4641 -4.30609 
5.37736 -29.3926 -4.34063 5.06309 -30.3315 -4.40406 4.84057 -31.2933 -4.49288 
4.65772 -32.2574 -4.60375 4.39484 -33.1589 -4.71152 4.13094 -33.8668 -4.652 
4.28205 -34.4899 -4.32225 4.43602 -35.0098 -4.19617 
LINES 1 69
68 0 1 2 3 4 5 6 7 8 9 10 11 12 13 14 15 16 17 18 19 20 21 22 23 24 25 26 27 28 29 30 31 32 33 34 35 36 37 38 39 40 41 42 43 44 45 46 47 48 49 50 51 52 53 54 55 56 57 58 59 60 61 62 63 64 65 66 67 

POINT_DATA 68
SCALARS SamplingDistance2Origin float 
LOOKUP_TABLE default
-36 -35 -34 -33 -32 -31 -30 -29 -28 
-27 -26 -25 -24 -23 -22 -21 -20 -19 
-18 -17 -16 -15 -14 -13 -12 -11 -10 
-9 -8 -7 -6 -5 -4 -3 -2 -1 
0 1 2 3 4 5 6 7 8 
9 10 11 12 13 14 15 16 17 
18 19 20 21 22 23 24 25 26 
27 28 29 30 31 
