# vtk DataFile Version 4.2
vtk output
ASCII
DATASET POLYDATA
POINTS 82 float
-19.8205 -25.4155 -18.7609 -19.6884 -24.1002 -18.2359 -19.7564 -23.2722 -18.43 
-19.9015 -22.6304 -18.8605 -20.1921 -22.2155 -19.6119 -20.5435 -21.7979 -20.3627 
-20.928 -21.335 -21.0369 -21.3193 -20.821 -21.605 -21.6831 -20.2665 -22.0611 
-22.003 -19.6851 -22.4318 -22.2921 -19.0664 -22.7494 -22.578 -18.3824 -23.0291 
-22.8635 -17.6193 -23.2845 -23.1266 -16.8028 -23.5457 -23.3475 -15.9611 -23.8434 
-23.5076 -15.1116 -24.1947 -23.5906 -14.2679 -24.6071 -23.5918 -13.4395 -25.0755 
-23.5117 -12.6377 -25.5764 -23.3744 -11.8423 -26.1072 -23.1865 -11.0468 -26.6319 
-22.9659 -10.233 -27.1202 -22.7438 -9.36639 -27.5359 -22.5429 -8.45096 -27.8215 
-22.3889 -7.49339 -27.904 -22.2773 -6.506 -27.7694 -22.144 -5.55013 -27.5417 
-21.9132 -4.62229 -27.271 -21.532 -3.765 -26.9808 -20.9726 -3.02277 -26.6321 
-20.2676 -2.4422 -26.2092 -19.4777 -2.01121 -25.7843 -18.6332 -1.63441 -25.4172 
-17.7546 -1.26872 -25.1309 -16.8427 -0.931726 -24.9199 -15.8919 -0.662766 -24.7842 
-14.9137 -0.485802 -24.6956 -13.9194 -0.410398 -24.6469 -13.0152 -0.419394 -24.64 
-12.1197 -0.539205 -24.6787 -11.1528 -0.766577 -24.7653 -10.2292 -1.09944 -24.9264 
-9.35521 -1.49032 -25.1786 -8.51195 -1.88415 -25.5172 -7.69354 -2.25377 -25.9436 
-6.91205 -2.64797 -26.4188 -6.20559 -3.19779 -26.8411 -5.63937 -3.94033 -27.181 
-5.25789 -4.81378 -27.4752 -5.05158 -5.74575 -27.7483 -4.95387 -6.70134 -27.9894 
-4.86756 -7.67774 -28.1088 -4.72149 -8.63655 -27.9977 -4.5149 -9.54155 -27.6695 
-4.26805 -10.3724 -27.218 -4.02753 -11.1604 -26.7007 -3.83512 -11.9325 -26.1502 
-3.69966 -12.7033 -25.611 -3.64344 -13.4992 -25.0846 -3.66188 -14.3166 -24.6052 
-3.75654 -15.1559 -24.1895 -3.92198 -16.0063 -23.8492 -4.14704 -16.8463 -23.5756 
-4.41572 -17.6551 -23.3359 -4.71646 -18.4022 -23.0827 -5.04479 -19.0643 -22.7803 
-5.39864 -19.6481 -22.4119 -5.78266 -20.1971 -21.9729 -6.17759 -20.7331 -21.4555 
-6.53306 -21.291 -20.9089 -6.82127 -21.9052 -20.4076 -7.11827 -22.4705 -19.8002 
-7.37712 -23.0598 -19.2177 -7.55533 -23.778 -18.8067 -7.41854 -25.1705 -19.3873 
-7.30582 -26.5956 -19.9752 -7.39303 -27.6681 -20.0361 -7.20515 -29.3626 -20.9647 
-7.61385 -29.9858 -20.3875 -8.04643 -30.6359 -19.8496 -8.0506 -31.1854 -20.1227 
-7.84354 -31.0159 -20.5369 
LINES 1 83
82 0 1 2 3 4 5 6 7 8 9 10 11 12 13 14 15 16 17 18 19 20 21 22 23 24 25 26 27 28 29 30 31 32 33 34 35 36 37 38 39 40 41 42 43 44 45 46 47 48 49 50 51 52 53 54 55 56 57 58 59 60 61 62 63 64 65 66 67 68 69 70 71 72 73 74 75 76 77 78 79 80 81 

POINT_DATA 82
SCALARS SamplingDistance2Origin float 
LOOKUP_TABLE default
-38 -37 -36 -35 -34 -33 -32 -31 -30 
-29 -28 -27 -26 -25 -24 -23 -22 -21 
-20 -19 -18 -17 -16 -15 -14 -13 -12 
-11 -10 -9 -8 -7 -6 -5 -4 -3 
-2 -1 0 1 2 3 4 5 6 
7 8 9 10 11 12 13 14 15 
16 17 18 19 20 21 22 23 24 
25 26 27 28 29 30 31 32 33 
34 35 36 37 38 39 40 41 42 
43 
