# vtk DataFile Version 4.2
vtk output
ASCII
DATASET POLYDATA
POINTS 93 float
-40.659 -17.6428 -32.8222 -40.0497 -17.0497 -32.7071 -39.2568 -17.0992 -32.8895 
-38.4178 -17.136 -33.1573 -37.5625 -17.254 -33.4401 -36.6207 -17.4 -33.7046 
-35.7639 -17.2933 -33.8124 -35.0759 -16.9178 -33.8435 -34.4034 -16.4086 -33.7275 
-33.6187 -15.8993 -33.4877 -32.8804 -15.3127 -33.2215 -32.2005 -14.6554 -32.9425 
-31.5746 -13.9412 -32.6673 -30.9923 -13.1841 -32.4062 -30.4403 -12.3965 -32.1605 
-29.9126 -11.587 -31.9218 -29.4073 -10.7617 -31.6801 -28.9227 -9.92696 -31.4263 
-28.4577 -9.08668 -31.1559 -28.0085 -8.24622 -30.8621 -27.5725 -7.40635 -30.5481 
-27.1402 -6.57188 -30.2154 -26.7017 -5.74586 -29.8704 -26.2486 -4.93047 -29.5197 
-25.7727 -4.12704 -29.1715 -25.2715 -3.33363 -28.8351 -24.7491 -2.54639 -28.5151 
-24.2271 -1.75237 -28.2103 -23.7278 -0.944987 -27.9091 -23.2632 -0.126184 -27.5906 
-22.8418 0.709154 -27.258 -22.4619 1.56665 -26.9297 -22.1018 2.44175 -26.617 
-21.7202 3.31617 -26.3226 -21.2817 4.1687 -26.0462 -20.7647 4.97515 -25.7728 
-20.1591 5.70506 -25.4727 -19.4698 6.33793 -25.137 -18.6906 6.8248 -24.7647 
-17.8215 7.07965 -24.3733 -16.898 7.07639 -24.0354 -15.956 6.89634 -23.7876 
-14.9976 6.66772 -23.6392 -14.0093 6.53413 -23.585 -13.0059 6.57015 -23.634 
-12.0168 6.7369 -23.7843 -11.069 6.89082 -24.0439 -10.1431 6.88177 -24.4028 
-9.27234 6.62398 -24.8058 -8.48592 6.15772 -25.1988 -7.7819 5.55156 -25.5643 
-7.15866 4.84924 -25.9041 -6.60876 4.08138 -26.2188 -6.10928 3.27778 -26.5101 
-5.63403 2.44314 -26.7795 -5.16589 1.59613 -27.0278 -4.68232 0.755428 -27.2786 
-4.19796 -0.0892585 -27.4757 -3.68648 -0.91678 -27.682 -3.13808 -1.714 -27.9268 
-2.57619 -2.49155 -28.2051 -2.0247 -3.26204 -28.5214 -1.50417 -4.04203 -28.8649 
-1.01923 -4.83809 -29.224 -0.564482 -5.65051 -29.5863 -0.13155 -6.47952 -29.9378 
0.289654 -7.32167 -30.2718 0.706645 -8.17529 -30.5808 1.12735 -9.03619 -30.8636 
1.55859 -9.90085 -31.1182 2.00458 -10.7642 -31.351 2.46447 -11.6247 -31.5655 
2.93385 -12.4813 -31.7689 3.41186 -13.33 -31.9739 3.90331 -14.1648 -32.1912 
4.42135 -14.9769 -32.4223 4.98611 -15.7542 -32.6583 5.61576 -16.4804 -32.882 
6.33136 -17.1235 -33.0751 7.13921 -17.6275 -33.1994 8.05924 -17.9252 -33.2487 
9.00869 -18.0345 -33.171 9.92842 -18.0585 -33.0109 10.7844 -17.9995 -32.74 
11.5364 -17.8182 -32.31 12.2744 -17.6969 -31.8414 12.5706 -17.7561 -31.0772 
12.7324 -17.859 -30.592 12.7214 -17.8976 -30.321 12.4577 -16.6298 -30.6083 
12.7853 -16.0909 -30.6391 12.5029 -15.7597 -30.7596 13.0814 -15.3041 -30.6748 

LINES 1 94
93 0 1 2 3 4 5 6 7 8 9 10 11 12 13 14 15 16 17 18 19 20 21 22 23 24 25 26 27 28 29 30 31 32 33 34 35 36 37 38 39 40 41 42 43 44 45 46 47 48 49 50 51 52 53 54 55 56 57 58 59 60 61 62 63 64 65 66 67 68 69 70 71 72 73 74 75 76 77 78 79 80 81 82 83 84 85 86 87 88 89 90 91 92 

POINT_DATA 93
SCALARS SamplingDistance2Origin float 
LOOKUP_TABLE default
-44 -43 -42 -41 -40 -39 -38 -37 -36 
-35 -34 -33 -32 -31 -30 -29 -28 -27 
-26 -25 -24 -23 -22 -21 -20 -19 -18 
-17 -16 -15 -14 -13 -12 -11 -10 -9 
-8 -7 -6 -5 -4 -3 -2 -1 0 
1 2 3 4 5 6 7 8 9 
10 11 12 13 14 15 16 17 18 
19 20 21 22 23 24 25 26 27 
28 29 30 31 32 33 34 35 36 
37 38 39 40 41 42 43 44 45 
46 47 48 
