# vtk DataFile Version 4.2
vtk output
ASCII
DATASET POLYDATA
POINTS 99 float
-23.7334 -34.5607 -31.3916 -23.4169 -34.909 -31.2521 -24.2182 -34.7056 -31.652 
-24.9717 -34.4184 -32.0948 -25.625 -33.8851 -32.4865 -26.2978 -33.3938 -32.8851 
-27.1651 -32.6531 -33.4151 -27.8741 -32.0632 -33.7659 -28.1373 -31.1443 -33.8298 
-28.5258 -30.2426 -33.9367 -28.6399 -29.3082 -33.8074 -28.8345 -28.4326 -33.6801 
-29.1053 -27.6092 -33.5437 -29.4638 -26.7985 -33.3953 -29.9051 -25.9732 -33.2803 
-30.2961 -25.1125 -33.2022 -30.5035 -24.18 -33.0861 -30.4656 -23.2377 -32.9236 
-30.2437 -22.3146 -32.7007 -29.9327 -21.4117 -32.4268 -29.596 -20.5314 -32.104 
-29.259 -19.6668 -31.7406 -28.9154 -18.8142 -31.3533 -28.5429 -17.9752 -30.963 
-28.1205 -17.1504 -30.597 -27.6446 -16.34 -30.2667 -27.1262 -15.5396 -29.9778 
-26.5777 -14.743 -29.7374 -26.0138 -13.9433 -29.5489 -25.4513 -13.1324 -29.4118 
-24.9093 -12.301 -29.3294 -24.4039 -11.4441 -29.3017 -23.9555 -10.5569 -29.3332 
-23.5717 -9.64155 -29.4066 -23.2505 -8.70356 -29.5021 -22.9652 -7.75367 -29.6058 
-22.6661 -6.80703 -29.6987 -22.3112 -5.87875 -29.7551 -21.8677 -4.98874 -29.7701 
-21.3346 -4.14903 -29.7545 -20.7179 -3.36803 -29.7193 -20.0357 -2.64428 -29.6663 
-19.2695 -2.05279 -29.555 -18.3892 -1.65723 -29.3564 -17.4622 -1.34403 -29.154 
-16.5171 -1.05688 -29.0313 -15.5505 -0.818239 -29.0047 -14.5655 -0.654079 -29.0398 
-13.5505 -0.61965 -29.0858 -12.4286 -0.618585 -29.0981 -11.3084 -0.966239 -29.1248 
-10.3534 -1.25685 -29.2008 -9.43353 -1.57228 -29.3869 -8.53363 -1.88214 -29.6548 
-7.6811 -2.31537 -29.8568 -6.93255 -2.96059 -29.9334 -6.25032 -3.69598 -29.9663 
-5.64379 -4.48694 -29.9843 -5.1549 -5.35165 -29.9602 -4.78871 -6.27077 -29.8844 
-4.52095 -7.21996 -29.7644 -4.29013 -8.17233 -29.5984 -4.03491 -9.11223 -29.4054 
-3.71318 -10.0345 -29.2276 -3.31154 -10.9345 -29.106 -2.84702 -11.8039 -29.0596 
-2.3344 -12.6525 -29.1036 -1.7942 -13.476 -29.2383 -1.24377 -14.2766 -29.4572 
-0.700691 -15.0623 -29.7438 -0.185826 -15.8487 -30.0803 0.288353 -16.6445 -30.4528 
0.714837 -17.4557 -30.8475 1.09973 -18.2827 -31.248 1.45809 -19.123 -31.6415 
1.80543 -19.9796 -32.0054 2.14938 -20.8554 -32.3246 2.47937 -21.7531 -32.5974 
2.74416 -22.6811 -32.8305 2.81767 -23.6391 -33.0162 2.59281 -24.5674 -33.134 
2.14405 -25.4297 -33.2012 1.66755 -26.2406 -33.2975 1.30997 -27.0523 -33.4537 
1.11585 -27.8974 -33.6652 1.06205 -28.7796 -33.9188 1.12473 -29.6913 -34.1998 
1.08628 -30.5554 -34.3542 -0.140273 -31.8264 -33.768 -0.52391 -32.7918 -33.5983 
-0.933643 -33.6646 -33.3717 -1.43736 -34.4492 -33.081 -2.03965 -35.1502 -32.7433 
-2.53684 -35.6872 -32.4412 -2.52702 -35.8788 -32.5147 -2.92891 -36.192 -32.4097 
-3.72756 -36.6175 -32.0422 -4.62964 -37.1171 -31.559 -5.3623 -38.0864 -30.239 

LINES 1 100
99 0 1 2 3 4 5 6 7 8 9 10 11 12 13 14 15 16 17 18 19 20 21 22 23 24 25 26 27 28 29 30 31 32 33 34 35 36 37 38 39 40 41 42 43 44 45 46 47 48 49 50 51 52 53 54 55 56 57 58 59 60 61 62 63 64 65 66 67 68 69 70 71 72 73 74 75 76 77 78 79 80 81 82 83 84 85 86 87 88 89 90 91 92 93 94 95 96 97 98 

POINT_DATA 99
SCALARS SamplingDistance2Origin float 
LOOKUP_TABLE default
-49 -48 -47 -46 -45 -44 -43 -42 -41 
-40 -39 -38 -37 -36 -35 -34 -33 -32 
-31 -30 -29 -28 -27 -26 -25 -24 -23 
-22 -21 -20 -19 -18 -17 -16 -15 -14 
-13 -12 -11 -10 -9 -8 -7 -6 -5 
-4 -3 -2 -1 0 1 2 3 4 
5 6 7 8 9 10 11 12 13 
14 15 16 17 18 19 20 21 22 
23 24 25 26 27 28 29 30 31 
32 33 34 35 36 37 38 39 40 
41 42 43 44 45 46 47 48 49 

