# vtk DataFile Version 4.2
vtk output
ASCII
DATASET POLYDATA
POINTS 78 float
-48.1219 24.9963 -14.5956 -48.6776 24.1916 -13.9069 -49.366 23.3744 -13.0402 
-49.9101 22.6151 -12.3399 -50.2469 21.8392 -11.8884 -50.3009 21.0011 -11.7182 
-50.1655 20.1801 -11.6588 -49.9902 19.3675 -11.5833 -49.9461 18.572 -11.3466 
-49.8732 17.7838 -11.1141 -49.6975 16.975 -10.9577 -49.5074 16.153 -10.7939 
-49.3274 15.3155 -10.5975 -49.1664 14.4551 -10.3716 -48.9399 13.6033 -10.1628 
-48.5443 12.7649 -10.0724 -48.1006 11.9281 -9.98709 -47.7008 11.0802 -9.83253 
-47.5961 10.1469 -9.42754 -47.2817 9.28459 -9.16118 -46.8769 8.46517 -8.92984 
-46.4333 7.67134 -8.69837 -45.9736 6.89583 -8.45092 -45.5276 6.12176 -8.17495 
-45.0963 5.34997 -7.88023 -44.6756 4.58426 -7.5659 -44.2701 3.82288 -7.2222 
-43.8776 3.06743 -6.84261 -43.5039 2.31797 -6.42313 -43.1567 1.57297 -5.96238 
-42.8312 0.831628 -5.46794 -42.5164 0.0944078 -4.94388 -42.1964 -0.63854 -4.40053 
-41.8618 -1.36671 -3.84676 -41.511 -2.092 -3.29052 -41.1494 -2.81529 -2.73411 
-40.7896 -3.5346 -2.17181 -40.4414 -4.25207 -1.5958 -40.1278 -4.95667 -1.02453 
-39.8346 -5.67077 -0.450335 -39.5808 -6.40792 0.132999 -39.3698 -7.15835 0.721819 
-39.1997 -7.91729 1.31884 -39.0618 -8.67768 1.92909 -38.9403 -9.43551 2.55123 
-38.8135 -10.1914 3.17685 -38.669 -10.9485 3.79617 -38.5098 -11.7086 4.40399 
-38.3448 -12.4722 4.99928 -38.1796 -13.242 5.57842 -38.0119 -14.0211 6.13679 
-37.8331 -14.8133 6.66957 -37.6365 -15.6235 7.1741 -37.4173 -16.4522 7.65172 
-37.1746 -17.4352 7.94504 -36.8536 -18.3043 8.32488 -36.4926 -19.1618 8.67366 
-36.13 -20.0325 8.97477 -35.7919 -20.9222 9.22643 -35.5347 -22.0904 9.01031 
-35.5497 -23.918 7.8465 -35.3717 -24.9197 7.57061 -35.2368 -25.8335 7.23485 
-35.1186 -26.7003 6.78036 -35.0549 -27.3832 6.40433 -35.0422 -27.9227 6.13711 
-35.0823 -28.2552 6.26302 -35.0592 -28.7818 5.78952 -35.0676 -29.248 5.29124 
-35.152 -29.5094 4.79051 -35.0833 -29.5948 2.90466 -35.1859 -29.7017 1.9817 
-35.5174 -29.6722 1.56158 -36.2802 -30.4057 1.10956 -37.6278 -32.5689 0.711296 
-38.8529 -35.0424 0.412697 -39.2368 -35.6531 0.319856 -39.4782 -36.2827 2.21674 

LINES 1 79
78 0 1 2 3 4 5 6 7 8 9 10 11 12 13 14 15 16 17 18 19 20 21 22 23 24 25 26 27 28 29 30 31 32 33 34 35 36 37 38 39 40 41 42 43 44 45 46 47 48 49 50 51 52 53 54 55 56 57 58 59 60 61 62 63 64 65 66 67 68 69 70 71 72 73 74 75 76 77 

POINT_DATA 78
SCALARS SamplingDistance2Origin float 
LOOKUP_TABLE default
-38 -37 -36 -35 -34 -33 -32 -31 -30 
-29 -28 -27 -26 -25 -24 -23 -22 -21 
-20 -19 -18 -17 -16 -15 -14 -13 -12 
-11 -10 -9 -8 -7 -6 -5 -4 -3 
-2 -1 0 1 2 3 4 5 6 
7 8 9 10 11 12 13 14 15 
16 17 18 19 20 21 22 23 24 
25 26 27 28 29 30 31 32 33 
34 35 36 37 38 39 
