# vtk DataFile Version 4.2
vtk output
ASCII
DATASET POLYDATA
POINTS 87 float
17.9597 27.4014 -18.6856 18.0914 27.0041 -18.4694 18.7114 26.3619 -17.6268 
18.988 25.6062 -17.0885 19.1599 24.8882 -16.6178 19.313 24.126 -16.1997 
19.3708 23.3153 -15.8781 19.6362 22.5509 -15.3783 19.7595 21.789 -15.0251 
19.6117 20.9971 -14.9019 19.5644 20.1974 -14.7006 19.849 19.4159 -14.1745 
20.1438 18.62 -13.5821 20.3539 17.8285 -13.0601 20.1754 16.9969 -12.8266 
20.1909 16.1865 -12.3832 20.2918 15.381 -11.8135 20.1128 14.5488 -11.4916 
19.9398 13.7353 -11.102 19.9332 12.92 -10.5582 19.8423 12.116 -10.0782 
19.4159 11.3185 -9.83824 18.9965 10.5226 -9.57091 18.5702 9.72942 -9.30331 
18.1527 8.94134 -9.01855 17.7238 8.15899 -8.73074 17.3022 7.38339 -8.42133 
16.8835 6.60977 -8.09842 16.4679 5.84578 -7.76172 16.0597 5.09165 -7.40955 
15.6693 4.34306 -7.03772 15.3035 3.59614 -6.64284 14.9628 2.85085 -6.2197 
14.6423 2.10827 -5.77034 14.34 1.37014 -5.29922 14.0589 0.633554 -4.81398 
13.7913 -0.0931529 -4.31111 13.5275 -0.821143 -3.80101 13.2725 -1.53818 -3.26749 
13.0286 -2.25649 -2.72415 12.7864 -2.96342 -2.15933 12.5357 -3.6834 -1.58451 
12.173 -4.57729 -0.720351 11.8004 -5.59331 0.0345369 11.5532 -6.30226 0.645753 
11.3411 -7.02381 1.22873 11.1571 -7.76321 1.80717 10.9944 -8.51742 2.3777 
10.8465 -9.28227 2.93689 10.708 -10.0557 3.47983 10.5714 -10.8377 4.00515 
10.4324 -11.6301 4.51312 10.2908 -12.4369 4.9988 10.139 -13.2485 5.47747 
9.97135 -14.076 5.93355 9.77234 -14.9149 6.37043 9.52823 -15.7647 6.77907 
9.23237 -16.6153 7.15899 8.89528 -17.4655 7.50532 8.5328 -18.3175 7.81398 
8.1632 -19.173 8.08122 7.73838 -20.1881 7.93579 7.27037 -21.4127 7.29875 
6.92769 -22.4714 6.95394 6.69705 -24.1318 5.60585 6.56388 -25.5959 4.5742 
6.29331 -26.503 4.3331 6.05511 -27.3029 4.18379 5.81324 -28.0905 4.03858 
5.42224 -28.9496 3.79762 4.96979 -29.8978 3.5769 4.58625 -30.7739 3.59212 
4.40705 -31.5667 3.62074 4.24523 -32.3498 3.65256 4.0834 -33.1347 3.69342 
3.92811 -33.9256 3.74494 3.77764 -34.7395 3.80873 3.65001 -35.5384 3.8496 
3.56585 -36.2964 3.95341 3.64564 -36.8276 4.51165 3.82579 -37.3244 5.22724 
3.99053 -37.8615 5.8583 3.40193 -38.6201 5.74507 2.8355 -39.0782 6.18177 
2.50043 -39.5405 6.55314 1.74693 -39.854 7.09295 0.50601 -39.4416 9.24636 

LINES 1 88
87 0 1 2 3 4 5 6 7 8 9 10 11 12 13 14 15 16 17 18 19 20 21 22 23 24 25 26 27 28 29 30 31 32 33 34 35 36 37 38 39 40 41 42 43 44 45 46 47 48 49 50 51 52 53 54 55 56 57 58 59 60 61 62 63 64 65 66 67 68 69 70 71 72 73 74 75 76 77 78 79 80 81 82 83 84 85 86 

POINT_DATA 87
SCALARS SamplingDistance2Origin float 
LOOKUP_TABLE default
-42 -41 -40 -39 -38 -37 -36 -35 -34 
-33 -32 -31 -30 -29 -28 -27 -26 -25 
-24 -23 -22 -21 -20 -19 -18 -17 -16 
-15 -14 -13 -12 -11 -10 -9 -8 -7 
-6 -5 -4 -3 -2 -1 0 1 2 
3 4 5 6 7 8 9 10 11 
12 13 14 15 16 17 18 19 20 
21 22 23 24 25 26 27 28 29 
30 31 32 33 34 35 36 37 38 
39 40 41 42 43 44 
