# vtk DataFile Version 4.2
vtk output
ASCII
DATASET POLYDATA
POINTS 64 float
-3.33785 1.18224 -8.85184 -2.5624 1.42377 -8.69629 -3.30696 1.39001 -8.37025 
-3.60519 1.1061 -7.90797 -3.2258 1.05392 -7.45321 -2.38367 1.31094 -6.99077 
-1.59381 1.52702 -6.49556 -0.828777 1.74231 -5.98871 -0.0453314 1.94559 -5.45704 
0.730298 2.12227 -4.88101 1.48918 2.21943 -4.22603 2.19222 2.22359 -3.4956 
2.69794 2.20496 -2.74013 3.16678 2.05034 -1.91758 3.57268 1.79525 -1.05532 
3.8848 1.4562 -0.188072 4.13375 1.05405 0.677487 4.32953 0.600901 1.531 
4.48217 0.10817 2.36932 4.60139 -0.41408 3.19445 4.70355 -0.965109 4.00917 
4.79167 -1.5218 4.81976 4.87805 -2.06709 5.63203 5.03454 -2.66917 6.43816 
5.20606 -3.25029 7.23271 5.34391 -3.73436 8.07127 5.49773 -4.22476 8.92278 
5.64192 -4.70025 9.78589 5.75528 -5.16265 10.6584 5.81453 -5.62879 11.5318 
5.79746 -6.10916 12.3976 5.68619 -6.60786 13.2456 5.49173 -7.16379 14.0167 
4.98994 -7.68372 15.0209 4.33413 -8.14199 15.9735 3.78516 -8.53993 16.694 
3.30122 -8.89808 17.4661 3.01524 -9.52356 18.19 2.83494 -10.1898 18.9277 
2.69058 -10.8296 19.6783 2.55498 -11.4721 20.4334 2.41052 -12.0869 21.2095 
2.24957 -12.6742 22.0003 2.07203 -13.2432 22.8033 1.88062 -13.7968 23.6134 
1.67793 -14.3364 24.4284 1.46776 -14.8741 25.2448 1.25189 -15.4137 26.0574 
1.03067 -15.9608 26.8637 0.80352 -16.5218 27.6586 0.570676 -17.1057 28.4351 
0.335486 -17.7191 29.1874 0.10177 -18.3608 29.9156 -0.129328 -19.0298 30.619 
-0.367016 -19.7302 31.2778 -0.613968 -20.4491 31.9152 -0.877013 -21.1696 32.5588 
-1.15138 -21.8617 33.2206 -1.41362 -22.5264 33.8961 -1.67931 -23.1952 34.5711 
-1.97125 -23.9043 35.2076 -2.2573 -24.6853 35.7956 -2.56884 -25.6198 36.2837 
-2.88703 -27.1017 36.3713 
LINES 1 65
64 0 1 2 3 4 5 6 7 8 9 10 11 12 13 14 15 16 17 18 19 20 21 22 23 24 25 26 27 28 29 30 31 32 33 34 35 36 37 38 39 40 41 42 43 44 45 46 47 48 49 50 51 52 53 54 55 56 57 58 59 60 61 62 63 

POINT_DATA 64
SCALARS SamplingDistance2Origin float 
LOOKUP_TABLE default
-33 -32 -31 -30 -29 -28 -27 -26 -25 
-24 -23 -22 -21 -20 -19 -18 -17 -16 
-15 -14 -13 -12 -11 -10 -9 -8 -7 
-6 -5 -4 -3 -2 -1 0 1 2 
3 4 5 6 7 8 9 10 11 
12 13 14 15 16 17 18 19 20 
21 22 23 24 25 26 27 28 29 
30 
