# vtk DataFile Version 4.2
vtk output
ASCII
DATASET POLYDATA
POINTS 48 float
-4.75511 -7.23826 -1.32963 -4.69495 -7.28703 -1.45365 -3.82121 -7.38803 -1.70855 
-4.61058 -5.83349 -2.95643 -5.04085 -5.19552 -3.70692 -4.60027 -5.03203 -4.00627 
-3.40584 -5.22052 -4.1484 -2.44274 -5.13412 -4.43376 -1.5399 -4.91069 -4.77677 
-0.666483 -4.62013 -5.14979 0.15819 -4.25564 -5.55908 0.92782 -3.82554 -6.00144 
1.65204 -3.33999 -6.44663 2.34691 -2.81951 -6.85346 2.99847 -2.27469 -7.20586 
3.59836 -1.67332 -7.50837 4.11182 -0.973687 -7.81059 4.46388 -0.142885 -8.13452 
4.62854 0.756518 -8.4621 4.59654 1.69599 -8.74418 4.40179 2.61862 -9.01121 
4.08971 3.51851 -9.27773 3.7105 4.38672 -9.57621 3.31253 5.23992 -9.90632 
2.82039 6.31828 -10.3437 2.58497 6.85354 -10.5432 2.28468 7.54532 -10.8149 
1.92345 8.35916 -11.1349 1.49603 9.19589 -11.4742 1.0063 9.99354 -11.8221 
0.445698 10.7456 -12.1652 -0.171886 11.4678 -12.4736 -0.82888 12.1777 -12.7238 
-1.51787 12.875 -12.9148 -2.24391 13.5445 -13.0572 -3.01449 14.1669 -13.1702 
-3.83319 14.7219 -13.2911 -4.69828 15.192 -13.4471 -5.58515 15.5846 -13.6447 
-6.5057 15.9174 -13.8881 -7.39684 16.2131 -14.1981 -8.24603 16.5038 -14.6152 
-9.01136 16.8239 -15.153 -9.67766 17.1921 -15.788 -10.2529 17.6662 -16.5941 
-10.6703 18.1722 -16.9863 -11.2036 18.7488 -16.8637 -11.5204 19.0977 -17.0615 

LINES 1 49
48 0 1 2 3 4 5 6 7 8 9 10 11 12 13 14 15 16 17 18 19 20 21 22 23 24 25 26 27 28 29 30 31 32 33 34 35 36 37 38 39 40 41 42 43 44 45 46 47 

POINT_DATA 48
SCALARS SamplingDistance2Origin float 
LOOKUP_TABLE default
-25 -24 -23 -22 -21 -20 -19 -18 -17 
-16 -15 -14 -13 -12 -11 -10 -9 -8 
-7 -6 -5 -4 -3 -2 -1 0 1 
2 3 4 5 6 7 8 9 10 
11 12 13 14 15 16 17 18 19 
20 21 22 
