# vtk DataFile Version 4.2
vtk output
ASCII
DATASET POLYDATA
POINTS 66 float
-24.7371 -34.3318 22.8634 -25.2472 -34.2254 21.5178 -25.8399 -33.6621 20.6204 
-26.4355 -33.424 19.2656 -26.8389 -32.7854 18.5707 -27.2764 -32.2272 17.7312 
-27.7582 -31.687 16.91 -28.1678 -31.0892 16.1641 -28.5671 -30.3605 15.6513 
-29.0588 -29.6959 14.9732 -30.2392 -29.4663 13.277 -30.8145 -29.0035 12.5317 
-31.1505 -28.4355 12.0753 -31.5033 -27.795 11.7412 -31.7485 -27.0255 11.6133 
-31.9739 -26.256 11.502 -32.1883 -25.4896 11.3914 -32.3916 -24.7144 11.2627 
-32.5694 -23.8968 11.0944 -32.7307 -23.0498 10.8583 -32.9159 -22.1896 10.5699 
-33.1816 -21.3399 10.2705 -33.5515 -20.5269 9.96639 -33.9792 -19.753 9.61479 
-34.4139 -19.0167 9.17138 -34.8152 -18.3042 8.64074 -35.1571 -17.5941 8.05012 
-35.444 -16.8804 7.42916 -35.681 -16.1412 6.81483 -35.8897 -15.3832 6.21312 
-36.0757 -14.6049 5.63579 -36.2356 -13.8082 5.08048 -36.3566 -12.9935 4.54292 
-36.4409 -12.0675 3.94553 -36.4601 -11.2164 3.41493 -36.4351 -10.3711 2.88982 
-36.367 -9.51429 2.38736 -36.2518 -8.63973 1.92242 -36.0881 -7.75073 1.50533 
-35.8607 -6.85401 1.14242 -35.5723 -5.96143 0.817656 -35.2241 -5.08622 0.508145 
-34.8231 -4.23996 0.189932 -34.3604 -3.44459 -0.162186 -33.8446 -2.71518 -0.568544 
-33.3173 -2.06893 -1.07922 -32.8479 -1.49829 -1.7201 -32.4065 -1.00362 -2.4509 
-31.9458 -0.587148 -3.22146 -31.3824 -0.298551 -3.96184 -30.6638 -0.210862 -4.56461 
-29.8294 -0.334361 -5.01971 -28.969 -0.565669 -5.43117 -28.1103 -0.851522 -5.82769 
-27.2466 -1.18172 -6.14952 -26.3742 -1.55525 -6.30218 -25.4794 -1.92093 -6.34438 
-24.5572 -2.2326 -6.34605 -23.6133 -2.48438 -6.34126 -22.7244 -2.7075 -6.30266 
-22.0682 -2.95206 -6.16315 -21.3876 -3.14692 -6.09799 -21.3113 -3.16829 -6.87873 
-20.7464 -3.4691 -7.36014 -20.0709 -3.84917 -8.30487 -19.6642 -4.22288 -8.99486 

LINES 1 67
66 0 1 2 3 4 5 6 7 8 9 10 11 12 13 14 15 16 17 18 19 20 21 22 23 24 25 26 27 28 29 30 31 32 33 34 35 36 37 38 39 40 41 42 43 44 45 46 47 48 49 50 51 52 53 54 55 56 57 58 59 60 61 62 63 64 65 

POINT_DATA 66
SCALARS SamplingDistance2Origin float 
LOOKUP_TABLE default
-33 -32 -31 -30 -29 -28 -27 -26 -25 
-24 -23 -22 -21 -20 -19 -18 -17 -16 
-15 -14 -13 -12 -11 -10 -9 -8 -7 
-6 -5 -4 -3 -2 -1 0 1 2 
3 4 5 6 7 8 9 10 11 
12 13 14 15 16 17 18 19 20 
21 22 23 24 25 26 27 28 29 
30 31 32 
