# vtk DataFile Version 4.2
vtk output
ASCII
DATASET POLYDATA
POINTS 50 float
-18.1562 17.9779 -17.259 -18.4841 17.4673 -16.9712 -18.9189 16.9534 -16.2663 
-19.4687 16.498 -15.5671 -20.1317 16.084 -14.9498 -20.8863 15.678 -14.4422 
-21.6971 15.2551 -14.0462 -22.5317 14.792 -13.7579 -23.3699 14.2881 -13.559 
-24.1902 13.7366 -13.4171 -24.9729 13.13 -13.2883 -25.7129 12.4763 -13.1379 
-26.4178 11.7938 -12.9485 -27.095 11.0958 -12.7175 -27.7458 10.3852 -12.4517 
-28.3536 9.6532 -12.1462 -28.9027 8.88719 -11.8145 -29.3917 8.08107 -11.4832 
-29.8387 7.2427 -11.1724 -30.2826 6.37109 -10.8723 -30.6029 5.78679 -10.6481 
-30.909 5.13214 -10.4686 -31.3396 4.3097 -10.2388 -31.7773 3.42881 -10.0705 
-32.166 2.51079 -9.99776 -32.4458 1.55497 -9.96957 -32.5963 0.575192 -9.89261 
-32.6117 -0.397293 -9.69624 -32.5011 -1.3305 -9.37741 -32.2816 -2.20835 -8.96501 
-31.9831 -3.02956 -8.48955 -31.6151 -3.79342 -7.96828 -31.1943 -4.50519 -7.41459 
-30.7203 -5.16334 -6.83884 -30.1887 -5.76638 -6.25516 -29.5883 -6.31062 -5.68226 
-28.912 -6.78923 -5.13694 -28.1604 -7.18975 -4.62836 -27.5056 -7.53062 -4.13649 
-27.3283 -7.94975 -3.58522 -26.8873 -8.17713 -2.99523 -25.9668 -8.26193 -2.56691 
-25.1751 -8.3501 -2.23543 -24.4321 -8.3906 -1.79437 -23.3947 -8.33944 -1.49656 
-22.5341 -8.19338 -1.21158 -21.8462 -8.07936 -0.968919 -20.9341 -7.73592 -0.75663 
-20.0606 -7.28899 -0.577702 -19.5508 -7.17692 -0.511846 
LINES 1 51
50 0 1 2 3 4 5 6 7 8 9 10 11 12 13 14 15 16 17 18 19 20 21 22 23 24 25 26 27 28 29 30 31 32 33 34 35 36 37 38 39 40 41 42 43 44 45 46 47 48 49 

POINT_DATA 50
SCALARS SamplingDistance2Origin float 
LOOKUP_TABLE default
-20 -19 -18 -17 -16 -15 -14 -13 -12 
-11 -10 -9 -8 -7 -6 -5 -4 -3 
-2 -1 0 1 2 3 4 5 6 
7 8 9 10 11 12 13 14 15 
16 17 18 19 20 21 22 23 24 
25 26 27 28 29 
