# vtk DataFile Version 4.2
vtk output
ASCII
DATASET POLYDATA
POINTS 116 float
-0.382533 -20.1289 32.5864 -0.457105 -17.9201 32.5646 -0.367964 -15.5076 32.7468 
-0.12897 -13.6094 32.7193 0.089482 -13.3681 31.8039 0.321072 -12.9479 30.9835 
0.55341 -12.5112 30.1635 0.787809 -12.1023 29.3264 1.02043 -11.6891 28.4907 
1.26646 -11.3132 27.6138 1.62897 -11.256 26.4267 1.93646 -11.0209 25.4485 
2.18922 -10.5719 24.7009 2.4526 -10.1188 23.9656 2.71809 -9.65551 23.2373 
2.97828 -9.17464 22.5144 3.23657 -8.6913 21.7867 3.54147 -8.3529 20.9543 
3.85681 -8.0187 20.1259 4.15129 -7.4824 19.428 4.47295 -6.90884 18.7536 
4.82042 -6.33505 18.0814 5.17819 -5.76886 17.4032 5.53354 -5.21575 16.7127 
5.86303 -4.65766 16.0123 6.1227 -4.08875 15.2927 6.28269 -3.51037 14.5446 
6.34881 -2.95318 13.776 6.34438 -2.4301 12.9833 6.29294 -1.94916 12.1689 
6.20989 -1.50962 11.3368 6.10387 -1.10294 10.4919 5.98323 -0.717163 9.63945 
5.85866 -0.341612 8.78422 5.74058 0.0321257 7.93124 5.63696 0.410068 7.0857 
5.54579 0.79763 6.25111 5.45536 1.19563 5.42683 5.35176 1.60111 4.61004 
5.22463 2.00905 3.79722 5.06767 2.41432 2.98457 4.87649 2.81176 2.16822 
4.64715 3.19641 1.34568 4.37716 3.56318 0.516045 4.06801 3.9066 -0.321251 
3.72372 4.22118 -1.16627 3.34998 4.50309 -2.01903 2.95052 4.75345 -2.87617 
2.52213 4.97547 -3.72971 2.05061 5.16714 -4.56718 1.5111 5.31312 -5.37176 
0.893301 5.37253 -6.12657 0.212685 5.31346 -6.8364 -0.516415 5.0707 -7.57028 
-1.29959 4.90506 -8.30923 -2.0095 4.67744 -8.95397 -2.6817 4.42678 -9.63222 
-3.33006 4.14351 -10.3184 -3.94853 3.82588 -11.0177 -4.54756 3.48425 -11.7233 
-5.13607 3.14481 -12.4425 -5.71236 2.8299 -13.1857 -6.26989 2.55243 -13.9594 
-6.79543 2.31326 -14.7677 -7.26901 2.09986 -15.6134 -7.66971 1.90647 -16.4986 
-7.98948 1.72593 -17.4177 -8.23005 1.54654 -18.3603 -8.39567 1.35657 -19.316 
-8.48645 1.14777 -20.2758 -8.48581 0.900982 -21.2248 -8.37212 0.613749 -22.1421 
-8.12367 0.278717 -23.0075 -7.75278 -0.102499 -23.8025 -7.28523 -0.570804 -24.5006 
-6.76898 -1.11039 -25.1066 -6.23733 -1.7374 -25.6249 -5.71396 -2.43953 -26.0701 
-5.20916 -3.18405 -26.4714 -4.72538 -3.97191 -26.8484 -4.26578 -4.76818 -27.2088 
-3.83496 -5.59198 -27.5319 -3.43229 -6.43713 -27.7955 -3.04938 -7.29179 -27.9937 
-2.69567 -8.15647 -28.1269 -2.3722 -9.02625 -28.2048 -2.07094 -9.89915 -28.2422 
-1.78551 -10.7699 -28.2594 -1.52453 -11.6521 -28.2491 -1.27649 -12.5339 -28.2431 
-1.04856 -13.4167 -28.247 -0.844521 -14.2974 -28.268 -0.669668 -15.1704 -28.307 
-0.528452 -16.0278 -28.3615 -0.420944 -16.8631 -28.4309 -0.335013 -17.673 -28.5127 
-0.247211 -18.4579 -28.6005 -0.13397 -19.2154 -28.6811 0.0213567 -19.9441 -28.741 
0.26098 -20.6874 -28.8333 0.568164 -21.4547 -28.9403 0.967526 -22.0129 -29.0104 
1.24185 -22.4491 -28.8025 1.84294 -23.0397 -28.9698 2.49341 -23.6621 -29.2027 
3.18653 -24.2885 -29.5624 3.96229 -24.8356 -29.9951 4.86898 -25.303 -30.4614 
5.94953 -25.5835 -30.9846 6.31681 -26.0105 -31.6337 5.665 -26.8144 -33.7255 
6.13686 -27.1444 -35.3264 7.16255 -26.7325 -37.0506 7.46448 -26.5779 -37.0453 
8.49375 -25.6968 -36.7175 8.49944 -26.9791 -34.7989 
LINES 1 117
116 0 1 2 3 4 5 6 7 8 9 10 11 12 13 14 15 16 17 18 19 20 21 22 23 24 25 26 27 28 29 30 31 32 33 34 35 36 37 38 39 40 41 42 43 44 45 46 47 48 49 50 51 52 53 54 55 56 57 58 59 60 61 62 63 64 65 66 67 68 69 70 71 72 73 74 75 76 77 78 79 80 81 82 83 84 85 86 87 88 89 90 91 92 93 94 95 96 97 98 99 100 101 102 103 104 105 106 107 108 109 110 111 112 113 114 115 

POINT_DATA 116
SCALARS SamplingDistance2Origin float 
LOOKUP_TABLE default
-53 -52 -51 -50 -49 -48 -47 -46 -45 
-44 -43 -42 -41 -40 -39 -38 -37 -36 
-35 -34 -33 -32 -31 -30 -29 -28 -27 
-26 -25 -24 -23 -22 -21 -20 -19 -18 
-17 -16 -15 -14 -13 -12 -11 -10 -9 
-8 -7 -6 -5 -4 -3 -2 -1 0 
1 2 3 4 5 6 7 8 9 
10 11 12 13 14 15 16 17 18 
19 20 21 22 23 24 25 26 27 
28 29 30 31 32 33 34 35 36 
37 38 39 40 41 42 43 44 45 
46 47 48 49 50 51 52 53 54 
55 56 57 58 59 60 61 62 
