# vtk DataFile Version 4.2
vtk output
ASCII
DATASET POLYDATA
POINTS 126 float
-27.7614 -17.6323 32.8262 -27.757 -15.4431 33.0452 -27.8843 -14.9557 32.3134 
-28.059 -14.5308 31.5465 -28.2594 -14.1184 30.7954 -28.4545 -13.7081 29.9859 
-28.6841 -13.3817 29.0946 -28.9367 -13.183 28.0687 -29.3747 -13.6992 26.2499 
-29.5966 -13.2827 25.5654 -29.8297 -12.8563 24.8982 -30.0728 -12.424 24.2372 
-30.3251 -11.9868 23.5763 -30.5867 -11.5436 22.914 -30.8556 -11.0893 22.249 
-31.1389 -10.6762 21.5345 -31.4762 -10.5379 20.6049 -31.8222 -10.4256 19.6659 
-32.1382 -9.94949 18.9613 -32.4734 -9.37005 18.3167 -32.8342 -8.77619 17.6831 
-33.2136 -8.17528 17.0555 -33.6027 -7.57564 16.4264 -33.9747 -6.979 15.785 
-34.271 -6.38334 15.1152 -34.4502 -5.77259 14.4128 -34.5244 -5.18675 13.666 
-34.5158 -4.62188 12.9094 -34.4578 -4.08962 12.1327 -34.3693 -3.57993 11.3413 
-34.2705 -3.13076 10.5178 -34.1525 -2.65868 9.71053 -34.0343 -2.2366 8.8804 
-33.9035 -1.78352 8.07636 -33.781 -1.3594 7.26581 -33.6636 -0.923365 6.47375 
-33.5488 -0.479065 5.69435 -33.4239 -0.0255753 4.92549 -33.2786 0.433466 4.16356 
-33.1081 0.892663 3.40335 -32.9107 1.34773 2.63968 -32.6827 1.7946 1.86879 
-32.4206 2.22764 1.08837 -32.1213 2.63901 0.296989 -31.7861 3.02083 -0.507388 
-31.42 3.36593 -1.32748 -31.0304 3.66972 -2.16289 -30.6139 3.93761 -3.00516 
-30.1667 4.16985 -3.84598 -29.6705 4.36631 -4.66643 -29.1013 4.50482 -5.44538 
-28.4572 4.54991 -6.16968 -27.7892 4.50294 -6.83874 -26.9585 4.30984 -7.63067 
-26.1577 4.10846 -8.39407 -25.4466 3.89711 -9.05583 -24.7474 3.65249 -9.69492 
-24.0601 3.3523 -10.3244 -23.4069 2.99742 -10.9618 -22.7922 2.61789 -11.6253 
-22.2083 2.25092 -12.3274 -21.6557 1.92977 -13.0816 -21.1439 1.6676 -13.8873 
-20.6843 1.45845 -14.7366 -20.2917 1.28998 -15.6249 -19.9722 1.14672 -16.5449 
-19.7283 1.02573 -17.493 -19.5531 0.905426 -18.4537 -19.4418 0.77017 -19.4217 
-19.4021 0.599055 -20.3882 -19.4564 0.3743 -21.3388 -19.6152 0.0787807 -22.239 
-19.8772 -0.275229 -23.0819 -20.2312 -0.698164 -23.8648 -20.6474 -1.2223 -24.5576 
-21.0949 -1.83537 -25.1626 -21.5632 -2.52437 -25.6817 -22.037 -3.2539 -26.1341 
-22.5187 -4.01924 -26.531 -22.9944 -4.80639 -26.8882 -23.4557 -5.61482 -27.1991 
-23.8863 -6.45705 -27.4424 -24.2952 -7.29141 -27.6099 -24.6771 -8.14109 -27.7042 
-25.0195 -8.9946 -27.7414 -25.3156 -9.84103 -27.7334 -25.5923 -10.7029 -27.6954 
-25.8355 -11.5679 -27.6354 -26.0505 -12.4364 -27.5646 -26.2312 -13.3006 -27.4909 
-26.3903 -14.1697 -27.4224 -26.516 -15.021 -27.3617 -26.6295 -15.8474 -27.328 
-26.7002 -16.6389 -27.2793 -26.7852 -17.4039 -27.271 -26.8787 -18.0852 -27.259 
-27.072 -18.6714 -27.3359 -27.3263 -19.1293 -27.3884 -27.7973 -19.6801 -27.6443 
-28.2515 -20.2268 -27.7538 -28.7608 -20.7492 -27.856 -29.4796 -21.2968 -28.1442 
-30.2426 -21.8892 -28.4884 -30.7645 -22.4932 -28.7343 -31.4113 -23.0397 -29.0794 
-31.835 -23.7439 -29.6127 -31.733 -24.4402 -29.7734 -31.4614 -25.1461 -30.0218 
-30.6025 -26.1593 -30.2495 -30.3634 -27.0532 -30.9827 -30.8582 -27.8743 -32.2231 
-31.8316 -28.4287 -33.6308 -33.0839 -28.7756 -35.1688 -32.9033 -29.4611 -34.795 
-32.3708 -30.4841 -34.5027 -31.5355 -31.3257 -34.2936 -30.1901 -32.0941 -33.8164 
-29.2362 -32.9578 -33.7043 -28.1918 -34.1982 -32.9632 -26.5997 -35.7116 -31.9863 
-25.9871 -36.2358 -31.6304 -25.1372 -36.6385 -31.2952 -24.3256 -37.0247 -30.9851 
-23.5446 -37.361 -30.6855 -22.7295 -37.686 -30.3624 -21.9071 -38.1154 -29.9948 

LINES 1 127
126 0 1 2 3 4 5 6 7 8 9 10 11 12 13 14 15 16 17 18 19 20 21 22 23 24 25 26 27 28 29 30 31 32 33 34 35 36 37 38 39 40 41 42 43 44 45 46 47 48 49 50 51 52 53 54 55 56 57 58 59 60 61 62 63 64 65 66 67 68 69 70 71 72 73 74 75 76 77 78 79 80 81 82 83 84 85 86 87 88 89 90 91 92 93 94 95 96 97 98 99 100 101 102 103 104 105 106 107 108 109 110 111 112 113 114 115 116 117 118 119 120 121 122 123 124 125 

POINT_DATA 126
SCALARS SamplingDistance2Origin float 
LOOKUP_TABLE default
-53 -52 -51 -50 -49 -48 -47 -46 -45 
-44 -43 -42 -41 -40 -39 -38 -37 -36 
-35 -34 -33 -32 -31 -30 -29 -28 -27 
-26 -25 -24 -23 -22 -21 -20 -19 -18 
-17 -16 -15 -14 -13 -12 -11 -10 -9 
-8 -7 -6 -5 -4 -3 -2 -1 0 
1 2 3 4 5 6 7 8 9 
10 11 12 13 14 15 16 17 18 
19 20 21 22 23 24 25 26 27 
28 29 30 31 32 33 34 35 36 
37 38 39 40 41 42 43 44 45 
46 47 48 49 50 51 52 53 54 
55 56 57 58 59 60 61 62 63 
64 65 66 67 68 69 70 71 72 

