# vtk DataFile Version 4.2
vtk output
ASCII
DATASET POLYDATA
POINTS 60 float
-50.2644 18.0199 6.88844 -50.1805 17.9296 7.56362 -49.9113 17.7056 8.29305 
-49.2838 17.2816 8.86179 -48.5716 16.7774 9.32482 -47.8755 16.2742 9.82607 
-47.1836 15.7768 10.3433 -46.4793 15.2937 10.86 -45.7579 14.8291 11.3714 
-45.0208 14.3856 11.8796 -44.2689 13.9667 12.3861 -43.4992 13.5764 12.8861 
-42.7058 13.2228 13.3718 -41.8849 12.9153 13.8348 -41.0349 12.6523 14.2634 
-40.1847 12.3672 14.664 -39.4401 11.9165 15.085 -38.9027 11.2492 15.5401 
-38.5404 10.4426 15.9898 -38.2552 9.57584 16.3914 -38.0011 8.67004 16.7232 
-37.7731 7.73646 16.9919 -37.5837 6.78424 17.2234 -37.4473 5.82019 17.4427 
-37.3615 4.84967 17.6593 -37.2999 3.87702 17.8734 -37.2367 2.90419 18.0811 
-37.1406 1.93158 18.2668 -36.9229 0.822419 18.4092 -36.783 0.12873 18.4934 
-36.5083 -0.63309 18.5212 -36.1787 -1.52288 18.6098 -35.8071 -2.41395 18.7911 
-35.4031 -3.269 19.0596 -34.9666 -4.07918 19.4144 -34.4794 -4.85422 19.791 
-33.9498 -5.60944 20.1648 -33.4666 -6.39742 20.4572 -33.0389 -7.21383 20.7465 
-32.6538 -7.93456 21.2409 -32.3334 -8.48483 21.9965 -32.1069 -9.00927 22.8021 
-31.9529 -9.5495 23.613 -31.8541 -10.1077 24.4335 -31.7828 -10.6844 25.2435 
-31.7154 -11.2762 26.0429 -31.6561 -11.8692 26.8429 -31.6254 -12.4415 27.6601 
-31.6416 -12.9681 28.5079 -31.7096 -13.4405 29.399 -31.8161 -13.8763 30.291 
-31.9639 -14.3014 31.1817 -32.1667 -14.7215 32.0477 -32.4451 -15.1181 32.9162 
-32.8181 -15.4807 33.7518 -33.2766 -15.8508 34.4853 -34.0219 -16.1526 35.2186 
-35.0166 -16.5877 35.748 -35.0001 -17.087 35.7012 -35.8046 -17.2229 36.0654 

LINES 1 61
60 0 1 2 3 4 5 6 7 8 9 10 11 12 13 14 15 16 17 18 19 20 21 22 23 24 25 26 27 28 29 30 31 32 33 34 35 36 37 38 39 40 41 42 43 44 45 46 47 48 49 50 51 52 53 54 55 56 57 58 59 

POINT_DATA 60
SCALARS SamplingDistance2Origin float 
LOOKUP_TABLE default
-29 -28 -27 -26 -25 -24 -23 -22 -21 
-20 -19 -18 -17 -16 -15 -14 -13 -12 
-11 -10 -9 -8 -7 -6 -5 -4 -3 
-2 -1 0 1 2 3 4 5 6 
7 8 9 10 11 12 13 14 15 
16 17 18 19 20 21 22 23 24 
25 26 27 28 29 30 
