# vtk DataFile Version 4.2
vtk output
ASCII
DATASET POLYDATA
POINTS 54 float
20.7963 16.4354 18.7512 19.8446 15.7002 19.8133 19.0441 15.1559 20.0129 
18.2538 14.7131 19.9464 17.4281 14.2967 19.8463 16.5842 13.8968 19.7411 
15.7413 13.499 19.6538 14.904 13.0943 19.5889 14.0775 12.6624 19.5586 
13.277 12.1699 19.5706 12.5422 11.566 19.621 11.9221 10.8314 19.6764 
11.4444 9.98556 19.7096 11.0943 9.07649 19.7296 10.8562 8.13084 19.7683 
10.7012 7.16916 19.844 10.6034 6.20068 19.9612 10.532 5.23355 20.1078 
10.4659 4.27261 20.2659 10.3809 3.31267 20.4104 10.2529 2.34517 20.5064 
10.0832 1.36844 20.5162 9.9149 0.394012 20.4097 9.78614 -0.565056 20.1875 
9.69699 -1.58285 19.8169 9.64885 -2.4305 19.5008 9.6466 -3.27301 19.0835 
9.6954 -4.13957 18.6679 9.8062 -5.03086 18.2573 9.97768 -5.93144 17.885 
10.2021 -6.84388 17.5685 10.4487 -7.76128 17.2994 10.6999 -8.67584 17.0643 
10.9518 -9.59156 16.8511 11.187 -10.5099 16.6444 11.3952 -11.4379 16.4419 
11.5737 -12.3821 16.2502 11.7345 -13.3453 16.0997 11.9604 -14.2784 16.0966 
12.3885 -15.0392 16.3788 12.9537 -15.6374 16.8649 13.5555 -16.1751 17.4376 
14.1467 -16.7277 18.015 14.7274 -17.3024 18.5762 15.3054 -17.8762 19.135 
15.8787 -18.4277 19.7166 16.4361 -18.9491 20.3397 17.0239 -19.4415 21.0161 
17.2866 -19.9763 21.6685 16.8031 -20.75 22.5895 16.8933 -21.3719 23.535 
16.8561 -21.9558 24.2132 16.7101 -22.685 24.5139 16.9354 -23.1115 24.8663 

LINES 1 55
54 0 1 2 3 4 5 6 7 8 9 10 11 12 13 14 15 16 17 18 19 20 21 22 23 24 25 26 27 28 29 30 31 32 33 34 35 36 37 38 39 40 41 42 43 44 45 46 47 48 49 50 51 52 53 

POINT_DATA 54
SCALARS SamplingDistance2Origin float 
LOOKUP_TABLE default
-25 -24 -23 -22 -21 -20 -19 -18 -17 
-16 -15 -14 -13 -12 -11 -10 -9 -8 
-7 -6 -5 -4 -3 -2 -1 0 1 
2 3 4 5 6 7 8 9 10 
11 12 13 14 15 16 17 18 19 
20 21 22 23 24 25 26 27 28 

