# vtk DataFile Version 4.2
vtk output
ASCII
DATASET POLYDATA
POINTS 94 float
-29.3785 12.3977 -21.1734 -30.1029 12.1601 -20.7477 -30.008 11.6632 -19.7118 
-29.9544 11.3761 -18.7595 -29.9238 11.171 -17.7906 -29.9041 10.9627 -16.8224 
-29.8452 10.6636 -15.8783 -29.7482 10.2594 -14.9737 -29.6704 9.75003 -14.1223 
-29.7048 9.08883 -13.365 -29.947 8.27118 -12.8034 -30.3693 7.43812 -12.409 
-30.8571 6.63629 -12.0771 -31.3543 5.81816 -11.7981 -31.8458 4.98253 -11.5665 
-32.3268 4.12751 -11.3811 -32.7926 3.2549 -11.2453 -33.2358 2.3667 -11.133 
-33.6326 1.46343 -10.9822 -33.9579 0.551879 -10.7439 -34.1761 -0.356984 -10.4 
-34.2862 -1.24579 -9.96237 -34.2944 -2.09997 -9.44711 -34.2177 -2.9143 -8.87478 
-34.0584 -3.68068 -8.25466 -33.8311 -4.40005 -7.59821 -33.5475 -5.06711 -6.91054 
-33.217 -5.6848 -6.19797 -32.8415 -6.24806 -5.46292 -32.4194 -6.75614 -4.71328 
-31.9461 -7.19608 -3.95167 -31.4229 -7.55049 -3.17749 -30.8545 -7.79591 -2.395 
-30.2465 -7.92722 -1.61508 -29.6024 -7.94533 -0.852934 -28.9268 -7.87017 -0.121806 
-28.2171 -7.71637 0.563419 -27.4736 -7.50009 1.19355 -26.6986 -7.2314 1.76232 
-25.9005 -6.92313 2.27605 -25.0922 -6.57449 2.74592 -24.2905 -6.17821 3.18822 
-23.5093 -5.72937 3.61623 -22.7552 -5.22544 4.02986 -22.0451 -4.65354 4.43494 
-21.4018 -4.01836 4.82025 -20.8733 -3.38716 5.16629 -20.41 -2.72227 5.52646 
-19.8911 -1.94059 5.9445 -19.404 -1.16453 6.33656 -18.9282 -0.365457 6.69629 
-18.4753 0.466098 7.01114 -18.0533 1.33116 7.27679 -17.6626 2.22563 7.4874 
-17.3096 3.14697 7.63599 -17.0055 4.09262 7.71667 -16.7577 5.05692 7.72932 
-16.5559 6.03023 7.67408 -16.3771 7.00285 7.56096 -16.223 7.97048 7.39276 
-16.0952 8.92603 7.1586 -15.9815 9.85753 6.84242 -15.8725 10.7508 6.43292 
-15.7682 11.5905 5.92431 -15.6823 12.3676 5.321 -15.6281 13.0778 4.63895 
-15.6077 13.7239 3.89429 -15.6155 14.3123 3.10068 -15.648 14.8604 2.27719 
-15.7092 15.3926 1.4409 -15.8022 15.9179 0.601802 -15.9134 16.4193 -0.24821 
-16.028 16.8617 -1.12012 -16.1461 17.2092 -2.01409 -16.279 17.4465 -2.92761 
-16.4353 17.5665 -3.86265 -16.6154 17.5547 -4.8109 -16.8204 17.3951 -5.74771 
-17.0355 17.1234 -6.65799 -17.2261 16.8108 -7.55299 -17.3528 16.5277 -8.45267 
-17.395 16.3187 -9.36536 -17.3632 16.1948 -10.285 -17.2904 16.1457 -11.2034 
-17.1874 16.1707 -12.119 -17.0355 16.2833 -13.0299 -16.8706 16.4346 -13.7717 
-16.7338 16.5902 -14.2549 -16.5781 16.7676 -14.6388 -16.3276 17.0275 -15.1933 
-16.057 17.3561 -15.8373 -15.8539 17.7178 -16.3792 -15.8063 18.1116 -16.7171 
-16.2537 18.3986 -16.3279 
LINES 1 95
94 0 1 2 3 4 5 6 7 8 9 10 11 12 13 14 15 16 17 18 19 20 21 22 23 24 25 26 27 28 29 30 31 32 33 34 35 36 37 38 39 40 41 42 43 44 45 46 47 48 49 50 51 52 53 54 55 56 57 58 59 60 61 62 63 64 65 66 67 68 69 70 71 72 73 74 75 76 77 78 79 80 81 82 83 84 85 86 87 88 89 90 91 92 93 

POINT_DATA 94
SCALARS SamplingDistance2Origin float 
LOOKUP_TABLE default
-46 -45 -44 -43 -42 -41 -40 -39 -38 
-37 -36 -35 -34 -33 -32 -31 -30 -29 
-28 -27 -26 -25 -24 -23 -22 -21 -20 
-19 -18 -17 -16 -15 -14 -13 -12 -11 
-10 -9 -8 -7 -6 -5 -4 -3 -2 
-1 0 1 2 3 4 5 6 7 
8 9 10 11 12 13 14 15 16 
17 18 19 20 21 22 23 24 25 
26 27 28 29 30 31 32 33 34 
35 36 37 38 39 40 41 42 43 
44 45 46 47 
