# vtk DataFile Version 4.2
vtk output
ASCII
DATASET POLYDATA
POINTS 97 float
2.83079 13.061 -23.3041 3.22037 12.6351 -22.6245 3.70961 12.2616 -21.8443 
4.20672 11.9257 -20.9803 4.17906 11.6019 -20.118 4.12698 11.4033 -19.1773 
3.93507 11.2679 -18.2616 3.67451 11.1035 -17.3408 3.57856 10.7432 -16.4964 
3.53403 10.1987 -15.6841 3.43973 9.59942 -14.9102 3.3695 8.92174 -14.1977 
3.47347 8.01657 -13.6133 3.63792 7.1735 -13.126 3.87737 6.25796 -12.7617 
4.195 5.42116 -12.373 4.69154 4.03541 -12.1329 5.10377 2.9366 -11.9211 
5.50511 2.0975 -11.5892 5.88925 1.22505 -11.2607 6.21513 0.3623 -10.8937 
6.45501 -0.501407 -10.4669 6.60843 -1.35006 -9.97622 6.66489 -2.17279 -9.42074 
6.63547 -2.96144 -8.81382 6.53155 -3.70773 -8.16123 6.36341 -4.40609 -7.46886 
6.13895 -5.05129 -6.74061 5.86152 -5.63783 -5.98162 5.53023 -6.16337 -5.20004 
5.14314 -6.61923 -4.40214 4.70267 -6.98892 -3.58908 4.21643 -7.25846 -2.76375 
3.68507 -7.42647 -1.93843 3.10509 -7.49909 -1.1327 2.47854 -7.4813 -0.35927 
1.81243 -7.38467 0.375017 1.11018 -7.2235 1.06324 0.37134 -7.00435 1.6966 
-0.400701 -6.7389 2.2692 -1.19783 -6.43782 2.7875 -2.0071 -6.09663 3.25991 
-2.81439 -5.7118 3.70092 -3.60902 -5.28033 4.12074 -4.38313 -4.80019 4.52525 
-5.12936 -4.26474 4.91245 -5.83684 -3.66845 5.28393 -6.49344 -3.01095 5.64823 
-7.09212 -2.29955 6.01074 -7.64515 -1.55104 6.3691 -8.16991 -0.778854 6.71796 
-8.73329 0.175485 7.09009 -9.14928 0.761518 7.35722 -9.52455 1.54213 7.56543 
-9.95057 2.39081 7.77034 -10.3614 3.28707 7.9237 -10.7314 4.20912 8.00238 
-11.0526 5.15166 7.99689 -11.3272 6.10561 7.91605 -11.5675 7.06221 7.77713 
-11.7878 8.01615 7.59424 -11.9902 8.96307 7.3668 -12.1708 9.8961 7.07956 
-12.3314 10.8009 6.71244 -12.464 11.6595 6.2414 -12.5596 12.4583 5.66709 
-12.6153 13.1926 5.00627 -12.6381 13.8679 4.28195 -12.6371 14.4876 3.50848 
-12.6196 15.0595 2.6976 -12.5874 15.5951 1.86055 -12.5459 16.1001 1.00459 
-12.5005 16.5668 0.130639 -12.4553 16.977 -0.759467 -12.4022 17.3042 -1.66569 
-12.326 17.526 -2.58879 -12.2081 17.616 -3.52899 -12.0438 17.5585 -4.47037 
-11.8378 17.3579 -5.38962 -11.6109 17.0571 -6.27908 -11.3905 16.707 -7.14993 
-11.2157 16.3654 -8.0209 -11.1209 16.0818 -8.90253 -11.1074 15.8843 -9.79776 
-11.1595 15.7834 -10.703 -11.2557 15.7754 -11.6103 -11.3954 15.857 -12.5139 
-11.5948 16.0403 -13.4445 -11.8441 16.2885 -14.3345 -12.0725 16.4655 -14.9582 
-12.3236 16.669 -15.5193 -12.5765 16.9066 -16.0418 -12.8378 17.2274 -16.5988 
-13.0322 17.5927 -17.0583 -13.0491 17.9371 -17.3089 -13.0484 18.2877 -17.5316 
-12.6523 18.8252 -17.3424 
LINES 1 98
97 0 1 2 3 4 5 6 7 8 9 10 11 12 13 14 15 16 17 18 19 20 21 22 23 24 25 26 27 28 29 30 31 32 33 34 35 36 37 38 39 40 41 42 43 44 45 46 47 48 49 50 51 52 53 54 55 56 57 58 59 60 61 62 63 64 65 66 67 68 69 70 71 72 73 74 75 76 77 78 79 80 81 82 83 84 85 86 87 88 89 90 91 92 93 94 95 96 

POINT_DATA 97
SCALARS SamplingDistance2Origin float 
LOOKUP_TABLE default
-52 -51 -50 -49 -48 -47 -46 -45 -44 
-43 -42 -41 -40 -39 -38 -37 -36 -35 
-34 -33 -32 -31 -30 -29 -28 -27 -26 
-25 -24 -23 -22 -21 -20 -19 -18 -17 
-16 -15 -14 -13 -12 -11 -10 -9 -8 
-7 -6 -5 -4 -3 -2 -1 0 1 
2 3 4 5 6 7 8 9 10 
11 12 13 14 15 16 17 18 19 
20 21 22 23 24 25 26 27 28 
29 30 31 32 33 34 35 36 37 
38 39 40 41 42 43 44 
