# vtk DataFile Version 4.2
vtk output
ASCII
DATASET POLYDATA
POINTS 67 float
-0.862443 55.1552 -9.93724 -1.462 54.4212 -10.2434 -1.36861 53.7587 -10.0292 
-1.13605 52.9695 -9.54181 -0.951953 52.1816 -9.1188 -0.472733 51.3534 -8.50067 
0.0828863 50.5475 -7.80344 0.36066 49.662 -7.28623 0.472783 48.7668 -6.91673 
0.190234 47.7664 -6.90202 -0.00163514 46.796 -6.86351 -0.139059 45.8055 -6.77538 
-0.26525 44.8189 -6.69407 -0.333843 43.8383 -6.5493 -0.405704 42.8595 -6.40327 
-0.483581 41.8846 -6.24698 -0.57785 40.9137 -6.10392 -0.676901 39.9435 -5.9869 
-0.763705 38.9696 -5.92209 -0.819372 37.9924 -5.95238 -0.832495 37.0228 -6.11984 
-0.795265 36.0782 -6.42198 -0.707065 35.159 -6.79806 -0.589166 34.2583 -7.20934 
-0.466614 33.3728 -7.64755 -0.337317 32.5045 -8.11501 -0.184024 31.6455 -8.59441 
0.00671293 30.7753 -9.04158 0.255033 29.8813 -9.40607 0.601717 28.9827 -9.65476 
1.07007 28.122 -9.81281 1.63328 27.3175 -9.92297 2.22879 26.5561 -10.0024 
2.82519 25.8558 -9.99341 3.45001 25.0731 -9.96363 4.02869 24.2727 -9.91761 
4.53706 23.4235 -9.89799 4.97046 22.5311 -9.94452 5.35637 21.6252 -10.0898 
5.72512 20.7338 -10.3386 6.08666 19.8753 -10.6928 6.44022 19.0616 -11.1461 
6.78425 18.3126 -11.701 7.12597 17.6526 -12.3534 7.48538 17.1163 -13.0921 
7.88403 16.7151 -13.8876 8.3333 16.4504 -14.7075 8.81572 16.3122 -15.5343 
9.28941 16.309 -16.3714 9.71051 16.4406 -17.2248 10.0404 16.7077 -18.0927 
10.2695 17.0998 -18.9555 10.4111 17.6133 -19.7793 10.4912 18.2327 -20.5383 
10.5297 18.9389 -21.2196 10.5474 19.7045 -21.8329 10.5415 20.4611 -22.4049 
10.4908 21.1515 -22.9807 10.4506 21.7215 -23.5006 10.6499 22.0702 -23.8202 
11.0923 22.3628 -23.9487 11.563 22.5456 -24.0108 11.8044 22.6721 -24.1815 
12.1256 22.4298 -24.1701 12.3221 22.1513 -24.3637 12.4401 21.9627 -24.8773 
12.5133 22.2517 -25.1907 
LINES 1 68
67 0 1 2 3 4 5 6 7 8 9 10 11 12 13 14 15 16 17 18 19 20 21 22 23 24 25 26 27 28 29 30 31 32 33 34 35 36 37 38 39 40 41 42 43 44 45 46 47 48 49 50 51 52 53 54 55 56 57 58 59 60 61 62 63 64 65 66 

POINT_DATA 67
SCALARS SamplingDistance2Origin float 
LOOKUP_TABLE default
-32 -31 -30 -29 -28 -27 -26 -25 -24 
-23 -22 -21 -20 -19 -18 -17 -16 -15 
-14 -13 -12 -11 -10 -9 -8 -7 -6 
-5 -4 -3 -2 -1 0 1 2 3 
4 5 6 7 8 9 10 11 12 
13 14 15 16 17 18 19 20 21 
22 23 24 25 26 27 28 29 30 
31 32 33 34 
