# vtk DataFile Version 4.2
vtk output
ASCII
DATASET POLYDATA
POINTS 74 float
14.4973 50.5673 -12.4973 13.6849 50.9544 -10.4352 13.4866 49.8622 -10.1692 
13.0582 49.0607 -9.7692 12.6796 48.3783 -9.42006 12.2379 47.9408 -8.89713 
11.6786 47.6608 -8.29721 11.2453 47.176 -7.83203 10.6475 46.8324 -7.32582 
9.861 46.645 -6.78232 9.09414 46.3665 -6.30218 8.26534 46.1209 -5.86304 
7.42259 45.8437 -5.48552 6.59105 45.5212 -5.1571 5.81394 45.1257 -4.84967 
5.12594 44.6463 -4.56061 4.5301 44.075 -4.31502 4.00792 43.4124 -4.13947 
3.53813 42.6734 -4.04857 3.10821 41.8737 -4.04919 2.70957 41.0317 -4.14425 
2.34691 40.1564 -4.32857 2.03632 39.2597 -4.59511 1.78077 38.3589 -4.92248 
1.58609 37.4597 -5.29834 1.45644 36.5648 -5.71295 1.37738 35.6769 -6.15731 
1.32911 34.8004 -6.63051 1.30219 33.9421 -7.13788 1.30728 33.1036 -7.67781 
1.36046 32.2561 -8.19912 1.50411 31.3506 -8.57927 1.80811 30.4194 -8.73287 
2.28799 29.5497 -8.78389 2.89529 28.7611 -8.84365 3.56597 28.0252 -8.91619 
4.30029 27.2777 -8.99092 4.82809 26.6947 -8.9978 5.38444 26.106 -9.05581 
6.01497 25.3626 -9.07788 6.55067 24.5288 -9.09622 6.92584 23.6089 -9.1425 
7.21486 22.6596 -9.2501 7.47392 21.7151 -9.44367 7.72116 20.7929 -9.73499 
7.96612 19.9046 -10.1192 8.21546 19.0549 -10.5807 8.47438 18.2483 -11.1078 
8.75153 17.5005 -11.7019 9.06565 16.8363 -12.3636 9.43978 16.2679 -13.0727 
9.88812 15.7993 -13.8055 10.3993 15.4368 -14.5483 10.9483 15.2158 -15.3058 
11.4798 15.2323 -16.0953 11.8891 15.5802 -16.908 12.1469 16.1549 -17.6733 
12.3172 16.8502 -18.364 12.443 17.623 -18.9742 12.5532 18.4558 -19.4961 
12.6702 19.3344 -19.9259 12.8158 20.2431 -20.2673 13.0094 21.1658 -20.5321 
13.2633 22.09 -20.7306 13.5772 23.0098 -20.8708 13.939 23.9239 -20.9619 
14.3282 24.835 -21.0139 14.7172 25.7492 -21.0339 15.0806 26.545 -21.0264 
15.3703 27.0523 -21.027 15.6849 27.6953 -20.9703 15.8406 28.1229 -21.0711 
16.5713 28.2076 -20.3062 18.0261 27.972 -18.4732 
LINES 1 75
74 0 1 2 3 4 5 6 7 8 9 10 11 12 13 14 15 16 17 18 19 20 21 22 23 24 25 26 27 28 29 30 31 32 33 34 35 36 37 38 39 40 41 42 43 44 45 46 47 48 49 50 51 52 53 54 55 56 57 58 59 60 61 62 63 64 65 66 67 68 69 70 71 72 73 

POINT_DATA 74
SCALARS SamplingDistance2Origin float 
LOOKUP_TABLE default
-37 -36 -35 -34 -33 -32 -31 -30 -29 
-28 -27 -26 -25 -24 -23 -22 -21 -20 
-19 -18 -17 -16 -15 -14 -13 -12 -11 
-10 -9 -8 -7 -6 -5 -4 -3 -2 
-1 0 1 2 3 4 5 6 7 
8 9 10 11 12 13 14 15 16 
17 18 19 20 21 22 23 24 25 
26 27 28 29 30 31 32 33 34 
35 36 
