# vtk DataFile Version 4.2
vtk output
ASCII
DATASET POLYDATA
POINTS 67 float
-41.0885 22.237 -22.0832 -41.0269 21.9741 -21.9296 -40.8668 21.6405 -21.8774 
-40.6436 21.4679 -22.0037 -40.4461 21.3974 -22.0289 -40.2461 21.2437 -21.9952 
-40.0309 20.9467 -21.9048 -39.8311 20.5939 -21.7335 -39.6837 20.085 -21.4165 
-39.5705 19.3871 -21.0004 -39.4927 18.5673 -20.4918 -39.4234 17.7309 -19.9167 
-39.3282 16.9555 -19.2969 -39.1872 16.2494 -18.6105 -38.9394 15.6915 -17.8633 
-38.5833 15.3251 -17.0823 -38.1691 15.1069 -16.2783 -37.7151 15.051 -15.4718 
-37.2308 15.1651 -14.6919 -36.7435 15.3756 -13.907 -36.2764 15.709 -13.1374 
-35.8676 16.1837 -12.3964 -35.5372 16.8011 -11.7097 -35.2743 17.5422 -11.1077 
-35.0384 18.3653 -10.5997 -34.7927 19.2432 -10.1954 -34.5172 20.155 -9.89759 
-34.2016 21.0833 -9.71007 -33.8256 22.0037 -9.63111 -33.3456 22.8741 -9.67578 
-32.7521 23.6524 -9.83928 -32.1007 24.3517 -10.0764 -31.4878 24.9609 -10.2893 
-30.9091 25.5332 -10.5086 -30.1891 26.2313 -10.6656 -29.5188 26.9614 -10.7021 
-28.9424 27.7597 -10.576 -28.4927 28.6016 -10.2966 -28.154 29.4512 -9.90335 
-27.8843 30.2935 -9.44359 -27.65 31.1269 -8.95013 -27.4392 31.9591 -8.44562 
-27.25 32.8019 -7.95123 -27.0765 33.6612 -7.47977 -26.9305 34.5409 -7.03676 
-26.834 35.4445 -6.62933 -26.7981 36.3781 -6.2853 -26.8131 37.3391 -6.05462 
-26.8669 38.3115 -5.96569 -26.9419 39.2802 -5.98995 -27.022 40.2421 -6.09188 
-27.0967 41.1983 -6.24417 -27.2062 42.1729 -6.36476 -27.4162 43.2001 -6.35426 
-27.613 44.2187 -6.36066 -27.7806 45.217 -6.41648 -27.5845 46.1233 -6.76788 
-27.8414 47.153 -6.65889 -27.8561 48.1273 -6.84878 -27.3861 48.9689 -7.4986 
-26.9388 49.7971 -8.18021 -26.7397 50.6089 -8.72682 -26.5391 51.3936 -9.31059 
-26.3643 52.1606 -9.88095 -26.4106 52.9951 -10.1786 -26.5103 53.8185 -10.4357 
-27.0935 54.6353 -10.2567 
LINES 1 68
67 0 1 2 3 4 5 6 7 8 9 10 11 12 13 14 15 16 17 18 19 20 21 22 23 24 25 26 27 28 29 30 31 32 33 34 35 36 37 38 39 40 41 42 43 44 45 46 47 48 49 50 51 52 53 54 55 56 57 58 59 60 61 62 63 64 65 66 

POINT_DATA 67
SCALARS SamplingDistance2Origin float 
LOOKUP_TABLE default
-32 -31 -30 -29 -28 -27 -26 -25 -24 
-23 -22 -21 -20 -19 -18 -17 -16 -15 
-14 -13 -12 -11 -10 -9 -8 -7 -6 
-5 -4 -3 -2 -1 0 1 2 3 
4 5 6 7 8 9 10 11 12 
13 14 15 16 17 18 19 20 21 
22 23 24 25 26 27 28 29 30 
31 32 33 34 
