# vtk DataFile Version 4.2
vtk output
ASCII
DATASET POLYDATA
POINTS 59 float
-41.4091 38.7278 1.08623 -40.6679 38.4965 0.754439 -39.6316 39.1802 0.248762 
-38.687 39.6594 -0.450375 -37.8629 39.8111 -0.265619 -37.014 39.9035 0.217999 
-36.1766 39.9508 0.72688 -35.3586 39.936 1.25535 -34.563 39.8346 1.80746 
-33.7801 39.6137 2.3428 -32.9988 39.2225 2.76739 -32.2561 38.5473 3.13429 
-31.6445 37.776 3.21882 -31.1552 36.9501 3.02499 -30.8567 36.0573 2.7569 
-30.7443 35.1377 2.43606 -30.7652 34.2269 2.07719 -30.8596 33.3451 1.67596 
-30.9946 32.5189 1.21258 -31.1831 31.7576 0.683989 -31.4439 31.0302 0.12105 
-31.7804 30.3166 -0.446177 -32.1727 29.6184 -1.01209 -32.5975 28.9347 -1.58424 
-33.0301 28.2593 -2.16817 -33.4484 27.5828 -2.76629 -33.835 26.8935 -3.37341 
-34.2684 26.0467 -4.06583 -34.4343 25.4938 -4.58749 -34.7691 24.7836 -5.08477 
-35.0719 24.0354 -5.61451 -35.3816 23.2248 -6.10555 -35.6571 22.3549 -6.50375 
-35.8809 21.4418 -6.83111 -36.0582 20.5249 -7.17309 -36.2085 19.6414 -7.60098 
-36.3506 18.8001 -8.11324 -36.4947 17.9941 -8.68073 -36.6516 17.2294 -9.29993 
-36.8361 16.5317 -9.98044 -37.0578 15.9493 -10.7336 -37.3357 15.493 -11.5364 
-37.6964 15.1256 -12.3465 -38.1416 14.8203 -13.1368 -38.6487 14.5865 -13.9032 
-39.1884 14.4677 -14.6514 -39.7142 14.5469 -15.3943 -40.1374 14.9069 -16.1312 
-40.3975 15.5359 -16.8308 -40.576 16.3313 -17.4815 -40.7615 17.2044 -18.0234 
-40.9537 17.7398 -18.4008 -41.0652 18.0879 -18.7454 -41.1889 18.6953 -19.0814 
-41.2921 19.0515 -19.3377 -41.442 19.2948 -19.4582 -41.6291 19.3147 -19.4292 
-41.6692 19.6313 -19.6835 -41.7018 19.9793 -19.8729 
LINES 1 60
59 0 1 2 3 4 5 6 7 8 9 10 11 12 13 14 15 16 17 18 19 20 21 22 23 24 25 26 27 28 29 30 31 32 33 34 35 36 37 38 39 40 41 42 43 44 45 46 47 48 49 50 51 52 53 54 55 56 57 58 

POINT_DATA 59
SCALARS SamplingDistance2Origin float 
LOOKUP_TABLE default
-28 -27 -26 -25 -24 -23 -22 -21 -20 
-19 -18 -17 -16 -15 -14 -13 -12 -11 
-10 -9 -8 -7 -6 -5 -4 -3 -2 
-1 0 1 2 3 4 5 6 7 
8 9 10 11 12 13 14 15 16 
17 18 19 20 21 22 23 24 25 
26 27 28 29 30 
